<?xml version="1.0" encoding="UTF-8" standalone="no"?>
<svg
   xmlns:osb="http://www.openswatchbook.org/uri/2009/osb"
   xmlns:dc="http://purl.org/dc/elements/1.1/"
   xmlns:cc="http://creativecommons.org/ns#"
   xmlns:rdf="http://www.w3.org/1999/02/22-rdf-syntax-ns#"
   xmlns:svg="http://www.w3.org/2000/svg"
   xmlns="http://www.w3.org/2000/svg"
   version="1.1"
   id="svg2"
   viewBox="0 0 744.09448819 1052.3622047"
   height="297mm"
   width="210mm">
  <defs
     id="defs4">
    <linearGradient
       osb:paint="solid"
       id="linearGradient4149">
      <stop
         id="stop4151"
         offset="0"
         style="stop-color:#1d2d44;stop-opacity:1;" />
    </linearGradient>
    <linearGradient
       osb:paint="solid"
       id="linearGradient4143">
      <stop
         id="stop4145"
         offset="0"
         style="stop-color:#000000;stop-opacity:0;" />
    </linearGradient>
  </defs>
  <metadata
     id="metadata7">
    <rdf:RDF>
      <cc:Work
         rdf:about="">
        <dc:format>image/svg+xml</dc:format>
        <dc:type
           rdf:resource="http://purl.org/dc/dcmitype/StillImage" />
        <dc:title></dc:title>
      </cc:Work>
    </rdf:RDF>
  </metadata>
  <g
     id="layer1">
    <flowRoot
       transform="matrix(0.25808671,0,0,0.21591934,540.93796,711.86529)"
       style="font-style:normal;font-variant:normal;font-weight:normal;font-stretch:normal;font-size:60px;line-height:150.99999905%;font-family:sans-serif;-inkscape-font-specification:sans-serif;text-align:center;letter-spacing:0px;word-spacing:0px;text-anchor:middle;fill:#000000;fill-opacity:1;stroke:none;stroke-width:1px;stroke-linecap:butt;stroke-linejoin:miter;stroke-opacity:1"
       id="flowRoot4155"
       xml:space="preserve"><flowRegion
         id="flowRegion4157"><rect
           style="font-style:normal;font-variant:normal;font-weight:normal;font-stretch:normal;font-size:60px;line-height:150.99999905%;font-family:sans-serif;-inkscape-font-specification:sans-serif;text-align:center;text-anchor:middle;fill:#000000;fill-opacity:1"
           y="-336.20923"
           x="-1142.8572"
           height="594.28564"
           width="942.85779"
           id="rect4159" /></flowRegion><flowPara
         style="font-size:90px;line-height:150.99999905%;text-align:center;word-spacing:0.38999999px;writing-mode:lr-tb;text-anchor:middle;fill:#1d2d44;fill-opacity:1"
         id="flowPara4161"></flowPara><flowPara
         id="flowPara4169"
         style="font-size:90px;line-height:150.99999905%;text-align:center;word-spacing:0.38999999px;writing-mode:lr-tb;text-anchor:middle;fill:#1d2d44;fill-opacity:1">Admin tool</flowPara><flowPara
         style="font-size:90px;line-height:150.99999905%;text-align:center;word-spacing:0.38999999px;writing-mode:lr-tb;text-anchor:middle;fill:#1d2d44;fill-opacity:1"
         id="flowPara4163">oauth2owncloud</flowPara><flowPara
         style="line-height:150.99999905%;word-spacing:0.38999999px"
         id="flowPara4165" /><flowPara
         style="line-height:150.99999905%;word-spacing:0.38999999px"
         id="flowPara4167" /></flowRoot>    <flowRoot
       transform="matrix(0.25808671,0,0,0.21591934,560.93796,690.27335)"
       style="font-style:normal;font-weight:normal;font-size:505px;line-height:125%;font-family:sans-serif;text-align:center;letter-spacing:0px;word-spacing:0px;writing-mode:lr-tb;text-anchor:middle;fill:#1d2d44;fill-opacity:1;stroke:none;stroke-width:1px;stroke-linecap:butt;stroke-linejoin:miter;stroke-opacity:1"
       id="flowRoot4229"
       xml:space="preserve"><flowRegion
         id="flowRegion4231"><rect
           ry="0"
           style="font-size:505px;fill:#1d2d44;fill-opacity:1"
           y="546.64795"
           x="-2017.1428"
           height="588.57141"
           width="942.85724"
           id="rect4233" /></flowRegion><flowPara
         style="font-size:505px;fill:#1d2d44;fill-opacity:1"
         id="flowPara4235">?</flowPara></flowRoot>    <flowRoot
       style="font-style:normal;font-weight:normal;font-size:505px;line-height:125%;font-family:sans-serif;text-align:center;letter-spacing:0px;word-spacing:0px;writing-mode:lr-tb;text-anchor:middle;fill:#1d2d44;fill-opacity:1;stroke:none;stroke-width:1px;stroke-linecap:butt;stroke-linejoin:miter;stroke-opacity:1"
       id="flowRoot4229-3"
       xml:space="preserve"
       transform="matrix(0.25808671,0,0,0.21591934,980.4177,690.52951)"><flowRegion
         id="flowRegion4231-2"><rect
           ry="0"
           style="font-size:505px;fill:#1d2d44;fill-opacity:1"
           y="546.64795"
           x="-2017.1428"
           height="588.57141"
           width="942.85724"
           id="rect4233-6" /></flowRegion><flowPara
         style="font-size:505px;fill:#1d2d44;fill-opacity:1"
         id="flowPara4235-5">?</flowPara></flowRoot>    <g
       transform="matrix(8.2293739,0,0,5.618888,304.15813,599.87233)"
       id="cloud">
      <circle
         style="fill:#ffffff;stroke:#1d2d44;stroke-width:0.22059999"
         id="circle265"
         class="st0"
         cx="4.8000002"
         cy="6"
         r="1.1" />
      <circle
         style="fill:#ffffff;stroke:#1d2d44;stroke-width:0.22059999"
         id="circle272"
         class="st0"
         cx="2.7"
         cy="10"
         r="2.0999999" />
      <circle
         style="fill:#ffffff;stroke:#1d2d44;stroke-width:0.22059999"
         id="circle279"
         class="st0"
         cx="5.0999999"
         cy="8.5"
         r="2.2" />
      <circle
         style="fill:#ffffff;stroke:#1d2d44;stroke-width:0.22059999"
         id="circle286"
         class="st0"
         cx="9.6000004"
         cy="7.5999999"
         r="2.0999999" />
      <circle
         style="fill:#ffffff;stroke:#1d2d44;stroke-width:0.22059999"
         id="circle293"
         class="st0"
         cx="7.3000002"
         cy="6"
         r="2.0999999" />
      <circle
         style="fill:#ffffff;stroke:#1d2d44;stroke-width:0.22059999"
         id="circle300"
         class="st0"
         cx="14.1"
         cy="10.7"
         r="1.2" />
      <circle
         style="fill:#ffffff;stroke:#1d2d44;stroke-width:0.22059999"
         id="circle307"
         class="st0"
         cx="11.7"
         cy="9.8000002"
         r="2.2" />
      <circle
         style="fill:#ffffff;stroke:#1d2d44;stroke-width:0.22059999"
         id="circle314"
         class="st0"
         cx="4.9000001"
         cy="10.8"
         r="1.2" />
      <g
         id="oauth"
         transform="translate(0,35.625)">
        <path
           style="fill:#1d2d44"
           class="st1"
           d="m 10.4,-26.5 c 0,1.3 -1.1,2.3 -2.3,2.3 -1.2,0 -2.3,-1.1 -2.3,-2.3 0,-1.3 1.1,-2.3 2.3,-2.3 1.2,0 2.3,1 2.3,2.3 z"
           id="path4415" />
        <g
           id="hashpattern">
          <g
             id="g4418">
            <line
               class="st2"
               x1="8.1999998"
               y1="-23.700001"
               x2="10.9"
               y2="-26.4"
               id="line4420" />
            <line
               class="st2"
               x1="7.9000001"
               y1="-23.9"
               x2="10.7"
               y2="-26.6"
               id="line4422" />
            <line
               class="st2"
               x1="7.6999998"
               y1="-24.1"
               x2="10.4"
               y2="-26.799999"
               id="line4424" />
            <line
               class="st2"
               x1="7.5"
               y1="-24.299999"
               x2="10.2"
               y2="-27.1"
               id="line4426" />
            <line
               class="st2"
               x1="7.1999998"
               y1="-24.5"
               x2="10"
               y2="-27.299999"
               id="line4428" />
            <line
               class="st2"
               x1="7"
               y1="-24.700001"
               x2="9.8000002"
               y2="-27.5"
               id="line4430" />
            <line
               class="st2"
               x1="6.8000002"
               y1="-25"
               x2="9.5"
               y2="-27.700001"
               id="line4432" />
            <line
               class="st2"
               x1="6.5"
               y1="-25.200001"
               x2="9.3000002"
               y2="-28"
               id="line4434" />
            <line
               class="st2"
               x1="6.3000002"
               y1="-25.4"
               x2="9.1000004"
               y2="-28.200001"
               id="line4436" />
            <line
               class="st2"
               x1="6"
               y1="-25.6"
               x2="8.8999996"
               y2="-28.4"
               id="line4438" />
            <line
               class="st2"
               x1="5.8000002"
               y1="-25.799999"
               x2="8.6000004"
               y2="-28.6"
               id="line4440" />
            <line
               class="st2"
               x1="5.5999999"
               y1="-26"
               x2="8.3999996"
               y2="-28.9"
               id="line4442" />
            <line
               class="st2"
               x1="5.3000002"
               y1="-26.200001"
               x2="8.1999998"
               y2="-29.1"
               id="line4444" />
            <line
               class="st2"
               x1="5.0999999"
               y1="-26.5"
               x2="8"
               y2="-29.299999"
               id="line4446" />
          </g>
          <g
             id="g4448">
            <line
               class="st2"
               x1="5.0999999"
               y1="-26.4"
               x2="7.9000001"
               y2="-23.700001"
               id="line4450" />
            <line
               class="st2"
               x1="5.3000002"
               y1="-26.700001"
               x2="8.1000004"
               y2="-23.9"
               id="line4452" />
            <line
               class="st2"
               x1="5.5"
               y1="-26.9"
               x2="8.3000002"
               y2="-24.1"
               id="line4454" />
            <line
               class="st2"
               x1="5.8000002"
               y1="-27.1"
               x2="8.5"
               y2="-24.299999"
               id="line4456" />
            <line
               class="st2"
               x1="6"
               y1="-27.299999"
               x2="8.8000002"
               y2="-24.6"
               id="line4458" />
            <line
               class="st2"
               x1="6.1999998"
               y1="-27.6"
               x2="9"
               y2="-24.799999"
               id="line4460" />
            <line
               class="st2"
               x1="6.4000001"
               y1="-27.799999"
               x2="9.1999998"
               y2="-25"
               id="line4462" />
            <line
               class="st2"
               x1="6.6999998"
               y1="-28"
               x2="9.5"
               y2="-25.200001"
               id="line4464" />
            <line
               class="st2"
               x1="6.9000001"
               y1="-28.299999"
               x2="9.6999998"
               y2="-25.4"
               id="line4466" />
            <line
               class="st2"
               x1="7.0999999"
               y1="-28.5"
               x2="9.8999996"
               y2="-25.700001"
               id="line4468" />
            <line
               class="st2"
               x1="7.3000002"
               y1="-28.700001"
               x2="10.2"
               y2="-25.9"
               id="line4470" />
            <line
               class="st2"
               x1="7.5999999"
               y1="-28.9"
               x2="10.4"
               y2="-26.1"
               id="line4472" />
            <line
               class="st2"
               x1="7.8000002"
               y1="-29.200001"
               x2="10.6"
               y2="-26.299999"
               id="line4474" />
            <line
               class="st2"
               x1="8"
               y1="-29.4"
               x2="10.8"
               y2="-26.6"
               id="line4476" />
          </g>
        </g>
        <path
           style="fill:#1d2d44"
           class="st1"
           d="m 10,-28.5 c -0.2,-0.2 -0.5,-0.5 -0.9,-0.6 -0.4,-0.1 -0.8,-0.3 -1.3,-0.2 -0.8,0 -1.4,0.4 -1.8,0.8 -0.3,0.3 -0.5,0.6 -0.7,1.1 -0.2,0.6 -0.2,1.3 0,2 0.2,0.5 0.5,1 1,1.3 0.4,0.3 1.1,0.6 1.8,0.5 0.9,-0.1 1.5,-0.5 2,-1 0.1,-0.1 0.2,-0.3 0.3,-0.5 0.1,-0.1 0.1,-0.2 0.1,-0.3 0.1,-0.3 0.2,-0.5 0.2,-0.9 0.2,-1 -0.2,-1.7 -0.7,-2.2 z m -0.3,2.8 c 0,0.1 0,0.1 0,0 0,0.1 -0.1,0.2 -0.2,0.3 -0.3,0.4 -0.7,0.7 -1.4,0.7 -0.5,0 -1,-0.1 -1.3,-0.3 -0.3,-0.2 -0.5,-0.4 -0.6,-0.7 0,0 -0.1,-0.2 -0.1,-0.2 -0.1,-0.4 -0.1,-0.9 0,-1.3 0.1,-0.2 0.2,-0.5 0.4,-0.7 0.2,-0.3 0.5,-0.4 0.9,-0.6 0.2,-0.1 0.3,-0.1 0.5,-0.1 0.5,0 1.1,0.2 1.3,0.5 0.3,0.2 0.6,0.7 0.6,1.1 0.2,0.6 0.1,1 -0.1,1.3 z"
           id="path4478" />
        <path
           class="st3"
           d="m 8.8,-25.2 c -0.1,0 -0.2,-0.1 -0.3,-0.2 l -0.1,-0.4 -0.7,0 -0.1,0.4 c 0,0.1 -0.2,0.2 -0.3,0.2 0,0 -0.1,0 -0.1,0 C 7,-25.2 7,-25.4 7,-25.6 l 0.6,-1.9 c 0,-0.1 0.2,-0.2 0.3,-0.2 l 0.3,0 c 0.1,0 0.2,0.1 0.3,0.2 l 0.6,1.9 c 0,0.1 0,0.3 -0.3,0.4 0.1,0 0,0 0,0 l 0,0 z"
           id="path4480" />
      </g>
      <path
         style="fill:none;stroke:#1d2d44;stroke-width:0.22059999"
         id="path321"
         class="st4"
         d="m 10.8,9.1 c 0,1.6 -1.2,2.8 -2.8,2.8 -1.6,0 -2.8,-1.2 -2.8,-2.8 0,-1.6 1.2,-2.8 2.8,-2.8 1.6,0 2.8,1.3 2.8,2.8 z" />
    </g>
    <rect
       y="766.35516"
       x="155.46359"
       height="40.099319"
       width="3.686939"
       id="rect4554"
       style="fill:#1d2d44;fill-opacity:1;stroke:#1d2d44;stroke-width:3.7770133;stroke-linejoin:round;stroke-miterlimit:4.19999981;stroke-dasharray:none;stroke-opacity:1" />
    <rect
       y="765.73822"
       x="155.83224"
       height="1.8507439"
       width="238.91447"
       id="rect4554-2"
       style="fill:#1d2d44;fill-opacity:1;stroke:#1d2d44;stroke-width:3.7770133;stroke-linejoin:round;stroke-miterlimit:4.19999981;stroke-dasharray:none;stroke-opacity:1" />
    <rect
       y="741.08661"
       x="371.5148"
       height="26.416094"
       width="0.56489015"
       id="rect4571"
       style="fill:#1d2d44;fill-opacity:1;stroke:#1d2d44;stroke-width:3.94951367;stroke-linejoin:round;stroke-miterlimit:4.19999981;stroke-dasharray:none;stroke-opacity:1" />
    <rect
       y="765.73822"
       x="392.16595"
       height="1.8507352"
       width="183.61026"
       id="rect4573"
       style="fill:#1d2d44;fill-opacity:1;stroke:#1d2d44;stroke-width:3.7770133;stroke-linejoin:round;stroke-miterlimit:4.19999981;stroke-dasharray:none;stroke-opacity:1" />
    <rect
       y="765.73822"
       x="574.30145"
       height="41.950043"
       width="2.212172"
       id="rect4578"
       style="fill:#1d2d44;fill-opacity:1;stroke:#1d2d44;stroke-width:3.7770133;stroke-linejoin:round;stroke-miterlimit:4.19999981;stroke-dasharray:none;stroke-opacity:1" />
  </g>
  <style
     type="text/css"
     id="style4403">
	.st0{fill:#FFFFFF;stroke:#1D2D44;stroke-width:0.2206;}
	.st1{fill:#1D2D44;}
	.st2{fill:none;stroke:#FFFFFF;stroke-width:2.317336e-02;}
	.st3{fill:#FFFFFF;stroke:#1D2D44;stroke-width:6.952009e-02;}
	.st4{fill:none;stroke:#1D2D44;stroke-width:0.2206;}
</style>
</svg>
