<?xml version="1.0" encoding="utf-8"?>
<!-- Generator: Adobe Illustrator 21.0.2, SVG Export Plug-In . SVG Version: 6.00 Build 0)  -->
<svg version="1.1" id="Ebene_1" xmlns="http://www.w3.org/2000/svg" xmlns:xlink="http://www.w3.org/1999/xlink" x="0px" y="0px"
	 viewBox="0 0 720 350.1" style="enable-background:new 0 0 720 350.1;" xml:space="preserve">
<style type="text/css">
	.st0{fill:#4F4F4C;}
	.st1{fill:#888886;}
	.st2{fill:none;stroke:#4F4F4C;stroke-width:2;stroke-linecap:round;stroke-linejoin:round;stroke-miterlimit:10;}
	.st3{fill:none;stroke:#4F4F4C;stroke-width:2;stroke-miterlimit:10;}
	.st4{fill:#797979;}
	.st5{fill:none;stroke:#797979;stroke-width:2;stroke-linecap:round;stroke-linejoin:round;stroke-miterlimit:10;}
	.st6{fill:#FFFFFF;}
	.st7{fill:#20334D;}
	.st8{fill:none;stroke:#20334D;stroke-width:2;stroke-linecap:round;stroke-linejoin:round;stroke-miterlimit:10;}
	.st9{fill:#FA8C10;}
	.st10{fill:none;stroke:#FA8C10;stroke-width:2;stroke-linecap:round;stroke-linejoin:round;stroke-miterlimit:10;}
</style>
<g id="_x30_5">
	<g>
		<path class="st0" d="M208,314.8h-1.4l-1-3.2h-3.8l-1,3.2h-1.2l3.4-10.3h1.6L208,314.8z M205.3,310.7l-1.6-5l-0.5,1.5
			c-0.1,0.4-0.5,1.6-1.1,3.5H205.3z"/>
		<path class="st0" d="M214.3,314c-0.7,0.7-1.4,1-2.3,1c-1.1,0-1.9-0.4-2.4-1.1c-0.5-0.7-0.7-1.5-0.7-2.6c0-1.4,0.4-2.4,1.1-3.2
			c0.6-0.6,1.3-0.9,2-0.9c0.7,0,1.4,0.3,2,0.8l-0.6,0.8c-0.5-0.4-1-0.6-1.4-0.6c-1.2,0-1.8,1.1-1.8,3.3c0,1.7,0.6,2.6,1.9,2.6
			c0.6,0,1.2-0.3,1.6-0.8L214.3,314z"/>
		<path class="st0" d="M220.7,314c-0.7,0.7-1.4,1-2.3,1c-1.1,0-1.9-0.4-2.4-1.1c-0.5-0.7-0.7-1.5-0.7-2.6c0-1.4,0.4-2.4,1.1-3.2
			c0.6-0.6,1.3-0.9,2-0.9c0.7,0,1.4,0.3,2,0.8l-0.6,0.8c-0.5-0.4-1-0.6-1.4-0.6c-1.2,0-1.8,1.1-1.8,3.3c0,1.7,0.6,2.6,1.9,2.6
			c0.6,0,1.2-0.3,1.6-0.8L220.7,314z"/>
		<path class="st0" d="M227.7,311.3H223v0.2c0,0.7,0.1,1.3,0.3,1.6c0.4,0.6,1,0.9,1.9,0.9c0.7,0,1.3-0.2,1.8-0.7l0.4,0.8
			c-0.7,0.6-1.5,0.9-2.5,0.9c-1.1,0-2-0.4-2.5-1.2c-0.5-0.7-0.8-1.6-0.8-2.8c0-1.1,0.3-1.9,0.8-2.7c0.6-0.8,1.4-1.2,2.4-1.2
			c0.8,0,1.5,0.3,2,0.8c0.4,0.4,0.6,0.9,0.7,1.5c0.1,0.4,0.1,0.9,0.1,1.7V311.3z M226.4,310.4c0-0.7-0.1-1.2-0.3-1.6
			c-0.3-0.5-0.7-0.7-1.4-0.7c-1.1,0-1.7,0.8-1.7,2.3H226.4z"/>
		<path class="st0" d="M234.5,312.6c0,0.8-0.3,1.4-0.9,1.8c-0.5,0.4-1.2,0.6-2,0.6c-1,0-1.9-0.2-2.7-0.8l0.4-0.9
			c0.8,0.5,1.6,0.7,2.4,0.7c0.4,0,0.8-0.1,1.1-0.3s0.4-0.5,0.4-1c0-0.6-0.4-1-1.2-1.2l-0.9-0.2c-1.3-0.3-1.9-1-1.9-2
			c0-0.7,0.3-1.3,0.8-1.7c0.5-0.4,1.1-0.6,1.8-0.6c0.8,0,1.6,0.2,2.3,0.6l-0.4,0.9c-0.8-0.4-1.4-0.5-1.9-0.5c-0.4,0-0.7,0.1-1,0.3
			c-0.3,0.2-0.4,0.5-0.4,0.9c0,0.6,0.4,0.9,1.1,1.1l1,0.2C233.8,310.8,234.5,311.5,234.5,312.6z"/>
		<path class="st0" d="M241.1,312.6c0,0.8-0.3,1.4-0.9,1.8c-0.5,0.4-1.2,0.6-2,0.6c-1,0-1.9-0.2-2.7-0.8l0.4-0.9
			c0.8,0.5,1.6,0.7,2.4,0.7c0.4,0,0.8-0.1,1.1-0.3s0.4-0.5,0.4-1c0-0.6-0.4-1-1.2-1.2l-0.9-0.2c-1.3-0.3-1.9-1-1.9-2
			c0-0.7,0.3-1.3,0.8-1.7c0.5-0.4,1.1-0.6,1.8-0.6c0.8,0,1.6,0.2,2.3,0.6l-0.4,0.9c-0.8-0.4-1.4-0.5-1.9-0.5c-0.4,0-0.7,0.1-1,0.3
			c-0.3,0.2-0.4,0.5-0.4,0.9c0,0.6,0.4,0.9,1.1,1.1l1,0.2C240.5,310.8,241.1,311.5,241.1,312.6z"/>
		<path class="st0" d="M254,304.5l-0.1,1h-2.8v9.3h-1.2v-9.3h-2.8v-1H254z"/>
		<path class="st0" d="M261.7,311.3c0,1.4-0.4,2.4-1.2,3.1c-0.6,0.5-1.2,0.7-2,0.7c-1.1,0-1.9-0.4-2.5-1.2c-0.5-0.7-0.8-1.6-0.8-2.8
			c0-1.1,0.2-2,0.7-2.7c0.6-0.8,1.4-1.2,2.4-1.2c1.1,0,2,0.4,2.5,1.3C261.4,309.2,261.7,310.1,261.7,311.3z M260.3,311.4
			c0-0.9-0.1-1.6-0.3-2.1c-0.3-0.7-0.9-1.1-1.6-1.1c-0.8,0-1.3,0.3-1.6,0.9c-0.2,0.4-0.3,1-0.3,1.9c0,1,0.1,1.7,0.3,2.1
			c0.3,0.7,0.9,1.1,1.7,1.1C259.7,314.1,260.3,313.2,260.3,311.4z"/>
		<path class="st0" d="M264.9,314.8h-1.2v-8.5c0-0.6,0-1.1-0.1-1.7c0-0.1-0.1-0.3-0.1-0.5l1.2-0.3c0.1,0.2,0.1,0.4,0.1,0.6
			c0.1,0.4,0.1,1,0.1,1.6V314.8z M270,314.8h-1.6l-3.4-4.2l2.9-3.2h1.5l-2.9,3.2L270,314.8z"/>
		<path class="st0" d="M276.8,311.3h-4.7v0.2c0,0.7,0.1,1.3,0.3,1.6c0.4,0.6,1,0.9,1.9,0.9c0.7,0,1.3-0.2,1.8-0.7l0.4,0.8
			c-0.7,0.6-1.5,0.9-2.5,0.9c-1.1,0-2-0.4-2.5-1.2c-0.5-0.7-0.8-1.6-0.8-2.8c0-1.1,0.3-1.9,0.8-2.7c0.6-0.8,1.4-1.2,2.4-1.2
			c0.8,0,1.5,0.3,2,0.8c0.4,0.4,0.6,0.9,0.7,1.5c0.1,0.4,0.1,0.9,0.1,1.7V311.3z M275.6,310.4c0-0.7-0.1-1.2-0.3-1.6
			c-0.3-0.5-0.7-0.7-1.4-0.7c-1.1,0-1.7,0.8-1.7,2.3H275.6z"/>
		<path class="st0" d="M284.4,314.8h-1.2v-5.1c0-0.5-0.1-0.9-0.2-1.1c-0.2-0.3-0.5-0.5-0.9-0.5c-0.3,0-0.7,0.1-1.1,0.3
			c-0.4,0.2-0.7,0.4-0.9,0.7v5.6h-1.1v-5.6c0-0.8-0.1-1.3-0.3-1.8l1.1-0.3c0.2,0.4,0.3,0.8,0.3,1.2c0.8-0.8,1.6-1.2,2.4-1.2
			c0.4,0,0.8,0.1,1.1,0.3c0.3,0.2,0.6,0.5,0.7,0.8c0.1,0.3,0.2,0.6,0.2,0.9V314.8z"/>
		<path class="st0" d="M300.7,314.8h-1.6l-1-1c-0.6,0.8-1.6,1.2-2.9,1.2c-1,0-1.8-0.2-2.4-0.6c-0.7-0.5-1.1-1.2-1.1-2.1
			c0-0.6,0.2-1.1,0.5-1.5c0.2-0.3,0.8-0.7,1.6-1.1c-1-0.8-1.5-1.6-1.5-2.3s0.3-1.3,0.8-1.7c0.5-0.4,1.1-0.6,1.8-0.6
			c0.8,0,1.4,0.2,1.9,0.6c0.6,0.4,0.9,1,0.9,1.7c0,0.8-0.4,1.5-1.3,2l-0.9,0.5l2.4,2.3c0.1-0.2,0.2-0.6,0.3-1.2c0-0.2,0-0.6,0-1.1
			l1,0c0,0.7,0,1.2-0.1,1.6c-0.1,0.5-0.2,1-0.5,1.5L300.7,314.8z M297.5,313.2l-3-2.9c-1,0.5-1.5,1.2-1.5,2.1c0,0.6,0.2,1.1,0.7,1.4
			c0.4,0.3,0.9,0.4,1.5,0.4c0.4,0,0.8-0.1,1.2-0.2C297,313.7,297.3,313.5,297.5,313.2z M296.6,307.3c0-0.4-0.1-0.8-0.4-1
			s-0.6-0.4-1-0.4c-0.4,0-0.8,0.1-1.1,0.4c-0.2,0.2-0.3,0.5-0.3,0.9s0.2,0.8,0.7,1.3c0.2,0.2,0.5,0.4,0.7,0.6
			C296.1,308.6,296.6,308,296.6,307.3z"/>
		<path class="st0" d="M314,314.8h-1.5c-0.5-1.1-1.4-2.5-2.6-4c-0.4-0.4-0.7-0.6-1.1-0.7v4.6h-1.2v-10.3h2.4c1.2,0,2.1,0.2,2.6,0.7
			c0.7,0.6,1,1.3,1,2.2c0,0.8-0.2,1.5-0.7,2c-0.5,0.5-1.2,0.8-2,0.8h-0.1c0.3,0.3,0.7,0.6,1,1.2c0.1,0.2,0.4,0.6,0.8,1.2
			C312.7,312.9,313.2,313.7,314,314.8z M312.2,307.4c0-0.3-0.1-0.6-0.3-0.9s-0.4-0.5-0.7-0.6c-0.4-0.1-0.8-0.2-1.3-0.2h-1.2v3.8h1.1
			c0.8,0,1.4-0.1,1.8-0.4C311.9,308.7,312.2,308.1,312.2,307.4z"/>
		<path class="st0" d="M321.4,311.3h-4.7v0.2c0,0.7,0.1,1.3,0.3,1.6c0.4,0.6,1,0.9,1.9,0.9c0.7,0,1.3-0.2,1.8-0.7l0.4,0.8
			c-0.7,0.6-1.5,0.9-2.5,0.9c-1.1,0-2-0.4-2.5-1.2c-0.5-0.7-0.8-1.6-0.8-2.8c0-1.1,0.3-1.9,0.8-2.7c0.6-0.8,1.4-1.2,2.4-1.2
			c0.8,0,1.5,0.3,2,0.8c0.4,0.4,0.6,0.9,0.7,1.5c0.1,0.4,0.1,0.9,0.1,1.7V311.3z M320.1,310.4c0-0.7-0.1-1.2-0.3-1.6
			c-0.3-0.5-0.7-0.7-1.4-0.7c-1.1,0-1.7,0.8-1.7,2.3H320.1z"/>
		<path class="st0" d="M327.4,304.4l-0.4,0.8c-0.4-0.2-0.8-0.3-1.1-0.3c-0.7,0-1,0.4-1,1.3v1.2h2.1l-0.4,0.9h-1.7v6.5h-1.2v-6.5
			h-0.7v-0.9h0.7v-1.2c0-0.8,0.3-1.4,0.8-1.8c0.3-0.3,0.8-0.4,1.3-0.4C326.4,304,327,304.1,327.4,304.4z"/>
		<path class="st0" d="M331.4,307.2l-0.5,1.2c-0.1,0-0.2,0-0.3,0c-0.3,0-0.6,0.1-0.9,0.3c-0.3,0.2-0.5,0.4-0.7,0.6
			c-0.1,0.2-0.1,0.4-0.1,0.8v4.7h-1.2v-5.7c0-0.7-0.1-1.2-0.3-1.6l1.2-0.3c0.2,0.4,0.3,0.7,0.3,1.1v0.1c0.6-0.8,1.3-1.2,2.1-1.2
			C331.1,307.2,331.2,307.2,331.4,307.2z"/>
		<path class="st0" d="M338,311.3h-4.7v0.2c0,0.7,0.1,1.3,0.3,1.6c0.4,0.6,1,0.9,1.9,0.9c0.7,0,1.3-0.2,1.8-0.7l0.4,0.8
			c-0.7,0.6-1.5,0.9-2.5,0.9c-1.1,0-2-0.4-2.5-1.2c-0.5-0.7-0.8-1.6-0.8-2.8c0-1.1,0.3-1.9,0.8-2.7c0.6-0.8,1.4-1.2,2.4-1.2
			c0.8,0,1.5,0.3,2,0.8c0.4,0.4,0.6,0.9,0.7,1.5c0.1,0.4,0.1,0.9,0.1,1.7V311.3z M336.7,310.4c0-0.7-0.1-1.2-0.3-1.6
			c-0.3-0.5-0.7-0.7-1.4-0.7c-1.1,0-1.7,0.8-1.7,2.3H336.7z"/>
		<path class="st0" d="M344.7,312.6c0,0.8-0.3,1.4-0.9,1.8c-0.5,0.4-1.2,0.6-2,0.6c-1,0-1.9-0.2-2.7-0.8l0.4-0.9
			c0.8,0.5,1.6,0.7,2.4,0.7c0.4,0,0.8-0.1,1.1-0.3s0.4-0.5,0.4-1c0-0.6-0.4-1-1.2-1.2l-0.9-0.2c-1.3-0.3-1.9-1-1.9-2
			c0-0.7,0.3-1.3,0.8-1.7c0.5-0.4,1.1-0.6,1.8-0.6c0.8,0,1.6,0.2,2.3,0.6l-0.4,0.9c-0.8-0.4-1.4-0.5-1.9-0.5c-0.4,0-0.7,0.1-1,0.3
			c-0.3,0.2-0.4,0.5-0.4,0.9c0,0.6,0.4,0.9,1.1,1.1l1,0.2C344.1,310.8,344.7,311.5,344.7,312.6z"/>
		<path class="st0" d="M352.3,314.8h-1.2v-5.1c0-0.5-0.1-0.8-0.2-1c-0.2-0.3-0.5-0.4-0.9-0.4c-0.8,0-1.5,0.4-2.2,1.3v5.3h-1.2v-9.2
			c0-0.5-0.1-1-0.2-1.5l1.2-0.2c0.1,0.5,0.2,1.1,0.2,1.7v1.7c0,0.3,0,0.6,0,1c0.2-0.2,0.5-0.4,0.8-0.6c0.6-0.4,1.2-0.6,1.7-0.6
			c0.5,0,0.9,0.1,1.3,0.4c0.4,0.3,0.6,0.7,0.7,1.1c0,0.2,0,0.4,0,0.7V314.8z"/>
		<path class="st0" d="M365.6,304.5l-0.1,1h-2.8v9.3h-1.2v-9.3h-2.8v-1H365.6z"/>
		<path class="st0" d="M373.3,311.3c0,1.4-0.4,2.4-1.2,3.1c-0.6,0.5-1.2,0.7-2,0.7c-1.1,0-1.9-0.4-2.5-1.2c-0.5-0.7-0.8-1.6-0.8-2.8
			c0-1.1,0.2-2,0.7-2.7c0.6-0.8,1.4-1.2,2.4-1.2c1.1,0,2,0.4,2.5,1.3C373.1,309.2,373.3,310.1,373.3,311.3z M372,311.4
			c0-0.9-0.1-1.6-0.3-2.1c-0.3-0.7-0.9-1.1-1.7-1.1c-0.8,0-1.3,0.3-1.6,0.9c-0.2,0.4-0.3,1-0.3,1.9c0,1,0.1,1.7,0.3,2.1
			c0.3,0.7,0.9,1.1,1.7,1.1C371.3,314.1,372,313.2,372,311.4z"/>
		<path class="st0" d="M376.6,314.8h-1.2v-8.5c0-0.6,0-1.1-0.1-1.7c0-0.1-0.1-0.3-0.1-0.5l1.2-0.3c0.1,0.2,0.1,0.4,0.1,0.6
			c0.1,0.4,0.1,1,0.1,1.6V314.8z M381.6,314.8h-1.6l-3.4-4.2l2.8-3.2h1.5l-2.9,3.2L381.6,314.8z"/>
		<path class="st0" d="M388.4,311.3h-4.7v0.2c0,0.7,0.1,1.3,0.3,1.6c0.4,0.6,1,0.9,1.9,0.9c0.7,0,1.3-0.2,1.8-0.7l0.5,0.8
			c-0.7,0.6-1.5,0.9-2.5,0.9c-1.1,0-2-0.4-2.5-1.2c-0.5-0.7-0.8-1.6-0.8-2.8c0-1.1,0.3-1.9,0.8-2.7c0.6-0.8,1.4-1.2,2.4-1.2
			c0.8,0,1.5,0.3,2,0.8c0.4,0.4,0.6,0.9,0.7,1.5c0.1,0.4,0.1,0.9,0.1,1.7V311.3z M387.2,310.4c0-0.7-0.1-1.2-0.3-1.6
			c-0.3-0.5-0.7-0.7-1.4-0.7c-1.1,0-1.7,0.8-1.7,2.3H387.2z"/>
		<path class="st0" d="M396,314.8h-1.2v-5.1c0-0.5-0.1-0.9-0.2-1.1c-0.2-0.3-0.5-0.5-0.9-0.5c-0.3,0-0.7,0.1-1.1,0.3
			c-0.4,0.2-0.7,0.4-0.9,0.7v5.6h-1.1v-5.6c0-0.8-0.1-1.3-0.3-1.8l1.1-0.3c0.2,0.4,0.3,0.8,0.3,1.2c0.8-0.8,1.6-1.2,2.4-1.2
			c0.4,0,0.8,0.1,1.1,0.3c0.3,0.2,0.6,0.5,0.7,0.8c0.1,0.3,0.2,0.6,0.2,0.9V314.8z"/>
	</g>
	<g>
		<path class="st1" d="M186.7,314c0,1.1-0.5,2-1.4,2.7c-0.8,0.6-1.8,0.9-3,0.9c-0.4,0-0.7,0-1.1-0.1l-0.2-0.9
			c0.3,0.1,0.7,0.2,1.1,0.2c0.9,0,1.6-0.2,2.2-0.7c0.7-0.5,1-1.2,1-2c0-0.7-0.2-1.1-0.6-1.5c-0.4-0.3-0.9-0.5-1.6-0.5
			c-0.8,0-1.4,0.1-1.9,0.3l0.5-5.1h4.4l-0.2,1h-3.2l-0.3,2.9c0.4,0,0.8-0.1,1-0.1c0.9,0,1.7,0.2,2.3,0.8
			C186.4,312.4,186.7,313.1,186.7,314z"/>
		<path class="st1" d="M191,314c0,0.3-0.1,0.5-0.3,0.7s-0.4,0.3-0.7,0.3c-0.3,0-0.5-0.1-0.7-0.3c-0.2-0.2-0.3-0.4-0.3-0.7
			c0-0.3,0.1-0.5,0.3-0.7c0.2-0.2,0.4-0.3,0.7-0.3c0.3,0,0.5,0.1,0.7,0.3C190.9,313.4,191,313.7,191,314z"/>
	</g>
	<polyline class="st2" points="638,234 638,324 165.9,324.2 	"/>
	<polygon class="st0" points="156.3,324.2 165.9,327.8 165.9,320.6 	"/>
	<polygon class="st3" points="156.3,324.2 165.9,327.8 165.9,320.6 	"/>
</g>
<g id="_x30_4">
	<g>
		<path class="st1" d="M188.4,278.7h-0.8c-0.1,0-0.2,0-0.4,0c0,0.2,0,0.3,0,0.4v2.2l-1.2,0.3v-2.4c0-0.1,0-0.3,0-0.6
			c-0.3,0-0.5,0-0.6,0h-3.9v-0.9l3.5-6.8h1.3l-2.9,5.6c-0.2,0.3-0.4,0.7-0.7,1.2c0.2,0,0.4-0.1,0.6-0.1h2.6v-0.4
			c0-0.3,0-0.8,0.1-1.3l0.1-2.1l0.9-0.3v3c0,0.5,0,0.9,0,1.2c0.2,0,0.3,0,0.5,0h0.7V278.7z"/>
		<path class="st1" d="M192,278c0,0.3-0.1,0.5-0.3,0.7s-0.4,0.3-0.7,0.3c-0.3,0-0.5-0.1-0.7-0.3c-0.2-0.2-0.3-0.4-0.3-0.7
			c0-0.3,0.1-0.5,0.3-0.7c0.2-0.2,0.4-0.3,0.7-0.3c0.3,0,0.5,0.1,0.7,0.3C191.9,277.4,192,277.7,192,278z"/>
	</g>
	<g>
		<path class="st0" d="M208.8,279.2h-1.4l-1-3.2h-3.8l-1,3.2h-1.2l3.4-10.3h1.6L208.8,279.2z M206.1,275l-1.6-5l-0.5,1.5
			c-0.1,0.4-0.5,1.6-1.1,3.5H206.1z"/>
		<path class="st0" d="M216.2,278.7l-0.8,0.8c-0.5-0.4-0.7-0.8-0.8-1.2c-0.6,0.8-1.4,1.1-2.4,1.1c-1.4,0-2.2-0.7-2.2-2.2v-5.5
			l1.2-0.2v5.4c0,1,0.5,1.5,1.4,1.5c0.4,0,0.8-0.1,1.1-0.4c0.3-0.2,0.6-0.6,0.8-0.9v-5.3l1.2-0.2v5.3c0,0.7,0.1,1.2,0.2,1.4
			C216,278.4,216.1,278.6,216.2,278.7z"/>
		<path class="st0" d="M221.4,271.7l-0.4,0.9h-1.6v4.8c0,0.4,0.1,0.7,0.2,0.8c0.1,0.2,0.4,0.3,0.8,0.3c0.3,0,0.6,0,0.8-0.1l0.2,0.8
			c-0.4,0.2-0.8,0.3-1.3,0.3c-1.1,0-1.7-0.6-1.7-1.7v-5.1h-1v-0.9h1v-0.1c0-0.1,0-0.6,0.1-1.6l0-0.2l1.2-0.3
			c-0.1,0.8-0.1,1.5-0.1,2.1H221.4z"/>
		<path class="st0" d="M228.6,279.2h-1.2v-5.1c0-0.5-0.1-0.8-0.2-1c-0.2-0.3-0.5-0.4-0.9-0.4c-0.8,0-1.5,0.4-2.2,1.3v5.3h-1.2V270
			c0-0.5-0.1-1-0.2-1.5l1.2-0.2c0.1,0.5,0.2,1.1,0.2,1.7v1.7c0,0.3,0,0.6,0,1c0.2-0.2,0.5-0.4,0.8-0.6c0.6-0.4,1.2-0.6,1.7-0.6
			c0.5,0,0.9,0.1,1.3,0.4c0.4,0.3,0.6,0.7,0.7,1.1c0,0.2,0,0.4,0,0.7V279.2z"/>
		<path class="st0" d="M237.1,275.7c0,1.4-0.4,2.4-1.2,3.1c-0.6,0.5-1.2,0.7-2,0.7c-1.1,0-1.9-0.4-2.5-1.2c-0.5-0.7-0.8-1.6-0.8-2.8
			c0-1.1,0.2-2,0.7-2.7c0.6-0.8,1.4-1.2,2.4-1.2c1.1,0,2,0.4,2.5,1.3C236.9,273.5,237.1,274.5,237.1,275.7z M235.8,275.7
			c0-0.9-0.1-1.6-0.3-2.1c-0.3-0.7-0.9-1.1-1.6-1.1c-0.8,0-1.3,0.3-1.6,0.9c-0.2,0.4-0.3,1-0.3,1.9c0,1,0.1,1.7,0.3,2.1
			c0.3,0.7,0.9,1.1,1.7,1.1C235.1,278.5,235.8,277.6,235.8,275.7z"/>
		<path class="st0" d="M243,271.6l-0.5,1.2c-0.1,0-0.2,0-0.3,0c-0.3,0-0.6,0.1-0.9,0.3c-0.3,0.2-0.5,0.4-0.7,0.6
			c-0.1,0.2-0.1,0.4-0.1,0.8v4.7h-1.2v-5.7c0-0.7-0.1-1.2-0.3-1.6l1.2-0.3c0.2,0.4,0.3,0.7,0.3,1.1v0.1c0.6-0.8,1.3-1.2,2.1-1.2
			C242.7,271.5,242.8,271.6,243,271.6z"/>
		<path class="st0" d="M245.6,269.4c0,0.3-0.1,0.5-0.3,0.7c-0.2,0.2-0.4,0.3-0.7,0.3c-0.2,0-0.5-0.1-0.6-0.3
			c-0.2-0.2-0.3-0.4-0.3-0.6c0-0.3,0.1-0.5,0.3-0.7c0.2-0.2,0.4-0.3,0.7-0.3s0.5,0.1,0.7,0.3C245.5,269,245.6,269.2,245.6,269.4z
			 M245.3,279.2H244v-7.4l1.2-0.2V279.2z"/>
		<path class="st0" d="M252.5,278.3l-0.6,0.9h-5v-0.9l4.1-5.6h-3.8v-0.9h5v1l-3.9,5.6H252.5z"/>
		<path class="st0" d="M259.8,278.7l-0.6,0.8c-0.5-0.2-0.9-0.5-1-1.1c-0.7,0.7-1.4,1-2.2,1c-0.7,0-1.3-0.2-1.7-0.5
			c-0.5-0.4-0.7-0.9-0.7-1.6c0-1,0.4-1.7,1.3-2.1c0.7-0.4,1.6-0.5,2.6-0.5c0.2,0,0.4,0,0.5,0v-0.5c0-0.6-0.1-1-0.2-1.2
			c-0.2-0.3-0.6-0.4-1-0.4c-0.9,0-1.6,0.3-2.4,0.9l-0.6-0.8c1-0.7,2.1-1,3.1-1c1.1,0,1.8,0.4,2.1,1.2c0.1,0.3,0.2,0.7,0.2,1.3v0.4
			l-0.1,2.5c0,0.1,0,0.2,0,0.3c0,0.4,0,0.7,0.1,0.9C259.4,278.3,259.5,278.5,259.8,278.7z M258.1,275.4c-0.3,0-0.5,0-0.6,0
			c-1.7,0-2.6,0.6-2.6,1.8c0,0.9,0.4,1.4,1.3,1.4c0.8,0,1.4-0.4,1.8-1.2L258.1,275.4z"/>
		<path class="st0" d="M264.9,271.7l-0.4,0.9H263v4.8c0,0.4,0.1,0.7,0.2,0.8c0.1,0.2,0.4,0.3,0.8,0.3c0.3,0,0.6,0,0.8-0.1l0.2,0.8
			c-0.4,0.2-0.8,0.3-1.3,0.3c-1.1,0-1.7-0.6-1.7-1.7v-5.1h-1v-0.9h1v-0.1c0-0.1,0-0.6,0.1-1.6l0-0.2l1.2-0.3
			c-0.1,0.8-0.1,1.5-0.1,2.1H264.9z"/>
		<path class="st0" d="M268.1,269.4c0,0.3-0.1,0.5-0.3,0.7c-0.2,0.2-0.4,0.3-0.7,0.3c-0.2,0-0.5-0.1-0.6-0.3
			c-0.2-0.2-0.3-0.4-0.3-0.6c0-0.3,0.1-0.5,0.3-0.7c0.2-0.2,0.4-0.3,0.7-0.3s0.5,0.1,0.7,0.3C268,269,268.1,269.2,268.1,269.4z
			 M267.8,279.2h-1.2v-7.4l1.2-0.2V279.2z"/>
		<path class="st0" d="M276.4,275.7c0,1.4-0.4,2.4-1.2,3.1c-0.6,0.5-1.2,0.7-2,0.7c-1.1,0-1.9-0.4-2.5-1.2c-0.5-0.7-0.8-1.6-0.8-2.8
			c0-1.1,0.2-2,0.7-2.7c0.6-0.8,1.4-1.2,2.4-1.2c1.1,0,2,0.4,2.5,1.3C276.1,273.5,276.4,274.5,276.4,275.7z M275,275.7
			c0-0.9-0.1-1.6-0.3-2.1c-0.3-0.7-0.9-1.1-1.6-1.1c-0.8,0-1.3,0.3-1.6,0.9c-0.2,0.4-0.3,1-0.3,1.9c0,1,0.1,1.7,0.3,2.1
			c0.3,0.7,0.9,1.1,1.7,1.1C274.4,278.5,275,277.6,275,275.7z"/>
		<path class="st0" d="M284.1,279.2h-1.2v-5.1c0-0.5-0.1-0.9-0.2-1.1c-0.2-0.3-0.5-0.5-0.9-0.5c-0.3,0-0.7,0.1-1.1,0.3
			c-0.4,0.2-0.7,0.4-0.9,0.7v5.6h-1.1v-5.6c0-0.8-0.1-1.3-0.3-1.8l1.1-0.3c0.2,0.4,0.3,0.8,0.3,1.2c0.8-0.8,1.6-1.2,2.4-1.2
			c0.4,0,0.8,0.1,1.1,0.3c0.3,0.2,0.6,0.5,0.7,0.8c0.1,0.3,0.2,0.6,0.2,0.9V279.2z"/>
		<path class="st0" d="M298.2,278.5c-0.9,0.6-1.8,0.8-2.9,0.8c-1.4,0-2.4-0.6-3.2-1.7c-0.7-1-1-2.2-1-3.6c0-1.4,0.4-2.6,1.1-3.6
			c0.8-1.1,1.9-1.7,3.2-1.7c1,0,1.9,0.3,2.6,0.8l-0.7,0.8c-0.6-0.4-1.2-0.6-1.9-0.6c-1.2,0-2,0.6-2.5,1.8c-0.3,0.7-0.4,1.6-0.4,2.7
			c0,0.9,0.1,1.6,0.3,2.2c0.5,1.3,1.4,1.9,2.8,1.9c0.7,0,1.4-0.2,2-0.7L298.2,278.5z"/>
		<path class="st0" d="M305.7,275.7c0,1.4-0.4,2.4-1.2,3.1c-0.6,0.5-1.2,0.7-2,0.7c-1.1,0-1.9-0.4-2.5-1.2c-0.5-0.7-0.8-1.6-0.8-2.8
			c0-1.1,0.2-2,0.7-2.7c0.6-0.8,1.4-1.2,2.4-1.2c1.1,0,2,0.4,2.5,1.3C305.5,273.5,305.7,274.5,305.7,275.7z M304.4,275.7
			c0-0.9-0.1-1.6-0.3-2.1c-0.3-0.7-0.9-1.1-1.6-1.1c-0.8,0-1.3,0.3-1.6,0.9c-0.2,0.4-0.3,1-0.3,1.9c0,1,0.1,1.7,0.3,2.1
			c0.3,0.7,0.9,1.1,1.7,1.1C303.7,278.5,304.4,277.6,304.4,275.7z"/>
		<path class="st0" d="M313.9,279.2h-1.2c-0.1-0.2-0.1-0.5-0.2-0.8c-0.2,0.2-0.4,0.4-0.5,0.5c-0.4,0.3-0.9,0.4-1.5,0.4
			c-1,0-1.8-0.4-2.4-1.1c-0.5-0.7-0.7-1.5-0.7-2.6c0-1.6,0.5-2.7,1.5-3.5c0.5-0.3,0.9-0.5,1.4-0.5c0.9,0,1.5,0.3,2,1
			c0-0.4,0-0.8,0-1.2v-3.1l1.2,0.2v8.3c0,0.9,0,1.5,0.1,1.8C313.8,278.9,313.8,279.1,313.9,279.2z M312.5,277.3v-3.9
			c-0.4-0.5-1-0.8-1.8-0.8c-1.3,0-1.9,1-1.9,2.9c0,1.9,0.6,2.8,1.8,2.8C311.5,278.3,312.1,278,312.5,277.3z"/>
		<path class="st0" d="M321.6,275.7H317v0.2c0,0.7,0.1,1.3,0.3,1.6c0.4,0.6,1,0.9,1.9,0.9c0.7,0,1.3-0.2,1.8-0.7l0.4,0.8
			c-0.7,0.6-1.5,0.9-2.5,0.9c-1.1,0-2-0.4-2.5-1.2c-0.5-0.7-0.8-1.6-0.8-2.8c0-1.1,0.3-1.9,0.8-2.7c0.6-0.8,1.4-1.2,2.4-1.2
			c0.8,0,1.5,0.3,2,0.8c0.4,0.4,0.6,0.9,0.7,1.5c0.1,0.4,0.1,0.9,0.1,1.7V275.7z M320.4,274.8c0-0.7-0.1-1.2-0.3-1.6
			c-0.3-0.5-0.7-0.7-1.4-0.7c-1.1,0-1.7,0.8-1.7,2.3H320.4z"/>
		<path class="st0" d="M337.5,279.2H336l-1-1c-0.6,0.8-1.6,1.2-2.9,1.2c-1,0-1.8-0.2-2.4-0.6c-0.7-0.5-1.1-1.2-1.1-2.1
			c0-0.6,0.2-1.1,0.5-1.5c0.2-0.3,0.8-0.7,1.6-1.1c-1-0.8-1.5-1.6-1.5-2.3s0.3-1.3,0.8-1.7c0.5-0.4,1.1-0.6,1.8-0.6
			c0.8,0,1.4,0.2,1.9,0.6c0.6,0.4,0.9,1,0.9,1.7c0,0.8-0.4,1.5-1.3,2l-0.9,0.5l2.4,2.3c0.1-0.2,0.2-0.6,0.3-1.2c0-0.2,0-0.6,0-1.1
			l1,0c0,0.7,0,1.2-0.1,1.6c-0.1,0.5-0.2,1-0.5,1.5L337.5,279.2z M334.3,277.6l-3-2.9c-1,0.5-1.5,1.2-1.5,2.1c0,0.6,0.2,1.1,0.7,1.4
			c0.4,0.3,0.9,0.4,1.5,0.4c0.4,0,0.8-0.1,1.2-0.2C333.8,278.1,334.1,277.9,334.3,277.6z M333.4,271.7c0-0.4-0.1-0.8-0.4-1
			s-0.6-0.4-1-0.4c-0.4,0-0.8,0.1-1.1,0.4c-0.2,0.2-0.3,0.5-0.3,0.9s0.2,0.8,0.7,1.3c0.2,0.2,0.5,0.4,0.7,0.6
			C332.9,273,333.4,272.4,333.4,271.7z"/>
		<path class="st0" d="M350.7,279.2h-1.5c-0.5-1.1-1.4-2.5-2.6-4c-0.4-0.4-0.7-0.6-1.1-0.7v4.6h-1.2v-10.3h2.4
			c1.2,0,2.1,0.2,2.6,0.7c0.7,0.6,1,1.3,1,2.2c0,0.8-0.2,1.5-0.7,2c-0.5,0.5-1.2,0.8-2,0.8h-0.1c0.3,0.3,0.7,0.6,1,1.2
			c0.1,0.2,0.4,0.6,0.8,1.2C349.5,277.3,350,278.1,350.7,279.2z M348.9,271.7c0-0.3-0.1-0.6-0.3-0.9s-0.4-0.5-0.7-0.6
			c-0.4-0.1-0.8-0.2-1.3-0.2h-1.2v3.8h1.1c0.8,0,1.4-0.1,1.8-0.4C348.7,273,348.9,272.5,348.9,271.7z"/>
		<path class="st0" d="M358.2,275.7h-4.7v0.2c0,0.7,0.1,1.3,0.3,1.6c0.4,0.6,1,0.9,1.9,0.9c0.7,0,1.3-0.2,1.8-0.7l0.4,0.8
			c-0.7,0.6-1.5,0.9-2.5,0.9c-1.1,0-2-0.4-2.5-1.2c-0.5-0.7-0.8-1.6-0.8-2.8c0-1.1,0.3-1.9,0.8-2.7c0.6-0.8,1.4-1.2,2.4-1.2
			c0.8,0,1.5,0.3,2,0.8c0.4,0.4,0.6,0.9,0.7,1.5c0.1,0.4,0.1,0.9,0.1,1.7V275.7z M356.9,274.8c0-0.7-0.1-1.2-0.3-1.6
			c-0.3-0.5-0.7-0.7-1.4-0.7c-1.1,0-1.7,0.8-1.7,2.3H356.9z"/>
		<path class="st0" d="M366.2,279.2H365c-0.1-0.2-0.1-0.5-0.2-0.8c-0.2,0.2-0.4,0.4-0.5,0.5c-0.4,0.3-0.9,0.4-1.5,0.4
			c-1,0-1.8-0.4-2.4-1.1c-0.5-0.7-0.7-1.5-0.7-2.6c0-1.6,0.5-2.7,1.5-3.5c0.5-0.3,0.9-0.5,1.4-0.5c0.9,0,1.5,0.3,2,1
			c0-0.4,0-0.8,0-1.2v-3.1l1.2,0.2v8.3c0,0.9,0,1.5,0.1,1.8C366.1,278.9,366.2,279.1,366.2,279.2z M364.8,277.3v-3.9
			c-0.4-0.5-1-0.8-1.8-0.8c-1.3,0-1.9,1-1.9,2.9c0,1.9,0.6,2.8,1.8,2.8C363.8,278.3,364.4,278,364.8,277.3z"/>
		<path class="st0" d="M370,269.4c0,0.3-0.1,0.5-0.3,0.7c-0.2,0.2-0.4,0.3-0.7,0.3c-0.2,0-0.5-0.1-0.6-0.3c-0.2-0.2-0.3-0.4-0.3-0.6
			c0-0.3,0.1-0.5,0.3-0.7c0.2-0.2,0.4-0.3,0.7-0.3c0.3,0,0.5,0.1,0.7,0.3C369.9,269,370,269.2,370,269.4z M369.7,279.2h-1.2v-7.4
			l1.2-0.2V279.2z"/>
		<path class="st0" d="M375.9,271.6l-0.5,1.2c-0.1,0-0.2,0-0.3,0c-0.3,0-0.6,0.1-0.9,0.3c-0.3,0.2-0.5,0.4-0.7,0.6
			c-0.1,0.2-0.1,0.4-0.1,0.8v4.7h-1.2v-5.7c0-0.7-0.1-1.2-0.3-1.6l1.2-0.3c0.2,0.4,0.3,0.7,0.3,1.1v0.1c0.6-0.8,1.3-1.2,2.1-1.2
			C375.6,271.5,375.8,271.6,375.9,271.6z"/>
		<path class="st0" d="M382.5,275.7h-4.7v0.2c0,0.7,0.1,1.3,0.3,1.6c0.4,0.6,1,0.9,1.9,0.9c0.7,0,1.3-0.2,1.8-0.7l0.4,0.8
			c-0.7,0.6-1.5,0.9-2.5,0.9c-1.1,0-2-0.4-2.5-1.2c-0.5-0.7-0.8-1.6-0.8-2.8c0-1.1,0.3-1.9,0.8-2.7c0.6-0.8,1.4-1.2,2.4-1.2
			c0.8,0,1.5,0.3,2,0.8c0.4,0.4,0.6,0.9,0.7,1.5c0.1,0.4,0.1,0.9,0.1,1.7V275.7z M381.3,274.8c0-0.7-0.1-1.2-0.3-1.6
			c-0.3-0.5-0.7-0.7-1.4-0.7c-1.1,0-1.7,0.8-1.7,2.3H381.3z"/>
		<path class="st0" d="M389.5,278.4c-0.7,0.7-1.4,1-2.3,1c-1.1,0-1.9-0.4-2.4-1.1c-0.5-0.7-0.7-1.5-0.7-2.6c0-1.4,0.4-2.4,1.1-3.2
			c0.6-0.6,1.3-0.9,2-0.9c0.7,0,1.4,0.3,2,0.8l-0.6,0.8c-0.5-0.4-1-0.6-1.4-0.6c-1.2,0-1.8,1.1-1.8,3.3c0,1.7,0.6,2.6,1.9,2.6
			c0.6,0,1.2-0.3,1.6-0.8L389.5,278.4z"/>
		<path class="st0" d="M394.2,271.7l-0.4,0.9h-1.6v4.8c0,0.4,0.1,0.7,0.2,0.8c0.1,0.2,0.4,0.3,0.8,0.3c0.3,0,0.6,0,0.8-0.1l0.2,0.8
			c-0.4,0.2-0.8,0.3-1.3,0.3c-1.1,0-1.7-0.6-1.7-1.7v-5.1h-1v-0.9h1v-0.1c0-0.1,0-0.6,0.1-1.6l0-0.2l1.2-0.3
			c-0.1,0.8-0.2,1.5-0.2,2.1H394.2z"/>
		<path class="st0" d="M397.3,269.4c0,0.3-0.1,0.5-0.3,0.7c-0.2,0.2-0.4,0.3-0.7,0.3c-0.2,0-0.5-0.1-0.6-0.3
			c-0.2-0.2-0.3-0.4-0.3-0.6c0-0.3,0.1-0.5,0.3-0.7c0.2-0.2,0.4-0.3,0.7-0.3c0.3,0,0.5,0.1,0.7,0.3
			C397.2,269,397.3,269.2,397.3,269.4z M397,279.2h-1.2v-7.4l1.2-0.2V279.2z"/>
		<path class="st0" d="M405.6,275.7c0,1.4-0.4,2.4-1.2,3.1c-0.5,0.5-1.2,0.7-2,0.7c-1.1,0-1.9-0.4-2.5-1.2c-0.5-0.7-0.8-1.6-0.8-2.8
			c0-1.1,0.2-2,0.7-2.7c0.6-0.8,1.4-1.2,2.4-1.2c1.1,0,2,0.4,2.5,1.3C405.4,273.5,405.6,274.5,405.6,275.7z M404.3,275.7
			c0-0.9-0.1-1.6-0.3-2.1c-0.3-0.7-0.8-1.1-1.6-1.1c-0.8,0-1.3,0.3-1.6,0.9c-0.2,0.4-0.3,1-0.3,1.9c0,1,0.1,1.7,0.3,2.1
			c0.3,0.7,0.9,1.1,1.7,1.1C403.7,278.5,404.3,277.6,404.3,275.7z"/>
		<path class="st0" d="M413.3,279.2h-1.2v-5.1c0-0.5-0.1-0.9-0.2-1.1c-0.2-0.3-0.5-0.5-0.9-0.5c-0.3,0-0.7,0.1-1.1,0.3
			c-0.4,0.2-0.7,0.4-0.9,0.7v5.6h-1.1v-5.6c0-0.8-0.1-1.3-0.3-1.8l1.1-0.3c0.2,0.4,0.3,0.8,0.3,1.2c0.8-0.8,1.6-1.2,2.4-1.2
			c0.4,0,0.8,0.1,1.1,0.3c0.3,0.2,0.6,0.5,0.7,0.8c0.1,0.3,0.2,0.6,0.2,0.9V279.2z"/>
		<path class="st0" d="M427.5,276.1c0,0.6,0,1.1-0.1,1.4c-0.2,0.7-0.6,1.2-1.3,1.5c-0.6,0.3-1.3,0.4-2.1,0.4c-1.5,0-2.6-0.5-3-1.5
			c-0.2-0.4-0.3-1-0.3-1.8v-7.2h1.2v6.6c0,0.7,0,1.3,0.1,1.6c0.2,0.8,0.9,1.3,2.1,1.3c0.9,0,1.4-0.2,1.8-0.6c0.3-0.3,0.4-1,0.4-1.8
			v-7h1.2V276.1z"/>
		<path class="st0" d="M436.6,279.2H435c-0.5-1.1-1.4-2.5-2.6-4c-0.3-0.4-0.7-0.6-1.1-0.7v4.6H430v-10.3h2.4c1.2,0,2.1,0.2,2.6,0.7
			c0.7,0.6,1,1.3,1,2.2c0,0.8-0.2,1.5-0.7,2c-0.5,0.5-1.2,0.8-2,0.8h-0.1c0.3,0.3,0.7,0.6,1,1.2c0.1,0.2,0.4,0.6,0.8,1.2
			C435.3,277.3,435.8,278.1,436.6,279.2z M434.8,271.7c0-0.3-0.1-0.6-0.3-0.9s-0.4-0.5-0.7-0.6c-0.4-0.1-0.8-0.2-1.3-0.2h-1.2v3.8
			h1.1c0.8,0,1.4-0.1,1.8-0.4C434.6,273,434.8,272.5,434.8,271.7z"/>
		<path class="st0" d="M439.8,279.2h-1.2v-10.3h1.2V279.2z"/>
	</g>
	<polyline class="st2" points="153,288 585,289.3 585,246.9 	"/>
	<polygon class="st0" points="585,237.3 581.4,246.9 588.6,246.9 	"/>
	<polygon class="st3" points="585,237.3 581.4,246.9 588.6,246.9 	"/>
</g>
<g id="_x30_3">
	<line class="st2" x1="117" y1="230.3" x2="117" y2="250.4"/>
	<polygon class="st0" points="117,260 120.6,250.4 113.4,250.4 	"/>
	<polygon class="st3" points="117,260 120.6,250.4 113.4,250.4 	"/>
	<g>
		<path class="st1" d="M132.8,241.9c0,0.7-0.2,1.3-0.7,1.8c-0.5,0.6-1.1,1-1.6,1.2c-0.7,0.3-1.7,0.5-2.8,0.5c-0.3,0-0.5,0-0.7,0
			l-0.3-0.8c0.2,0,0.4,0,0.8,0c0.7,0,1.3-0.1,1.7-0.2c0.6-0.1,1.1-0.4,1.5-0.8c0.3-0.3,0.6-0.7,0.7-1c0.1-0.2,0.1-0.5,0.1-0.7
			c0-0.9-0.4-1.4-1.2-1.7c-0.3-0.1-0.9-0.2-1.8-0.2h-0.1v-0.8h0.1c0.8,0,1.3,0,1.5,0c0.1,0,0.3-0.1,0.5-0.1c0.6-0.2,0.8-0.7,0.8-1.4
			c0-0.5-0.2-0.9-0.5-1.2s-0.8-0.4-1.3-0.4c-0.5,0-1,0.1-1.5,0.3c-0.3,0.2-0.5,0.3-0.8,0.5l-0.1,0.1l-0.5-0.6
			c0.9-0.8,1.9-1.2,3.1-1.2c0.8,0,1.5,0.2,2,0.6c0.6,0.5,0.9,1.1,0.9,1.8c0,0.6-0.2,1-0.5,1.4c-0.3,0.4-0.8,0.7-1.3,0.8l0.1,0
			c0.4,0.1,0.7,0.3,1,0.5C132.5,240.7,132.8,241.2,132.8,241.9z"/>
		<path class="st1" d="M136.8,241.9c0,0.3-0.1,0.5-0.3,0.7s-0.4,0.3-0.7,0.3c-0.3,0-0.5-0.1-0.7-0.3c-0.2-0.2-0.3-0.4-0.3-0.7
			c0-0.3,0.1-0.5,0.3-0.7c0.2-0.2,0.4-0.3,0.7-0.3c0.3,0,0.5,0.1,0.7,0.3C136.7,241.3,136.8,241.6,136.8,241.9z"/>
	</g>
	<g>
		<path class="st1" d="M187,195.7c0,0.7-0.2,1.3-0.7,1.8c-0.5,0.6-1.1,1-1.6,1.2c-0.7,0.3-1.7,0.5-2.8,0.5c-0.3,0-0.5,0-0.7,0
			l-0.3-0.8c0.2,0,0.4,0,0.8,0c0.7,0,1.3-0.1,1.7-0.2c0.6-0.1,1.1-0.4,1.5-0.8c0.3-0.3,0.6-0.7,0.7-1c0.1-0.2,0.1-0.5,0.1-0.7
			c0-0.9-0.4-1.4-1.2-1.7c-0.3-0.1-0.9-0.2-1.8-0.2h-0.1V193h0.1c0.8,0,1.3,0,1.5,0c0.1,0,0.3-0.1,0.5-0.1c0.6-0.2,0.8-0.7,0.8-1.4
			c0-0.5-0.2-0.9-0.5-1.2s-0.8-0.4-1.3-0.4c-0.5,0-1,0.1-1.5,0.3c-0.3,0.2-0.5,0.3-0.8,0.5l-0.1,0.1l-0.5-0.6
			c0.9-0.8,1.9-1.2,3.1-1.2c0.8,0,1.5,0.2,2,0.6c0.6,0.5,0.9,1.1,0.9,1.8c0,0.6-0.2,1-0.5,1.4c-0.3,0.4-0.8,0.7-1.3,0.8l0.1,0
			c0.4,0.1,0.7,0.3,1,0.5C186.7,194.4,187,195,187,195.7z"/>
		<path class="st1" d="M191,195.7c0,0.3-0.1,0.5-0.3,0.7s-0.4,0.3-0.7,0.3c-0.3,0-0.5-0.1-0.7-0.3c-0.2-0.2-0.3-0.4-0.3-0.7
			c0-0.3,0.1-0.5,0.3-0.7c0.2-0.2,0.4-0.3,0.7-0.3c0.3,0,0.5,0.1,0.7,0.3C190.9,195.1,191,195.4,191,195.7z"/>
	</g>
	<line class="st2" x1="531" y1="207" x2="165.9" y2="207"/>
	<polygon class="st0" points="156.3,207 165.9,210.6 165.9,203.4 	"/>
	<polygon class="st3" points="156.3,207 165.9,210.6 165.9,203.4 	"/>
	<g>
		<path class="st0" d="M208.8,197.7h-1.4l-1-3.2h-3.8l-1,3.2h-1.2l3.4-10.3h1.6L208.8,197.7z M206.1,193.5l-1.6-5L204,190
			c-0.1,0.4-0.5,1.6-1.1,3.5H206.1z"/>
		<path class="st0" d="M216.2,197.2l-0.8,0.8c-0.5-0.4-0.7-0.8-0.8-1.2c-0.6,0.8-1.4,1.1-2.4,1.1c-1.4,0-2.2-0.7-2.2-2.2v-5.5
			l1.2-0.2v5.4c0,1,0.5,1.5,1.4,1.5c0.4,0,0.8-0.1,1.1-0.4c0.3-0.2,0.6-0.6,0.8-0.9v-5.3l1.2-0.2v5.3c0,0.7,0.1,1.2,0.2,1.4
			C215.9,196.9,216,197.1,216.2,197.2z"/>
		<path class="st0" d="M221.3,190.2l-0.4,0.9h-1.6v4.8c0,0.4,0.1,0.7,0.2,0.8c0.1,0.2,0.4,0.3,0.8,0.3c0.3,0,0.6,0,0.8-0.1l0.2,0.8
			c-0.4,0.2-0.8,0.3-1.3,0.3c-1.1,0-1.7-0.6-1.7-1.7v-5.1h-1v-0.9h1v-0.1c0-0.1,0-0.6,0.1-1.6l0-0.2l1.2-0.3
			c-0.1,0.8-0.1,1.5-0.1,2.1H221.3z"/>
		<path class="st0" d="M228.5,197.7h-1.2v-5.1c0-0.5-0.1-0.8-0.2-1c-0.2-0.3-0.5-0.4-0.9-0.4c-0.8,0-1.5,0.4-2.2,1.3v5.3h-1.2v-9.2
			c0-0.5-0.1-1-0.2-1.5l1.2-0.2c0.1,0.5,0.2,1.1,0.2,1.7v1.7c0,0.3,0,0.6,0,1c0.2-0.2,0.5-0.4,0.8-0.6c0.6-0.4,1.2-0.6,1.7-0.6
			c0.5,0,0.9,0.1,1.3,0.4c0.4,0.3,0.6,0.7,0.7,1.1c0,0.2,0,0.4,0,0.7V197.7z"/>
		<path class="st0" d="M237,194.1c0,1.4-0.4,2.4-1.2,3.1c-0.6,0.5-1.2,0.7-2,0.7c-1.1,0-1.9-0.4-2.5-1.2c-0.5-0.7-0.8-1.6-0.8-2.8
			c0-1.1,0.2-2,0.7-2.7c0.6-0.8,1.4-1.2,2.4-1.2c1.1,0,2,0.4,2.5,1.3C236.8,192,237,193,237,194.1z M235.7,194.2
			c0-0.9-0.1-1.6-0.3-2.1c-0.3-0.7-0.9-1.1-1.6-1.1c-0.8,0-1.3,0.3-1.6,0.9c-0.2,0.4-0.3,1-0.3,1.9c0,1,0.1,1.7,0.3,2.1
			c0.3,0.7,0.9,1.1,1.7,1.1C235.1,197,235.7,196.1,235.7,194.2z"/>
		<path class="st0" d="M242.9,190.1l-0.5,1.2c-0.1,0-0.2,0-0.3,0c-0.3,0-0.6,0.1-0.9,0.3c-0.3,0.2-0.5,0.4-0.7,0.6
			c-0.1,0.2-0.1,0.4-0.1,0.8v4.7h-1.2V192c0-0.7-0.1-1.2-0.3-1.6l1.2-0.3c0.2,0.4,0.3,0.7,0.3,1.1v0.1c0.6-0.8,1.3-1.2,2.1-1.2
			C242.6,190,242.8,190.1,242.9,190.1z"/>
		<path class="st0" d="M245.5,187.9c0,0.3-0.1,0.5-0.3,0.7c-0.2,0.2-0.4,0.3-0.7,0.3c-0.2,0-0.5-0.1-0.6-0.3
			c-0.2-0.2-0.3-0.4-0.3-0.6c0-0.3,0.1-0.5,0.3-0.7c0.2-0.2,0.4-0.3,0.7-0.3s0.5,0.1,0.7,0.3C245.5,187.4,245.5,187.7,245.5,187.9z
			 M245.2,197.7H244v-7.4l1.2-0.2V197.7z"/>
		<path class="st0" d="M252.5,196.8l-0.6,0.9h-5v-0.9l4.1-5.6h-3.8v-0.9h5v1l-3.9,5.6H252.5z"/>
		<path class="st0" d="M259.8,197.1l-0.6,0.8c-0.5-0.2-0.9-0.5-1-1.1c-0.7,0.7-1.4,1-2.2,1c-0.7,0-1.3-0.2-1.7-0.5
			c-0.5-0.4-0.7-0.9-0.7-1.6c0-1,0.4-1.7,1.3-2.1c0.7-0.4,1.6-0.5,2.6-0.5c0.2,0,0.4,0,0.5,0v-0.5c0-0.6-0.1-1-0.2-1.2
			c-0.2-0.3-0.6-0.4-1-0.4c-0.9,0-1.6,0.3-2.4,0.9l-0.6-0.8c1-0.7,2.1-1,3.1-1c1.1,0,1.8,0.4,2.1,1.2c0.1,0.3,0.2,0.7,0.2,1.3v0.4
			l-0.1,2.5c0,0.1,0,0.2,0,0.3c0,0.4,0,0.7,0.1,0.9C259.3,196.8,259.5,197,259.8,197.1z M258.1,193.9c-0.3,0-0.5,0-0.6,0
			c-1.7,0-2.6,0.6-2.6,1.8c0,0.9,0.4,1.4,1.3,1.4c0.8,0,1.4-0.4,1.8-1.2L258.1,193.9z"/>
		<path class="st0" d="M264.9,190.2l-0.4,0.9h-1.6v4.8c0,0.4,0.1,0.7,0.2,0.8c0.1,0.2,0.4,0.3,0.8,0.3c0.3,0,0.6,0,0.8-0.1l0.2,0.8
			c-0.4,0.2-0.8,0.3-1.3,0.3c-1.1,0-1.7-0.6-1.7-1.7v-5.1h-1v-0.9h1v-0.1c0-0.1,0-0.6,0.1-1.6l0-0.2l1.2-0.3
			c-0.1,0.8-0.1,1.5-0.1,2.1H264.9z"/>
		<path class="st0" d="M268,187.9c0,0.3-0.1,0.5-0.3,0.7c-0.2,0.2-0.4,0.3-0.7,0.3c-0.2,0-0.5-0.1-0.6-0.3c-0.2-0.2-0.3-0.4-0.3-0.6
			c0-0.3,0.1-0.5,0.3-0.7c0.2-0.2,0.4-0.3,0.7-0.3s0.5,0.1,0.7,0.3C268,187.4,268,187.7,268,187.9z M267.7,197.7h-1.2v-7.4l1.2-0.2
			V197.7z"/>
		<path class="st0" d="M276.3,194.1c0,1.4-0.4,2.4-1.2,3.1c-0.6,0.5-1.2,0.7-2,0.7c-1.1,0-1.9-0.4-2.5-1.2c-0.5-0.7-0.8-1.6-0.8-2.8
			c0-1.1,0.2-2,0.7-2.7c0.6-0.8,1.4-1.2,2.4-1.2c1.1,0,2,0.4,2.5,1.3C276.1,192,276.3,193,276.3,194.1z M275,194.2
			c0-0.9-0.1-1.6-0.3-2.1c-0.3-0.7-0.9-1.1-1.6-1.1c-0.8,0-1.3,0.3-1.6,0.9c-0.2,0.4-0.3,1-0.3,1.9c0,1,0.1,1.7,0.3,2.1
			c0.3,0.7,0.9,1.1,1.7,1.1C274.4,197,275,196.1,275,194.2z"/>
		<path class="st0" d="M284,197.7h-1.2v-5.1c0-0.5-0.1-0.9-0.2-1.1c-0.2-0.3-0.5-0.5-0.9-0.5c-0.3,0-0.7,0.1-1.1,0.3
			c-0.4,0.2-0.7,0.4-0.9,0.7v5.6h-1.1v-5.6c0-0.8-0.1-1.3-0.3-1.8l1.1-0.3c0.2,0.4,0.3,0.8,0.3,1.2c0.8-0.8,1.6-1.2,2.4-1.2
			c0.4,0,0.8,0.1,1.1,0.3c0.3,0.2,0.6,0.5,0.7,0.8c0.1,0.3,0.2,0.6,0.2,0.9V197.7z"/>
		<path class="st0" d="M298.1,197c-0.9,0.6-1.8,0.8-2.9,0.8c-1.4,0-2.4-0.6-3.2-1.7c-0.7-1-1-2.2-1-3.6c0-1.4,0.4-2.6,1.1-3.6
			c0.8-1.1,1.9-1.7,3.2-1.7c1,0,1.9,0.3,2.6,0.8l-0.7,0.8c-0.6-0.4-1.2-0.6-1.9-0.6c-1.2,0-2,0.6-2.5,1.8c-0.3,0.7-0.4,1.6-0.4,2.7
			c0,0.9,0.1,1.6,0.3,2.2c0.5,1.3,1.4,1.9,2.8,1.9c0.7,0,1.4-0.2,2-0.7L298.1,197z"/>
		<path class="st0" d="M305.6,194.1c0,1.4-0.4,2.4-1.2,3.1c-0.6,0.5-1.2,0.7-2,0.7c-1.1,0-1.9-0.4-2.5-1.2c-0.5-0.7-0.8-1.6-0.8-2.8
			c0-1.1,0.2-2,0.7-2.7c0.6-0.8,1.4-1.2,2.4-1.2c1.1,0,2,0.4,2.5,1.3C305.4,192,305.6,193,305.6,194.1z M304.3,194.2
			c0-0.9-0.1-1.6-0.3-2.1c-0.3-0.7-0.9-1.1-1.6-1.1c-0.8,0-1.3,0.3-1.6,0.9c-0.2,0.4-0.3,1-0.3,1.9c0,1,0.1,1.7,0.3,2.1
			c0.3,0.7,0.9,1.1,1.7,1.1C303.7,197,304.3,196.1,304.3,194.2z"/>
		<path class="st0" d="M313.8,197.7h-1.2c-0.1-0.2-0.1-0.5-0.2-0.8c-0.2,0.2-0.4,0.4-0.5,0.5c-0.4,0.3-0.9,0.4-1.5,0.4
			c-1,0-1.8-0.4-2.4-1.1c-0.5-0.7-0.7-1.5-0.7-2.6c0-1.6,0.5-2.7,1.5-3.5c0.5-0.3,0.9-0.5,1.4-0.5c0.9,0,1.5,0.3,2,1
			c0-0.4,0-0.8,0-1.2v-3.1l1.2,0.2v8.3c0,0.9,0,1.5,0.1,1.8C313.7,197.3,313.8,197.5,313.8,197.7z M312.4,195.8v-3.9
			c-0.4-0.5-1-0.8-1.8-0.8c-1.3,0-1.9,1-1.9,2.9c0,1.9,0.6,2.8,1.8,2.8C311.4,196.8,312.1,196.5,312.4,195.8z"/>
		<path class="st0" d="M321.6,194.1h-4.7v0.2c0,0.7,0.1,1.3,0.3,1.6c0.4,0.6,1,0.9,1.9,0.9c0.7,0,1.3-0.2,1.8-0.7l0.4,0.8
			c-0.7,0.6-1.5,0.9-2.5,0.9c-1.1,0-2-0.4-2.5-1.2c-0.5-0.7-0.8-1.6-0.8-2.8c0-1.1,0.3-1.9,0.8-2.7c0.6-0.8,1.4-1.2,2.4-1.2
			c0.8,0,1.5,0.3,2,0.8c0.4,0.4,0.6,0.9,0.7,1.5c0.1,0.4,0.1,0.9,0.1,1.7V194.1z M320.4,193.3c0-0.7-0.1-1.2-0.3-1.6
			c-0.3-0.5-0.7-0.7-1.4-0.7c-1.1,0-1.7,0.8-1.7,2.3H320.4z"/>
	</g>
</g>
<g id="_x30_2">
	<line class="st2" x1="153" y1="171" x2="527.1" y2="171"/>
	<polygon class="st0" points="536.7,171 527.1,167.4 527.1,174.6 	"/>
	<polygon class="st3" points="536.7,171 527.1,167.4 527.1,174.6 	"/>
	<g>
		<path class="st0" d="M209.3,161.7h-1.4l-1-3.2h-3.8l-1,3.2h-1.2l3.4-10.3h1.6L209.3,161.7z M206.6,157.5l-1.6-5l-0.5,1.5
			c-0.1,0.4-0.5,1.6-1.1,3.5H206.6z"/>
		<path class="st0" d="M216.7,161.2L216,162c-0.5-0.4-0.7-0.8-0.8-1.2c-0.6,0.8-1.4,1.1-2.4,1.1c-1.4,0-2.2-0.7-2.2-2.2v-5.5
			l1.2-0.2v5.4c0,1,0.5,1.5,1.4,1.5c0.4,0,0.8-0.1,1.1-0.4c0.3-0.2,0.6-0.6,0.8-0.9v-5.3l1.2-0.2v5.3c0,0.7,0.1,1.2,0.2,1.4
			C216.5,160.9,216.6,161.1,216.7,161.2z"/>
		<path class="st0" d="M221.8,154.2l-0.4,0.9h-1.6v4.8c0,0.4,0.1,0.7,0.2,0.8c0.1,0.2,0.4,0.3,0.8,0.3c0.3,0,0.6,0,0.8-0.1l0.2,0.8
			c-0.4,0.2-0.8,0.3-1.3,0.3c-1.1,0-1.7-0.6-1.7-1.7v-5.1h-1v-0.9h1v-0.1c0-0.1,0-0.6,0.1-1.6l0-0.2l1.2-0.3
			c-0.1,0.8-0.1,1.5-0.1,2.1H221.8z"/>
		<path class="st0" d="M229.1,161.7h-1.2v-5.1c0-0.5-0.1-0.8-0.2-1c-0.2-0.3-0.5-0.4-0.9-0.4c-0.8,0-1.5,0.4-2.2,1.3v5.3h-1.2v-9.2
			c0-0.5-0.1-1-0.2-1.5l1.2-0.2c0.1,0.5,0.2,1.1,0.2,1.7v1.7c0,0.3,0,0.6,0,1c0.2-0.2,0.5-0.4,0.8-0.6c0.6-0.4,1.2-0.6,1.7-0.6
			c0.5,0,0.9,0.1,1.3,0.4c0.4,0.3,0.6,0.7,0.7,1.1c0,0.2,0,0.4,0,0.7V161.7z"/>
		<path class="st0" d="M237,158.1h-4.7v0.2c0,0.7,0.1,1.3,0.3,1.6c0.4,0.6,1,0.9,1.9,0.9c0.7,0,1.3-0.2,1.8-0.7l0.4,0.8
			c-0.7,0.6-1.5,0.9-2.5,0.9c-1.1,0-2-0.4-2.5-1.2c-0.5-0.7-0.8-1.6-0.8-2.8c0-1.1,0.3-1.9,0.8-2.7c0.6-0.8,1.4-1.2,2.4-1.2
			c0.8,0,1.5,0.3,2,0.8c0.4,0.4,0.6,0.9,0.7,1.5c0.1,0.4,0.1,0.9,0.1,1.7V158.1z M235.8,157.3c0-0.7-0.1-1.2-0.3-1.6
			c-0.3-0.5-0.7-0.7-1.4-0.7c-1.1,0-1.7,0.8-1.7,2.3H235.8z"/>
		<path class="st0" d="M244.5,161.7h-1.2v-5.1c0-0.5-0.1-0.9-0.2-1.1c-0.2-0.3-0.5-0.5-0.9-0.5c-0.3,0-0.7,0.1-1.1,0.3
			c-0.4,0.2-0.7,0.4-0.9,0.7v5.6h-1.1v-5.6c0-0.8-0.1-1.3-0.3-1.8l1.1-0.3c0.2,0.4,0.3,0.8,0.3,1.2c0.8-0.8,1.6-1.2,2.4-1.2
			c0.4,0,0.8,0.1,1.1,0.3c0.3,0.2,0.6,0.5,0.7,0.8c0.1,0.3,0.2,0.6,0.2,0.9V161.7z"/>
		<path class="st0" d="M250.2,154.2l-0.4,0.9h-1.6v4.8c0,0.4,0.1,0.7,0.2,0.8c0.1,0.2,0.4,0.3,0.8,0.3c0.3,0,0.6,0,0.8-0.1l0.2,0.8
			c-0.4,0.2-0.8,0.3-1.3,0.3c-1.1,0-1.7-0.6-1.7-1.7v-5.1h-1v-0.9h1v-0.1c0-0.1,0-0.6,0.1-1.6l0-0.2l1.2-0.3
			c-0.1,0.8-0.1,1.5-0.1,2.1H250.2z"/>
		<path class="st0" d="M253.4,151.9c0,0.3-0.1,0.5-0.3,0.7c-0.2,0.2-0.4,0.3-0.7,0.3c-0.2,0-0.5-0.1-0.6-0.3
			c-0.2-0.2-0.3-0.4-0.3-0.6c0-0.3,0.1-0.5,0.3-0.7c0.2-0.2,0.4-0.3,0.7-0.3s0.5,0.1,0.7,0.3C253.3,151.4,253.4,151.7,253.4,151.9z
			 M253.1,161.7h-1.2v-7.4l1.2-0.2V161.7z"/>
		<path class="st0" d="M259.6,151.3l-0.4,0.8c-0.4-0.2-0.8-0.3-1.1-0.3c-0.7,0-1,0.4-1,1.3v1.2h2.1l-0.4,0.9h-1.7v6.5h-1.2v-6.5
			h-0.7v-0.9h0.7v-1.2c0-0.8,0.3-1.4,0.8-1.8c0.3-0.3,0.8-0.4,1.3-0.4C258.7,150.8,259.2,151,259.6,151.3z"/>
		<path class="st0" d="M261.4,151.9c0,0.3-0.1,0.5-0.3,0.7c-0.2,0.2-0.4,0.3-0.7,0.3c-0.2,0-0.5-0.1-0.6-0.3
			c-0.2-0.2-0.3-0.4-0.3-0.6c0-0.3,0.1-0.5,0.3-0.7c0.2-0.2,0.4-0.3,0.7-0.3s0.5,0.1,0.7,0.3C261.3,151.4,261.4,151.7,261.4,151.9z
			 M261.1,161.7h-1.2v-7.4l1.2-0.2V161.7z"/>
		<path class="st0" d="M268.4,160.8l-0.6,0.9h-5v-0.9l4.1-5.6h-3.8v-0.9h5v1l-3.9,5.6H268.4z"/>
		<path class="st0" d="M271.6,151.9c0,0.3-0.1,0.5-0.3,0.7c-0.2,0.2-0.4,0.3-0.7,0.3c-0.2,0-0.5-0.1-0.6-0.3
			c-0.2-0.2-0.3-0.4-0.3-0.6c0-0.3,0.1-0.5,0.3-0.7c0.2-0.2,0.4-0.3,0.7-0.3s0.5,0.1,0.7,0.3C271.5,151.4,271.6,151.7,271.6,151.9z
			 M271.3,161.7h-1.2v-7.4l1.2-0.2V161.7z"/>
		<path class="st0" d="M279.3,158.1h-4.7v0.2c0,0.7,0.1,1.3,0.3,1.6c0.4,0.6,1,0.9,1.9,0.9c0.7,0,1.3-0.2,1.8-0.7l0.4,0.8
			c-0.7,0.6-1.5,0.9-2.5,0.9c-1.1,0-2-0.4-2.5-1.2c-0.5-0.7-0.8-1.6-0.8-2.8c0-1.1,0.3-1.9,0.8-2.7c0.6-0.8,1.4-1.2,2.4-1.2
			c0.8,0,1.5,0.3,2,0.8c0.4,0.4,0.6,0.9,0.7,1.5c0.1,0.4,0.1,0.9,0.1,1.7V158.1z M278.1,157.3c0-0.7-0.1-1.2-0.3-1.6
			c-0.3-0.5-0.7-0.7-1.4-0.7c-1.1,0-1.7,0.8-1.7,2.3H278.1z"/>
		<path class="st0" d="M285,154.1l-0.5,1.2c-0.1,0-0.2,0-0.3,0c-0.3,0-0.6,0.1-0.9,0.3c-0.3,0.2-0.5,0.4-0.7,0.6
			c-0.1,0.2-0.1,0.4-0.1,0.8v4.7h-1.2V156c0-0.7-0.1-1.2-0.3-1.6l1.2-0.3c0.2,0.4,0.3,0.7,0.3,1.1v0.1c0.6-0.8,1.3-1.2,2.1-1.2
			C284.7,154,284.9,154.1,285,154.1z"/>
		<path class="st0" d="M292.2,161.2l-0.8,0.8c-0.5-0.4-0.7-0.8-0.8-1.2c-0.6,0.8-1.4,1.1-2.4,1.1c-1.4,0-2.2-0.7-2.2-2.2v-5.5
			l1.2-0.2v5.4c0,1,0.5,1.5,1.4,1.5c0.4,0,0.8-0.1,1.1-0.4c0.3-0.2,0.6-0.6,0.8-0.9v-5.3l1.2-0.2v5.3c0,0.7,0.1,1.2,0.2,1.4
			C292,160.9,292.1,161.1,292.2,161.2z"/>
		<path class="st0" d="M299.7,161.7h-1.2v-5.1c0-0.5-0.1-0.9-0.2-1.1c-0.2-0.3-0.5-0.5-0.9-0.5c-0.3,0-0.7,0.1-1.1,0.3
			c-0.4,0.2-0.7,0.4-0.9,0.7v5.6h-1.1v-5.6c0-0.8-0.1-1.3-0.3-1.8l1.1-0.3c0.2,0.4,0.3,0.8,0.3,1.2c0.8-0.8,1.6-1.2,2.4-1.2
			c0.4,0,0.8,0.1,1.1,0.3c0.3,0.2,0.6,0.5,0.7,0.8c0.1,0.3,0.2,0.6,0.2,0.9V161.7z"/>
		<path class="st0" d="M308.7,154.9c-0.4,0.3-0.8,0.4-1.3,0.4c-0.2,0-0.4,0-0.5-0.1c0.3,0.4,0.4,0.8,0.4,1.3c0,0.7-0.2,1.3-0.7,1.7
			s-1,0.7-1.7,0.7h-0.2l-0.2,0.1c-0.8,0.3-1.2,0.6-1.2,0.8c0,0.2,0.2,0.4,0.6,0.4h1.2c0.8,0,1.4,0.1,1.8,0.4
			c0.6,0.4,0.8,0.9,0.8,1.6c0,1.6-1,2.4-3,2.4c-2.2,0-3.2-0.6-3.2-1.9c0-0.2,0.1-0.5,0.2-0.8l1.2-0.1l-0.1,0.1
			c-0.1,0.2-0.1,0.4-0.1,0.6c0,0.8,0.6,1.2,1.9,1.2c1.2,0,1.8-0.4,1.8-1.3c0-0.5-0.2-0.8-0.6-1c-0.3-0.1-0.7-0.2-1.3-0.2
			c-0.1,0-0.3,0-0.6,0c-0.3,0-0.4,0-0.6,0c-0.9,0-1.4-0.4-1.4-1.1c0-0.5,0.4-1,1.3-1.2l0.1,0c-0.5-0.2-0.9-0.4-1.2-0.8
			s-0.5-0.8-0.5-1.3c0-0.8,0.3-1.4,0.8-1.8c0.5-0.4,1.2-0.7,2-0.7c0.4,0,0.7,0.1,1.1,0.2l0.5,0.2c0.2,0.1,0.4,0.1,0.7,0.1
			c0.4,0,0.7-0.1,1-0.3L308.7,154.9z M306,156.6c0-1-0.5-1.5-1.4-1.5c-0.9,0-1.4,0.5-1.4,1.5c0,1,0.5,1.4,1.4,1.4
			C305.6,158,306,157.5,306,156.6z"/>
		<path class="st0" d="M321,161.7h-1.2c-0.1-0.2-0.1-0.5-0.2-0.8c-0.2,0.2-0.4,0.4-0.5,0.5c-0.4,0.3-0.9,0.4-1.5,0.4
			c-1,0-1.8-0.4-2.4-1.1c-0.5-0.7-0.7-1.5-0.7-2.6c0-1.6,0.5-2.7,1.5-3.5c0.5-0.3,0.9-0.5,1.4-0.5c0.9,0,1.5,0.3,2,1
			c0-0.4,0-0.8,0-1.2v-3.1l1.2,0.2v8.3c0,0.9,0,1.5,0.1,1.8C320.9,161.3,321,161.5,321,161.7z M319.6,159.8v-3.9
			c-0.4-0.5-1-0.8-1.8-0.8c-1.3,0-1.9,1-1.9,2.9c0,1.9,0.6,2.8,1.8,2.8C318.6,160.8,319.3,160.5,319.6,159.8z"/>
		<path class="st0" d="M329.4,161.2l-0.8,0.8c-0.5-0.4-0.7-0.8-0.8-1.2c-0.6,0.8-1.4,1.1-2.4,1.1c-1.4,0-2.2-0.7-2.2-2.2v-5.5
			l1.2-0.2v5.4c0,1,0.5,1.5,1.4,1.5c0.4,0,0.8-0.1,1.1-0.4c0.3-0.2,0.6-0.6,0.8-0.9v-5.3l1.2-0.2v5.3c0,0.7,0.1,1.2,0.2,1.4
			C329.1,160.9,329.2,161.1,329.4,161.2z"/>
		<path class="st0" d="M335,154.1l-0.5,1.2c-0.1,0-0.2,0-0.3,0c-0.3,0-0.6,0.1-0.9,0.3c-0.3,0.2-0.5,0.4-0.7,0.6
			c-0.1,0.2-0.1,0.4-0.1,0.8v4.7h-1.2V156c0-0.7-0.1-1.2-0.3-1.6l1.2-0.3c0.2,0.4,0.3,0.7,0.3,1.1v0.1c0.6-0.8,1.3-1.2,2.1-1.2
			C334.8,154,334.9,154.1,335,154.1z"/>
		<path class="st0" d="M341.1,160.9c-0.7,0.7-1.4,1-2.3,1c-1.1,0-1.9-0.4-2.4-1.1c-0.5-0.7-0.7-1.5-0.7-2.6c0-1.4,0.4-2.4,1.1-3.2
			c0.6-0.6,1.3-0.9,2-0.9c0.7,0,1.4,0.3,2,0.8l-0.6,0.8c-0.5-0.4-1-0.6-1.4-0.6c-1.2,0-1.8,1.1-1.8,3.3c0,1.7,0.6,2.6,1.9,2.6
			c0.6,0,1.2-0.3,1.6-0.8L341.1,160.9z"/>
		<path class="st0" d="M348.2,161.7H347v-5.1c0-0.5-0.1-0.8-0.2-1c-0.2-0.3-0.5-0.4-0.9-0.4c-0.8,0-1.5,0.4-2.2,1.3v5.3h-1.2v-9.2
			c0-0.5-0.1-1-0.2-1.5l1.2-0.2c0.1,0.5,0.2,1.1,0.2,1.7v1.7c0,0.3,0,0.6,0,1c0.2-0.2,0.5-0.4,0.8-0.6c0.6-0.4,1.2-0.6,1.7-0.6
			c0.5,0,0.9,0.1,1.3,0.4c0.4,0.3,0.6,0.7,0.7,1.1c0,0.2,0,0.4,0,0.7V161.7z"/>
		<path class="st0" d="M362.5,158.9c0,0.6-0.2,1.1-0.5,1.6c-0.3,0.5-0.7,0.8-1.3,1c-0.5,0.2-1.2,0.2-2.3,0.2h-2.7v-10.3h1.5
			c1.6,0,2.6,0.1,3.1,0.2c0.5,0.2,0.9,0.5,1.3,0.9s0.5,0.9,0.5,1.4c0,1.1-0.6,1.9-1.8,2.2c0.6,0.2,1.1,0.4,1.4,0.6
			C362.2,157.3,362.5,158,362.5,158.9z M360.7,154.2c0-0.9-0.4-1.5-1.3-1.7c-0.2,0-0.6-0.1-1-0.1h-1.5v3.4h1.8c0.5,0,0.9,0,1.1-0.1
			c0.3-0.1,0.6-0.4,0.7-0.8C360.6,154.7,360.7,154.4,360.7,154.2z M361.2,158.8c0-0.4-0.1-0.8-0.3-1.2s-0.5-0.6-0.9-0.7
			c-0.3-0.1-0.7-0.1-1.2-0.1h-1.8v3.9h2.1c0.6,0,1-0.1,1.2-0.2c0.4-0.2,0.6-0.5,0.8-0.9C361.1,159.3,361.2,159.1,361.2,158.8z"/>
		<path class="st0" d="M369.9,158.1h-4.7v0.2c0,0.7,0.1,1.3,0.3,1.6c0.4,0.6,1,0.9,1.9,0.9c0.7,0,1.3-0.2,1.8-0.7l0.4,0.8
			c-0.7,0.6-1.5,0.9-2.5,0.9c-1.1,0-2-0.4-2.5-1.2c-0.5-0.7-0.8-1.6-0.8-2.8c0-1.1,0.3-1.9,0.8-2.7c0.6-0.8,1.4-1.2,2.4-1.2
			c0.8,0,1.5,0.3,2,0.8c0.4,0.4,0.6,0.9,0.7,1.5c0.1,0.4,0.1,0.9,0.1,1.7V158.1z M368.7,157.3c0-0.7-0.1-1.2-0.3-1.6
			c-0.3-0.5-0.7-0.7-1.4-0.7c-1.1,0-1.7,0.8-1.7,2.3H368.7z"/>
		<path class="st0" d="M377.5,161.7h-1.2v-5.1c0-0.5-0.1-0.9-0.2-1.1c-0.2-0.3-0.5-0.5-0.9-0.5c-0.3,0-0.7,0.1-1.1,0.3
			c-0.4,0.2-0.7,0.4-0.9,0.7v5.6H372v-5.6c0-0.8-0.1-1.3-0.3-1.8l1.1-0.3c0.2,0.4,0.3,0.8,0.3,1.2c0.8-0.8,1.6-1.2,2.4-1.2
			c0.4,0,0.8,0.1,1.1,0.3c0.3,0.2,0.6,0.5,0.7,0.8c0.1,0.3,0.2,0.6,0.2,0.9V161.7z"/>
		<path class="st0" d="M386.1,161.2l-0.8,0.8c-0.5-0.4-0.7-0.8-0.8-1.2c-0.6,0.8-1.4,1.1-2.4,1.1c-1.4,0-2.2-0.7-2.2-2.2v-5.5
			l1.2-0.2v5.4c0,1,0.5,1.5,1.4,1.5c0.4,0,0.8-0.1,1.1-0.4c0.3-0.2,0.6-0.6,0.8-0.9v-5.3l1.2-0.2v5.3c0,0.7,0.1,1.2,0.2,1.4
			C385.8,160.9,385.9,161.1,386.1,161.2z"/>
		<path class="st0" d="M391.2,154.2l-0.4,0.9h-1.6v4.8c0,0.4,0.1,0.7,0.2,0.8c0.1,0.2,0.4,0.3,0.8,0.3c0.3,0,0.6,0,0.8-0.1l0.2,0.8
			c-0.4,0.2-0.8,0.3-1.3,0.3c-1.1,0-1.7-0.6-1.7-1.7v-5.1h-1v-0.9h1v-0.1c0-0.1,0-0.6,0.1-1.6l0-0.2l1.2-0.3
			c-0.1,0.8-0.2,1.5-0.2,2.1H391.2z"/>
		<path class="st0" d="M397.6,160.8l-0.6,0.9h-5v-0.9l4.1-5.6h-3.8v-0.9h5v1l-3.9,5.6H397.6z"/>
		<path class="st0" d="M404.8,158.1h-4.7v0.2c0,0.7,0.1,1.3,0.3,1.6c0.4,0.6,1,0.9,1.9,0.9c0.7,0,1.3-0.2,1.8-0.7l0.4,0.8
			c-0.7,0.6-1.5,0.9-2.5,0.9c-1.1,0-2-0.4-2.5-1.2c-0.5-0.7-0.8-1.6-0.8-2.8c0-1.1,0.3-1.9,0.8-2.7c0.6-0.8,1.4-1.2,2.4-1.2
			c0.8,0,1.5,0.3,2,0.8c0.4,0.4,0.6,0.9,0.7,1.5c0.1,0.4,0.1,0.9,0.1,1.7V158.1z M403.5,157.3c0-0.7-0.1-1.2-0.3-1.6
			c-0.3-0.5-0.7-0.7-1.4-0.7c-1.1,0-1.7,0.8-1.7,2.3H403.5z"/>
		<path class="st0" d="M410.5,154.1l-0.5,1.2c-0.1,0-0.2,0-0.3,0c-0.3,0-0.6,0.1-0.9,0.3c-0.3,0.2-0.5,0.4-0.7,0.6
			c-0.1,0.2-0.1,0.4-0.1,0.8v4.7h-1.2V156c0-0.7-0.1-1.2-0.3-1.6l1.2-0.3c0.2,0.4,0.3,0.7,0.3,1.1v0.1c0.6-0.8,1.3-1.2,2.1-1.2
			C410.2,154,410.4,154.1,410.5,154.1z"/>
	</g>
	<g>
		<path class="st1" d="M187.1,159.5l-0.2,1h-5.7v-0.9c0.4-0.3,0.7-0.5,1-0.8l1.2-1c0.5-0.4,0.8-0.7,1.1-0.9c0.3-0.3,0.5-0.5,0.6-0.6
			c0.2-0.4,0.3-0.8,0.3-1.1c0-0.9-0.5-1.3-1.6-1.3c-0.7,0-1.4,0.3-2.3,0.9l-0.1,0.1l-0.5-0.6c1.1-0.9,2.1-1.4,3.1-1.4
			c0.7,0,1.4,0.2,1.8,0.5c0.6,0.4,0.8,0.9,0.8,1.6c0,0.7-0.4,1.4-1.1,2.2c-0.4,0.4-1,0.9-2,1.6l-1.4,1c0.5,0,1-0.1,1.5-0.1H187.1z"
			/>
		<path class="st1" d="M191,159.7c0,0.3-0.1,0.5-0.3,0.7s-0.4,0.3-0.7,0.3c-0.3,0-0.5-0.1-0.7-0.3c-0.2-0.2-0.3-0.4-0.3-0.7
			c0-0.3,0.1-0.5,0.3-0.7c0.2-0.2,0.4-0.3,0.7-0.3c0.3,0,0.5,0.1,0.7,0.3C190.9,159.1,191,159.4,191,159.7z"/>
	</g>
	<g>
		<path class="st1" d="M58.3,104.5l-0.2,1h-5.7v-0.9c0.4-0.3,0.7-0.5,1-0.8l1.2-1c0.5-0.4,0.8-0.7,1.1-0.9c0.3-0.3,0.5-0.5,0.6-0.6
			c0.2-0.4,0.3-0.8,0.3-1.1c0-0.9-0.5-1.3-1.6-1.3c-0.7,0-1.4,0.3-2.3,0.9l-0.1,0.1l-0.5-0.6c1.1-0.9,2.1-1.4,3.1-1.4
			c0.7,0,1.4,0.2,1.8,0.5c0.6,0.4,0.8,0.9,0.8,1.6c0,0.7-0.4,1.4-1.1,2.2c-0.4,0.4-1,0.9-2,1.6l-1.4,1c0.5,0,1-0.1,1.5-0.1H58.3z"/>
		<path class="st1" d="M62.2,104.6c0,0.3-0.1,0.5-0.3,0.7s-0.4,0.3-0.7,0.3c-0.3,0-0.5-0.1-0.7-0.3c-0.2-0.2-0.3-0.4-0.3-0.7
			c0-0.3,0.1-0.5,0.3-0.7c0.2-0.2,0.4-0.3,0.7-0.3c0.3,0,0.5,0.1,0.7,0.3C62.2,104.1,62.2,104.3,62.2,104.6z"/>
	</g>
	<line class="st2" x1="72" y1="110.6" x2="72" y2="90.5"/>
	<polygon class="st0" points="72,80.9 68.4,90.5 75.6,90.5 	"/>
	<polygon class="st3" points="72,80.9 68.4,90.5 75.6,90.5 	"/>
</g>
<g id="_x30_1">
	<line class="st2" x1="36" y1="263.3" x2="36" y2="243.2"/>
	<polygon class="st0" points="36,233.6 32.4,243.2 39.6,243.2 	"/>
	<polygon class="st3" points="36,233.6 32.4,243.2 39.6,243.2 	"/>
	<g>
		<path class="st1" d="M21.8,258.2h-3.9v-0.9h1.4V252c-0.4,0.2-1.1,0.6-2,1l-0.3-0.6l2.6-1.7h0.9v6.7h1.4V258.2z"/>
		<path class="st1" d="M25.3,257.3c0,0.3-0.1,0.5-0.3,0.7s-0.4,0.3-0.7,0.3c-0.3,0-0.5-0.1-0.7-0.3c-0.2-0.2-0.3-0.4-0.3-0.7
			c0-0.3,0.1-0.5,0.3-0.7c0.2-0.2,0.4-0.3,0.7-0.3c0.3,0,0.5,0.1,0.7,0.3C25.2,256.8,25.3,257.1,25.3,257.3z"/>
	</g>
	<g>
		<path class="st1" d="M187.6,124.5h-3.9v-0.9h1.4v-5.2c-0.4,0.2-1.1,0.6-2,1l-0.3-0.6l2.6-1.7h0.9v6.7h1.4V124.5z"/>
		<path class="st1" d="M191,123.7c0,0.3-0.1,0.5-0.3,0.7s-0.4,0.3-0.7,0.3c-0.3,0-0.5-0.1-0.7-0.3c-0.2-0.2-0.3-0.4-0.3-0.7
			c0-0.3,0.1-0.5,0.3-0.7c0.2-0.2,0.4-0.3,0.7-0.3c0.3,0,0.5,0.1,0.7,0.3C190.9,123.1,191,123.4,191,123.7z"/>
	</g>
	<line class="st2" x1="153" y1="135" x2="527.1" y2="135"/>
	<polygon class="st0" points="536.7,135 527.1,131.4 527.1,138.6 	"/>
	<polygon class="st3" points="536.7,135 527.1,131.4 527.1,138.6 	"/>
	<g>
		<path class="st0" d="M206.9,124.4c-0.9,0.6-1.8,0.8-2.9,0.8c-1.4,0-2.4-0.6-3.2-1.7c-0.7-1-1-2.2-1-3.6c0-1.4,0.4-2.6,1.1-3.6
			c0.8-1.1,1.9-1.7,3.2-1.7c1,0,1.9,0.3,2.6,0.8l-0.7,0.8c-0.6-0.4-1.2-0.6-1.9-0.6c-1.2,0-2,0.6-2.5,1.8c-0.3,0.7-0.4,1.6-0.4,2.7
			c0,0.9,0.1,1.6,0.3,2.2c0.5,1.3,1.4,1.9,2.8,1.9c0.7,0,1.4-0.2,2-0.7L206.9,124.4z"/>
		<path class="st0" d="M210.3,125c-0.2,0.1-0.5,0.2-0.8,0.2c-0.8,0-1.2-0.5-1.2-1.4v-7.4c0-1-0.1-1.7-0.2-2.1l1.2-0.2
			c0.1,0.4,0.2,1.1,0.2,2.3v7.1c0,0.3,0,0.4,0,0.5c0.1,0.2,0.2,0.2,0.4,0.2c0,0,0.1,0,0.1,0L210.3,125z"/>
		<path class="st0" d="M213.6,115.3c0,0.3-0.1,0.5-0.3,0.7c-0.2,0.2-0.4,0.3-0.7,0.3c-0.2,0-0.5-0.1-0.6-0.3
			c-0.2-0.2-0.3-0.4-0.3-0.6c0-0.3,0.1-0.5,0.3-0.7c0.2-0.2,0.4-0.3,0.7-0.3s0.5,0.1,0.7,0.3C213.5,114.8,213.6,115,213.6,115.3z
			 M213.3,125H212v-7.4l1.2-0.2V125z"/>
		<path class="st0" d="M221.3,121.5h-4.7v0.2c0,0.7,0.1,1.3,0.3,1.6c0.4,0.6,1,0.9,1.9,0.9c0.7,0,1.3-0.2,1.8-0.7l0.4,0.8
			c-0.7,0.6-1.5,0.9-2.5,0.9c-1.1,0-2-0.4-2.5-1.2c-0.5-0.7-0.8-1.6-0.8-2.8c0-1.1,0.3-1.9,0.8-2.7c0.6-0.8,1.4-1.2,2.4-1.2
			c0.8,0,1.5,0.3,2,0.8c0.4,0.4,0.6,0.9,0.7,1.5c0.1,0.4,0.1,0.9,0.1,1.7V121.5z M220,120.6c0-0.7-0.1-1.2-0.3-1.6
			c-0.3-0.5-0.7-0.7-1.4-0.7c-1.1,0-1.7,0.8-1.7,2.3H220z"/>
		<path class="st0" d="M228.8,125h-1.2V120c0-0.5-0.1-0.9-0.2-1.1c-0.2-0.3-0.5-0.5-0.9-0.5c-0.3,0-0.7,0.1-1.1,0.3
			c-0.4,0.2-0.7,0.4-0.9,0.7v5.6h-1.1v-5.6c0-0.8-0.1-1.3-0.3-1.8l1.1-0.3c0.2,0.4,0.3,0.8,0.3,1.2c0.8-0.8,1.6-1.2,2.4-1.2
			c0.4,0,0.8,0.1,1.1,0.3c0.3,0.2,0.6,0.5,0.7,0.8c0.1,0.3,0.2,0.6,0.2,0.9V125z"/>
		<path class="st0" d="M234.5,117.6l-0.4,0.9h-1.6v4.8c0,0.4,0.1,0.7,0.2,0.8c0.1,0.2,0.4,0.3,0.8,0.3c0.3,0,0.6,0,0.8-0.1l0.2,0.8
			c-0.4,0.2-0.8,0.3-1.3,0.3c-1.1,0-1.7-0.6-1.7-1.7v-5.1h-1v-0.9h1v-0.1c0-0.1,0-0.6,0.1-1.6l0-0.2l1.2-0.3
			c-0.1,0.8-0.1,1.5-0.1,2.1H234.5z"/>
		<path class="st0" d="M242.5,125h-1.2v-10.3h1.2V125z"/>
		<path class="st0" d="M251.2,125H250c-0.1-0.2-0.1-0.5-0.2-0.8c-0.2,0.2-0.4,0.4-0.5,0.5c-0.4,0.3-0.9,0.4-1.5,0.4
			c-1,0-1.8-0.4-2.4-1.1c-0.5-0.7-0.7-1.5-0.7-2.6c0-1.6,0.5-2.7,1.5-3.5c0.5-0.3,0.9-0.5,1.4-0.5c0.9,0,1.5,0.3,2,1
			c0-0.4,0-0.8,0-1.2v-3.1l1.2,0.2v8.3c0,0.9,0,1.5,0.1,1.8C251.1,124.7,251.2,124.9,251.2,125z M249.8,123.1v-3.9
			c-0.4-0.5-1-0.8-1.8-0.8c-1.3,0-1.9,1-1.9,2.9c0,1.9,0.6,2.8,1.8,2.8C248.8,124.1,249.5,123.8,249.8,123.1z"/>
		<path class="st0" d="M259,121.5h-4.7v0.2c0,0.7,0.1,1.3,0.3,1.6c0.4,0.6,1,0.9,1.9,0.9c0.7,0,1.3-0.2,1.8-0.7l0.4,0.8
			c-0.7,0.6-1.5,0.9-2.5,0.9c-1.1,0-2-0.4-2.5-1.2c-0.5-0.7-0.8-1.6-0.8-2.8c0-1.1,0.3-1.9,0.8-2.7c0.6-0.8,1.4-1.2,2.4-1.2
			c0.8,0,1.5,0.3,2,0.8c0.4,0.4,0.6,0.9,0.7,1.5c0.1,0.4,0.1,0.9,0.1,1.7V121.5z M257.7,120.6c0-0.7-0.1-1.2-0.3-1.6
			c-0.3-0.5-0.7-0.7-1.4-0.7c-1.1,0-1.7,0.8-1.7,2.3H257.7z"/>
		<path class="st0" d="M266.5,125h-1.2V120c0-0.5-0.1-0.9-0.2-1.1c-0.2-0.3-0.5-0.5-0.9-0.5c-0.3,0-0.7,0.1-1.1,0.3
			c-0.4,0.2-0.7,0.4-0.9,0.7v5.6H261v-5.6c0-0.8-0.1-1.3-0.3-1.8l1.1-0.3c0.2,0.4,0.3,0.8,0.3,1.2c0.8-0.8,1.6-1.2,2.4-1.2
			c0.4,0,0.8,0.1,1.1,0.3c0.3,0.2,0.6,0.5,0.7,0.8c0.1,0.3,0.2,0.6,0.2,0.9V125z"/>
		<path class="st0" d="M272.2,117.6l-0.4,0.9h-1.6v4.8c0,0.4,0.1,0.7,0.2,0.8c0.1,0.2,0.4,0.3,0.8,0.3c0.3,0,0.6,0,0.8-0.1l0.2,0.8
			c-0.4,0.2-0.8,0.3-1.3,0.3c-1.1,0-1.7-0.6-1.7-1.7v-5.1h-1v-0.9h1v-0.1c0-0.1,0-0.6,0.1-1.6l0-0.2l1.2-0.3
			c-0.1,0.8-0.1,1.5-0.1,2.1H272.2z"/>
		<path class="st0" d="M275.4,115.3c0,0.3-0.1,0.5-0.3,0.7c-0.2,0.2-0.4,0.3-0.7,0.3c-0.2,0-0.5-0.1-0.6-0.3
			c-0.2-0.2-0.3-0.4-0.3-0.6c0-0.3,0.1-0.5,0.3-0.7c0.2-0.2,0.4-0.3,0.7-0.3s0.5,0.1,0.7,0.3C275.3,114.8,275.4,115,275.4,115.3z
			 M275.1,125h-1.2v-7.4l1.2-0.2V125z"/>
		<path class="st0" d="M281.6,114.6l-0.4,0.8c-0.4-0.2-0.8-0.3-1.1-0.3c-0.7,0-1,0.4-1,1.3v1.2h2.1l-0.4,0.9h-1.7v6.5h-1.2v-6.5
			h-0.7v-0.9h0.7v-1.2c0-0.8,0.3-1.4,0.8-1.8c0.3-0.3,0.8-0.4,1.3-0.4C280.6,114.2,281.2,114.3,281.6,114.6z"/>
		<path class="st0" d="M283.4,115.3c0,0.3-0.1,0.5-0.3,0.7c-0.2,0.2-0.4,0.3-0.7,0.3c-0.2,0-0.5-0.1-0.6-0.3
			c-0.2-0.2-0.3-0.4-0.3-0.6c0-0.3,0.1-0.5,0.3-0.7c0.2-0.2,0.4-0.3,0.7-0.3s0.5,0.1,0.7,0.3C283.3,114.8,283.4,115,283.4,115.3z
			 M283.1,125h-1.2v-7.4l1.2-0.2V125z"/>
		<path class="st0" d="M291.1,121.5h-4.7v0.2c0,0.7,0.1,1.3,0.3,1.6c0.4,0.6,1,0.9,1.9,0.9c0.7,0,1.3-0.2,1.8-0.7l0.4,0.8
			c-0.7,0.6-1.5,0.9-2.5,0.9c-1.1,0-2-0.4-2.5-1.2c-0.5-0.7-0.8-1.6-0.8-2.8c0-1.1,0.3-1.9,0.8-2.7c0.6-0.8,1.4-1.2,2.4-1.2
			c0.8,0,1.5,0.3,2,0.8c0.4,0.4,0.6,0.9,0.7,1.5c0.1,0.4,0.1,0.9,0.1,1.7V121.5z M289.9,120.6c0-0.7-0.1-1.2-0.3-1.6
			c-0.3-0.5-0.7-0.7-1.4-0.7c-1.1,0-1.7,0.8-1.7,2.3H289.9z"/>
		<path class="st0" d="M296.8,117.4l-0.5,1.2c-0.1,0-0.2,0-0.3,0c-0.3,0-0.6,0.1-0.9,0.3c-0.3,0.2-0.5,0.4-0.7,0.6
			c-0.1,0.2-0.1,0.4-0.1,0.8v4.7h-1.2v-5.7c0-0.7-0.1-1.2-0.3-1.6l1.2-0.3c0.2,0.4,0.3,0.7,0.3,1.1v0.1c0.6-0.8,1.3-1.2,2.1-1.2
			C296.6,117.4,296.7,117.4,296.8,117.4z"/>
		<path class="st0" d="M311.8,125h-1.6l-1-1c-0.6,0.8-1.6,1.2-2.9,1.2c-1,0-1.8-0.2-2.4-0.6c-0.7-0.5-1.1-1.2-1.1-2.1
			c0-0.6,0.2-1.1,0.5-1.5c0.2-0.3,0.8-0.7,1.6-1.1c-1-0.8-1.5-1.6-1.5-2.3s0.3-1.3,0.8-1.7c0.5-0.4,1.1-0.6,1.8-0.6
			c0.8,0,1.4,0.2,1.9,0.6c0.6,0.4,0.9,1,0.9,1.7c0,0.8-0.4,1.5-1.3,2l-0.9,0.5l2.4,2.3c0.1-0.2,0.2-0.6,0.3-1.2c0-0.2,0-0.6,0-1.1
			l1,0c0,0.7,0,1.2-0.1,1.6c-0.1,0.5-0.2,1-0.5,1.5L311.8,125z M308.6,123.4l-3-2.9c-1,0.5-1.5,1.2-1.5,2.1c0,0.6,0.2,1.1,0.7,1.4
			c0.4,0.3,0.9,0.4,1.5,0.4c0.4,0,0.8-0.1,1.2-0.2C308.1,123.9,308.4,123.7,308.6,123.4z M307.7,117.5c0-0.4-0.1-0.8-0.4-1
			s-0.6-0.4-1-0.4c-0.4,0-0.8,0.1-1.1,0.4c-0.2,0.2-0.3,0.5-0.3,0.9s0.2,0.8,0.7,1.3c0.2,0.2,0.5,0.4,0.7,0.6
			C307.1,118.8,307.7,118.2,307.7,117.5z"/>
		<path class="st0" d="M325,125h-1.5c-0.5-1.1-1.4-2.5-2.6-4c-0.4-0.4-0.7-0.6-1.1-0.7v4.6h-1.2v-10.3h2.4c1.2,0,2.1,0.2,2.6,0.7
			c0.7,0.6,1,1.3,1,2.2c0,0.8-0.2,1.5-0.7,2c-0.5,0.5-1.2,0.8-2,0.8h-0.1c0.3,0.3,0.7,0.6,1,1.2c0.1,0.2,0.4,0.6,0.8,1.2
			C323.8,123.1,324.3,123.9,325,125z M323.2,117.6c0-0.3-0.1-0.6-0.3-0.9s-0.4-0.5-0.7-0.6c-0.4-0.1-0.8-0.2-1.3-0.2h-1.2v3.8h1.1
			c0.8,0,1.4-0.1,1.8-0.4C323,118.9,323.2,118.3,323.2,117.6z"/>
		<path class="st0" d="M332.4,121.5h-4.7v0.2c0,0.7,0.1,1.3,0.3,1.6c0.4,0.6,1,0.9,1.9,0.9c0.7,0,1.3-0.2,1.8-0.7l0.4,0.8
			c-0.7,0.6-1.5,0.9-2.5,0.9c-1.1,0-2-0.4-2.5-1.2c-0.5-0.7-0.8-1.6-0.8-2.8c0-1.1,0.3-1.9,0.8-2.7c0.6-0.8,1.4-1.2,2.4-1.2
			c0.8,0,1.5,0.3,2,0.8c0.4,0.4,0.6,0.9,0.7,1.5c0.1,0.4,0.1,0.9,0.1,1.7V121.5z M331.2,120.6c0-0.7-0.1-1.2-0.3-1.6
			c-0.3-0.5-0.7-0.7-1.4-0.7c-1.1,0-1.7,0.8-1.7,2.3H331.2z"/>
		<path class="st0" d="M340.5,125h-1.2c-0.1-0.2-0.1-0.5-0.2-0.8c-0.2,0.2-0.4,0.4-0.5,0.5c-0.4,0.3-0.9,0.4-1.5,0.4
			c-1,0-1.8-0.4-2.4-1.1c-0.5-0.7-0.7-1.5-0.7-2.6c0-1.6,0.5-2.7,1.5-3.5c0.5-0.3,0.9-0.5,1.4-0.5c0.9,0,1.5,0.3,2,1
			c0-0.4,0-0.8,0-1.2v-3.1l1.2,0.2v8.3c0,0.9,0,1.5,0.1,1.8C340.4,124.7,340.4,124.9,340.5,125z M339.1,123.1v-3.9
			c-0.4-0.5-1-0.8-1.8-0.8c-1.3,0-1.9,1-1.9,2.9c0,1.9,0.6,2.8,1.8,2.8C338.1,124.1,338.7,123.8,339.1,123.1z"/>
		<path class="st0" d="M344.3,115.3c0,0.3-0.1,0.5-0.3,0.7c-0.2,0.2-0.4,0.3-0.7,0.3c-0.2,0-0.5-0.1-0.6-0.3
			c-0.2-0.2-0.3-0.4-0.3-0.6c0-0.3,0.1-0.5,0.3-0.7c0.2-0.2,0.4-0.3,0.7-0.3s0.5,0.1,0.7,0.3C344.2,114.8,344.3,115,344.3,115.3z
			 M344,125h-1.2v-7.4l1.2-0.2V125z"/>
		<path class="st0" d="M350.2,117.4l-0.5,1.2c-0.1,0-0.2,0-0.3,0c-0.3,0-0.6,0.1-0.9,0.3c-0.3,0.2-0.5,0.4-0.7,0.6
			c-0.1,0.2-0.1,0.4-0.1,0.8v4.7h-1.2v-5.7c0-0.7-0.1-1.2-0.3-1.6l1.2-0.3c0.2,0.4,0.3,0.7,0.3,1.1v0.1c0.6-0.8,1.3-1.2,2.1-1.2
			C349.9,117.4,350.1,117.4,350.2,117.4z"/>
		<path class="st0" d="M356.8,121.5h-4.7v0.2c0,0.7,0.1,1.3,0.3,1.6c0.4,0.6,1,0.9,1.9,0.9c0.7,0,1.3-0.2,1.8-0.7l0.4,0.8
			c-0.7,0.6-1.5,0.9-2.5,0.9c-1.1,0-2-0.4-2.5-1.2c-0.5-0.7-0.8-1.6-0.8-2.8c0-1.1,0.3-1.9,0.8-2.7c0.6-0.8,1.4-1.2,2.4-1.2
			c0.8,0,1.5,0.3,2,0.8c0.4,0.4,0.6,0.9,0.7,1.5c0.1,0.4,0.1,0.9,0.1,1.7V121.5z M355.6,120.6c0-0.7-0.1-1.2-0.3-1.6
			c-0.3-0.5-0.7-0.7-1.4-0.7c-1.1,0-1.7,0.8-1.7,2.3H355.6z"/>
		<path class="st0" d="M363.8,124.2c-0.7,0.7-1.4,1-2.3,1c-1.1,0-1.9-0.4-2.4-1.1c-0.5-0.7-0.7-1.5-0.7-2.6c0-1.4,0.4-2.4,1.1-3.2
			c0.6-0.6,1.3-0.9,2-0.9c0.7,0,1.4,0.3,2,0.8l-0.6,0.8c-0.5-0.4-1-0.6-1.4-0.6c-1.2,0-1.8,1.1-1.8,3.3c0,1.7,0.6,2.6,1.9,2.6
			c0.6,0,1.2-0.3,1.6-0.8L363.8,124.2z"/>
		<path class="st0" d="M368.4,117.6l-0.4,0.9h-1.6v4.8c0,0.4,0.1,0.7,0.2,0.8c0.1,0.2,0.4,0.3,0.8,0.3c0.3,0,0.6,0,0.8-0.1l0.2,0.8
			c-0.4,0.2-0.8,0.3-1.3,0.3c-1.1,0-1.7-0.6-1.7-1.7v-5.1h-1v-0.9h1v-0.1c0-0.1,0-0.6,0.1-1.6l0-0.2l1.2-0.3
			c-0.1,0.8-0.1,1.5-0.1,2.1H368.4z"/>
		<path class="st0" d="M371.6,115.3c0,0.3-0.1,0.5-0.3,0.7c-0.2,0.2-0.4,0.3-0.7,0.3c-0.2,0-0.5-0.1-0.6-0.3
			c-0.2-0.2-0.3-0.4-0.3-0.6c0-0.3,0.1-0.5,0.3-0.7c0.2-0.2,0.4-0.3,0.7-0.3c0.3,0,0.5,0.1,0.7,0.3S371.6,115,371.6,115.3z
			 M371.3,125h-1.2v-7.4l1.2-0.2V125z"/>
		<path class="st0" d="M379.9,121.5c0,1.4-0.4,2.4-1.2,3.1c-0.6,0.5-1.2,0.7-2,0.7c-1.1,0-1.9-0.4-2.5-1.2c-0.5-0.7-0.8-1.6-0.8-2.8
			c0-1.1,0.2-2,0.7-2.7c0.6-0.8,1.4-1.2,2.4-1.2c1.1,0,2,0.4,2.5,1.3C379.7,119.4,379.9,120.3,379.9,121.5z M378.6,121.6
			c0-0.9-0.1-1.6-0.3-2.1c-0.3-0.7-0.9-1.1-1.7-1.1c-0.8,0-1.3,0.3-1.6,0.9c-0.2,0.4-0.3,1-0.3,1.9c0,1,0.1,1.7,0.3,2.1
			c0.3,0.7,0.9,1.1,1.7,1.1C377.9,124.3,378.6,123.4,378.6,121.6z"/>
		<path class="st0" d="M387.6,125h-1.2V120c0-0.5-0.1-0.9-0.2-1.1c-0.2-0.3-0.5-0.5-0.9-0.5c-0.3,0-0.7,0.1-1.1,0.3
			c-0.4,0.2-0.7,0.4-0.9,0.7v5.6h-1.1v-5.6c0-0.8-0.1-1.3-0.3-1.8l1.1-0.3c0.2,0.4,0.3,0.8,0.3,1.2c0.8-0.8,1.6-1.2,2.4-1.2
			c0.4,0,0.8,0.1,1.1,0.3c0.3,0.2,0.6,0.5,0.7,0.8c0.1,0.3,0.2,0.6,0.2,0.9V125z"/>
		<path class="st0" d="M401.8,121.9c0,0.6,0,1.1-0.1,1.4c-0.2,0.7-0.6,1.2-1.3,1.5c-0.6,0.3-1.3,0.4-2.1,0.4c-1.5,0-2.6-0.5-3-1.5
			c-0.2-0.4-0.3-1-0.3-1.8v-7.2h1.2v6.6c0,0.7,0,1.3,0.1,1.6c0.2,0.8,0.9,1.3,2.1,1.3c0.9,0,1.4-0.2,1.8-0.6c0.3-0.3,0.4-1,0.4-1.8
			v-7h1.2V121.9z"/>
		<path class="st0" d="M410.9,125h-1.5c-0.5-1.1-1.4-2.5-2.6-4c-0.4-0.4-0.7-0.6-1.1-0.7v4.6h-1.2v-10.3h2.4c1.2,0,2.1,0.2,2.6,0.7
			c0.7,0.6,1,1.3,1,2.2c0,0.8-0.2,1.5-0.7,2c-0.5,0.5-1.2,0.8-2,0.8h-0.2c0.3,0.3,0.7,0.6,1,1.2c0.1,0.2,0.4,0.6,0.8,1.2
			C409.6,123.1,410.1,123.9,410.9,125z M409.1,117.6c0-0.3-0.1-0.6-0.3-0.9s-0.4-0.5-0.7-0.6c-0.4-0.1-0.8-0.2-1.3-0.2h-1.2v3.8h1.1
			c0.8,0,1.4-0.1,1.8-0.4C408.9,118.9,409.1,118.3,409.1,117.6z"/>
		<path class="st0" d="M414.1,125h-1.2v-10.3h1.2V125z"/>
	</g>
</g>
<g id="resource-owner">
	<rect x="8" y="9" class="st4" width="135" height="63"/>
	<rect x="8" y="9" class="st5" width="135" height="63"/>
	<g>
		<path class="st6" d="M43.8,37.5l-1.1-1.9c-0.4-0.8-0.8-1.4-1.1-1.9c-0.3-0.5-0.7-0.9-1-1.2c-0.1-0.1-0.2-0.2-0.3-0.3
			c-0.1-0.1-0.3-0.1-0.5-0.1v5.4h-2V25h3.8c0.7,0,1.3,0.1,1.8,0.3c0.5,0.2,0.9,0.5,1.3,0.8c0.3,0.3,0.6,0.7,0.7,1.1
			c0.2,0.4,0.2,0.9,0.2,1.4c0,0.4-0.1,0.9-0.2,1.3c-0.1,0.4-0.3,0.8-0.6,1.1c-0.3,0.3-0.6,0.6-1,0.8C43.4,31.9,43,32,42.5,32
			c0.1,0.1,0.2,0.2,0.4,0.3c0.2,0.2,0.3,0.4,0.5,0.6c0.2,0.2,0.3,0.5,0.5,0.7c0.2,0.3,0.3,0.5,0.5,0.8l1.8,3H43.8z M43.5,28.6
			c0-0.6-0.2-1.1-0.6-1.4c-0.4-0.3-1-0.5-2-0.5h-1.1v3.9h1.1c0.5,0,1,0,1.3-0.1c0.3-0.1,0.6-0.2,0.8-0.4c0.2-0.2,0.3-0.4,0.4-0.6
			S43.5,29,43.5,28.6z"/>
		<path class="st6" d="M48.4,37.5v-9.7h6.1l-0.3,1.6h-3.8v2.2h3.2v1.6h-3.2v2.6h4.2v1.7H48.4z"/>
		<path class="st6" d="M64.1,34.5c0,0.6-0.1,1.1-0.4,1.5c-0.3,0.4-0.6,0.8-1,1c-0.4,0.3-0.9,0.4-1.4,0.6s-1,0.2-1.5,0.2
			c-0.6,0-1.2-0.1-1.8-0.2s-1.2-0.4-1.8-0.6l0.7-1.5c0.5,0.3,1,0.4,1.5,0.6c0.5,0.1,1,0.2,1.5,0.2c0.2,0,0.4,0,0.6,0
			c0.2,0,0.4-0.1,0.6-0.2c0.2-0.1,0.4-0.2,0.5-0.4c0.1-0.2,0.2-0.4,0.2-0.6c0-0.3-0.1-0.6-0.4-0.8c-0.2-0.2-0.6-0.4-1.2-0.5L59,33.2
			c-0.7-0.2-1.3-0.5-1.7-0.9c-0.5-0.4-0.7-1-0.7-1.8c0-0.4,0.1-0.8,0.3-1.2c0.2-0.4,0.4-0.7,0.8-0.9s0.7-0.5,1.2-0.6s1-0.2,1.5-0.2
			c0.6,0,1.3,0.1,2,0.3c0.7,0.2,1.2,0.4,1.6,0.7l-1,1.4c-0.9-0.5-1.8-0.8-2.6-0.8c-0.5,0-0.9,0.1-1.2,0.3c-0.3,0.2-0.4,0.5-0.4,0.8
			c0,0.3,0.1,0.5,0.3,0.7c0.2,0.2,0.5,0.3,1,0.4l1.3,0.3c0.4,0.1,0.7,0.2,1.1,0.4c0.3,0.1,0.6,0.3,0.9,0.5c0.2,0.2,0.4,0.5,0.6,0.8
			C64,33.7,64.1,34,64.1,34.5z"/>
		<path class="st6" d="M75.4,32.6c0,0.7-0.1,1.4-0.3,2c-0.2,0.6-0.5,1.1-0.8,1.6c-0.4,0.4-0.8,0.8-1.4,1c-0.6,0.2-1.3,0.4-2,0.4
			c-0.8,0-1.4-0.1-2-0.4c-0.6-0.2-1.1-0.6-1.5-1c-0.4-0.4-0.7-1-0.9-1.6c-0.2-0.6-0.3-1.3-0.3-2c0-1.6,0.4-2.8,1.2-3.7
			c0.8-0.9,1.9-1.3,3.4-1.3c0.8,0,1.4,0.1,2,0.4c0.6,0.2,1.1,0.6,1.4,1c0.4,0.4,0.7,1,0.9,1.6C75.3,31.2,75.4,31.9,75.4,32.6z
			 M73.1,32.7c0-0.4,0-0.8-0.1-1.3s-0.2-0.8-0.3-1.1s-0.4-0.6-0.7-0.8s-0.7-0.3-1.3-0.3c-0.5,0-0.9,0.1-1.2,0.3s-0.5,0.5-0.7,0.8
			c-0.2,0.3-0.3,0.7-0.3,1.1s-0.1,0.8-0.1,1.2c0,0.4,0,0.9,0.1,1.3c0,0.4,0.2,0.8,0.3,1.1c0.2,0.3,0.4,0.6,0.7,0.8s0.7,0.3,1.3,0.3
			c0.5,0,0.9-0.1,1.2-0.3c0.3-0.2,0.5-0.5,0.7-0.8s0.3-0.7,0.3-1.1S73.1,33.1,73.1,32.7z"/>
		<path class="st6" d="M85.7,34.1c0,0.4,0,0.7,0,1s-0.1,0.5-0.1,0.7c-0.1,0.2-0.2,0.4-0.3,0.5s-0.2,0.3-0.4,0.4
			c-0.3,0.3-0.7,0.5-1.2,0.7s-1.1,0.3-1.8,0.3c-0.9,0-1.6-0.1-2.2-0.4c-0.6-0.3-1-0.6-1.3-1c-0.2-0.3-0.3-0.6-0.3-0.9
			C78,35.1,78,34.7,78,34.2v-6.4h2.1v6.1c0,0.3,0,0.6,0,0.8c0,0.2,0.1,0.4,0.1,0.5c0.1,0.3,0.3,0.5,0.6,0.6c0.3,0.1,0.6,0.2,1,0.2
			c0.7,0,1.1-0.2,1.4-0.5c0.1-0.1,0.1-0.2,0.2-0.3c0-0.1,0.1-0.2,0.1-0.3c0-0.1,0.1-0.3,0.1-0.4c0-0.2,0-0.4,0-0.6v-6.2h2.1V34.1z"
			/>
		<path class="st6" d="M94.1,37.5l-1-1.6c-0.3-0.4-0.5-0.7-0.6-1c-0.2-0.3-0.3-0.5-0.4-0.6s-0.2-0.3-0.3-0.4
			c-0.1-0.1-0.2-0.2-0.3-0.3c-0.1-0.1-0.2-0.1-0.3-0.2c-0.1,0-0.3-0.1-0.4-0.1v4h-2v-9.7h3.3c0.6,0,1.2,0.1,1.6,0.2
			c0.5,0.1,0.8,0.3,1.1,0.5c0.7,0.6,1,1.3,1,2.2c0,0.4-0.1,0.7-0.2,1.1c-0.1,0.3-0.3,0.6-0.5,0.8c-0.2,0.2-0.5,0.4-0.8,0.6
			c-0.3,0.1-0.6,0.2-1,0.3c0.1,0.1,0.3,0.3,0.4,0.5c0.2,0.2,0.4,0.5,0.6,0.8c0.2,0.3,0.5,0.6,0.7,1l1.3,2H94.1z M93.8,30.6
			c0-0.3-0.1-0.5-0.2-0.7c-0.1-0.2-0.3-0.3-0.5-0.4c-0.2-0.1-0.4-0.1-0.7-0.2c-0.2,0-0.5,0-0.7,0h-1V32h0.9c0.3,0,0.5,0,0.8,0
			c0.3,0,0.5-0.1,0.7-0.2s0.4-0.2,0.5-0.4C93.8,31.2,93.8,31,93.8,30.6z"/>
		<path class="st6" d="M105.8,36.7c-0.8,0.6-1.8,0.9-3,0.9c-0.7,0-1.3-0.1-1.9-0.3c-0.6-0.2-1-0.5-1.5-0.9c-1-0.9-1.5-2.2-1.5-3.7
			c0-1.2,0.3-2.2,0.8-3.1c0.4-0.7,1-1.2,1.7-1.6c0.7-0.4,1.5-0.6,2.3-0.6c0.5,0,1,0.1,1.5,0.2c0.5,0.1,0.9,0.3,1.2,0.6l-1,1.3
			c-0.6-0.3-1.1-0.5-1.7-0.5c-0.4,0-0.8,0.1-1.2,0.3c-0.4,0.2-0.7,0.4-0.9,0.8c-0.4,0.5-0.6,1.3-0.6,2.4c0,0.7,0,1.2,0.1,1.6
			c0.1,0.4,0.3,0.8,0.5,1.1c0.5,0.6,1.2,0.9,2,0.9c0.3,0,0.7,0,1-0.1c0.3-0.1,0.6-0.2,0.9-0.4L105.8,36.7z"/>
		<path class="st6" d="M108,37.5v-9.7h6.1l-0.3,1.6H110v2.2h3.2v1.6H110v2.6h4.2v1.7H108z"/>
	</g>
	<g>
		<path class="st6" d="M59.7,50.3c0,1-0.1,1.9-0.3,2.6c-0.2,0.8-0.6,1.5-1,2c-0.4,0.6-1,1-1.6,1.3c-0.6,0.3-1.4,0.5-2.2,0.5
			c-0.9,0-1.7-0.2-2.3-0.5c-0.7-0.3-1.2-0.8-1.7-1.3c-0.4-0.6-0.8-1.2-1-2c-0.2-0.8-0.3-1.6-0.3-2.6c0-1,0.1-1.9,0.4-2.7
			s0.6-1.5,1.1-2s1-1,1.6-1.2c0.6-0.3,1.3-0.4,2.1-0.4c0.9,0,1.6,0.2,2.3,0.5c0.7,0.3,1.2,0.8,1.6,1.4s0.8,1.3,1,2
			S59.7,49.4,59.7,50.3z M57.4,50.4c0-0.8,0-1.4-0.1-2.1c-0.1-0.6-0.2-1.1-0.5-1.6c-0.2-0.4-0.5-0.8-0.9-1c-0.4-0.2-0.8-0.3-1.4-0.3
			c-1,0-1.8,0.4-2.2,1.2c-0.4,0.8-0.7,2-0.7,3.5c0,0.8,0.1,1.5,0.2,2.1s0.3,1.1,0.5,1.6c0.2,0.4,0.5,0.7,0.9,1
			c0.4,0.2,0.8,0.3,1.4,0.3c0.5,0,0.9-0.1,1.2-0.3c0.3-0.2,0.6-0.5,0.9-0.8s0.4-0.9,0.5-1.5C57.3,52,57.4,51.3,57.4,50.4z"/>
		<path class="st6" d="M71.1,56.6h-2.2l-1-4.1c-0.1-0.3-0.2-0.7-0.2-1c-0.1-0.4-0.1-0.7-0.2-1c0-0.3-0.1-0.6-0.1-0.8
			c0-0.2,0-0.4,0-0.4c0,0,0,0.1-0.1,0.4c0,0.2-0.1,0.5-0.2,0.8c-0.1,0.3-0.1,0.7-0.2,1c-0.1,0.4-0.1,0.7-0.2,1l-0.9,4.1h-2.3
			l-2.6-9.8H63l1,4c0.1,0.4,0.2,0.7,0.2,1.1c0.1,0.4,0.1,0.8,0.2,1.1c0.1,0.3,0.1,0.6,0.1,0.9c0,0.2,0.1,0.4,0.1,0.4
			c0,0,0-0.2,0.1-0.4c0-0.2,0.1-0.5,0.1-0.9c0.1-0.3,0.1-0.7,0.2-1.1c0.1-0.4,0.2-0.8,0.2-1.1l1-4.1h2.2l1,4.5
			c0.1,0.2,0.1,0.5,0.2,0.9c0.1,0.3,0.1,0.7,0.2,1c0.1,0.4,0.1,0.7,0.2,1.1c0.1-0.5,0.1-0.9,0.2-1.3c0.1-0.4,0.1-0.7,0.2-1.1
			c0.1-0.4,0.2-0.7,0.2-1l1-4h2.1L71.1,56.6z"/>
		<path class="st6" d="M80.8,56.5L78.5,52c-0.1-0.2-0.3-0.5-0.4-0.8c-0.1-0.3-0.3-0.6-0.4-0.9c-0.1-0.3-0.3-0.7-0.4-1
			c0,0.4,0,0.7,0.1,1.1c0,0.3,0,0.6,0,1s0,0.6,0,0.9l0.1,4.3h-2v-9.7h2.2l2.4,4.4c0.1,0.2,0.2,0.5,0.4,0.7c0.1,0.3,0.2,0.5,0.3,0.8
			s0.2,0.4,0.3,0.6c0.1,0.2,0.1,0.3,0.1,0.3c0,0,0-0.1,0-0.3s0-0.4-0.1-0.7s0-0.6-0.1-0.9s0-0.6,0-0.8l0-4.1h1.9v9.7H80.8z"/>
		<path class="st6" d="M86.2,56.5v-9.7h6.1L92,48.4h-3.8v2.2h3.2v1.6h-3.2v2.6h4.2v1.7H86.2z"/>
		<path class="st6" d="M100,56.5l-1-1.6c-0.3-0.4-0.5-0.7-0.6-1c-0.2-0.3-0.3-0.5-0.4-0.6s-0.2-0.3-0.3-0.4
			c-0.1-0.1-0.2-0.2-0.3-0.3c-0.1-0.1-0.2-0.1-0.3-0.2c-0.1,0-0.3-0.1-0.4-0.1v4h-2v-9.7H98c0.6,0,1.2,0.1,1.6,0.2
			c0.5,0.1,0.8,0.3,1.1,0.5c0.7,0.6,1,1.3,1,2.2c0,0.4-0.1,0.7-0.2,1.1c-0.1,0.3-0.3,0.6-0.5,0.8c-0.2,0.2-0.5,0.4-0.8,0.6
			c-0.3,0.1-0.6,0.2-1,0.3c0.1,0.1,0.3,0.3,0.4,0.5c0.2,0.2,0.4,0.5,0.6,0.8c0.2,0.3,0.5,0.6,0.7,1l1.3,2H100z M99.7,49.6
			c0-0.3-0.1-0.5-0.2-0.7c-0.1-0.2-0.3-0.3-0.5-0.4c-0.2-0.1-0.4-0.1-0.7-0.2c-0.2,0-0.5,0-0.7,0h-1V51h0.9c0.3,0,0.5,0,0.8,0
			c0.3,0,0.5-0.1,0.7-0.2s0.4-0.2,0.5-0.4C99.6,50.2,99.7,50,99.7,49.6z"/>
	</g>
</g>
<g id="authorization-server">
	<rect x="549" y="117" class="st7" width="162" height="108"/>
	<rect x="549" y="117" class="st8" width="162" height="108"/>
	<g>
		<path class="st6" d="M578.1,168l-1-3.3h-4l-1,3.3h-2.1l4.1-12.5h2.4l4,12.5H578.1z M576.7,163c0,0-0.1-0.2-0.2-0.5s-0.2-0.6-0.3-1
			c-0.1-0.4-0.2-0.8-0.3-1.2c-0.1-0.4-0.2-0.8-0.3-1.2c-0.1-0.4-0.2-0.7-0.3-1c-0.1-0.3-0.1-0.5-0.1-0.5h0c-0.2,0.9-0.5,1.7-0.7,2.4
			c-0.1,0.3-0.2,0.6-0.3,0.9c-0.1,0.3-0.2,0.6-0.3,0.9c-0.1,0.3-0.2,0.5-0.2,0.7c-0.1,0.2-0.1,0.4-0.1,0.5H576.7z"/>
		<path class="st6" d="M589.6,164.6c0,0.4,0,0.7,0,1c0,0.3-0.1,0.5-0.1,0.7c-0.1,0.2-0.2,0.4-0.3,0.5s-0.2,0.3-0.4,0.4
			c-0.3,0.3-0.7,0.5-1.2,0.7c-0.5,0.2-1.1,0.3-1.8,0.3c-0.9,0-1.6-0.1-2.2-0.4c-0.6-0.3-1-0.6-1.3-1c-0.2-0.3-0.3-0.6-0.3-0.9
			c-0.1-0.3-0.1-0.7-0.1-1.2v-6.4h2.1v6.1c0,0.3,0,0.6,0,0.8c0,0.2,0.1,0.4,0.1,0.5c0.1,0.3,0.3,0.5,0.6,0.6c0.3,0.1,0.6,0.2,1,0.2
			c0.7,0,1.1-0.2,1.4-0.5c0.1-0.1,0.1-0.2,0.2-0.3c0-0.1,0.1-0.2,0.1-0.3c0-0.1,0.1-0.3,0.1-0.4s0-0.4,0-0.6v-6.2h2.1V164.6z"/>
		<path class="st6" d="M598.7,159.9h-2.6v8.1h-2v-8.1h-2.7v-1.6h7.7L598.7,159.9z"/>
		<path class="st6" d="M606.2,168v-4.3h-3.3v4.3h-2v-9.7h2v3.8h3.3v-3.8h2.1v9.7H606.2z"/>
		<path class="st6" d="M620.2,163.1c0,0.7-0.1,1.4-0.3,2c-0.2,0.6-0.5,1.1-0.8,1.6c-0.4,0.4-0.8,0.8-1.4,1c-0.6,0.2-1.3,0.4-2,0.4
			c-0.8,0-1.4-0.1-2-0.4c-0.6-0.2-1.1-0.6-1.5-1c-0.4-0.4-0.7-1-0.9-1.6c-0.2-0.6-0.3-1.3-0.3-2c0-1.6,0.4-2.8,1.2-3.7
			s1.9-1.3,3.4-1.3c0.8,0,1.4,0.1,2,0.4s1.1,0.6,1.4,1c0.4,0.4,0.7,1,0.9,1.6C620.1,161.7,620.2,162.4,620.2,163.1z M617.9,163.2
			c0-0.4,0-0.8-0.1-1.3c0-0.4-0.2-0.8-0.3-1.1s-0.4-0.6-0.7-0.8c-0.3-0.2-0.7-0.3-1.3-0.3c-0.5,0-0.9,0.1-1.2,0.3s-0.5,0.5-0.7,0.8
			c-0.2,0.3-0.3,0.7-0.3,1.1c0,0.4-0.1,0.8-0.1,1.2c0,0.4,0,0.9,0.1,1.3c0,0.4,0.2,0.8,0.3,1.1c0.2,0.3,0.4,0.6,0.7,0.8
			c0.3,0.2,0.7,0.3,1.3,0.3c0.5,0,0.9-0.1,1.2-0.3c0.3-0.2,0.5-0.5,0.7-0.8s0.3-0.7,0.3-1.1C617.8,164,617.9,163.6,617.9,163.2z"/>
		<path class="st6" d="M628.2,168l-1-1.6c-0.3-0.4-0.5-0.7-0.6-1c-0.2-0.3-0.3-0.5-0.4-0.6s-0.2-0.3-0.3-0.4
			c-0.1-0.1-0.2-0.2-0.3-0.3c-0.1-0.1-0.2-0.1-0.3-0.2c-0.1,0-0.3-0.1-0.4-0.1v4h-2v-9.7h3.3c0.6,0,1.2,0.1,1.6,0.2
			c0.5,0.1,0.8,0.3,1.1,0.5c0.7,0.6,1,1.3,1,2.2c0,0.4-0.1,0.7-0.2,1.1c-0.1,0.3-0.3,0.6-0.5,0.8c-0.2,0.2-0.5,0.4-0.8,0.6
			c-0.3,0.1-0.6,0.2-1,0.3c0.1,0.1,0.3,0.3,0.4,0.5c0.2,0.2,0.4,0.5,0.6,0.8c0.2,0.3,0.5,0.6,0.7,1l1.3,2H628.2z M627.8,161.1
			c0-0.3-0.1-0.5-0.2-0.7c-0.1-0.2-0.3-0.3-0.5-0.4c-0.2-0.1-0.4-0.1-0.7-0.2c-0.2,0-0.5,0-0.7,0h-1v2.7h0.9c0.3,0,0.5,0,0.8,0
			c0.3,0,0.5-0.1,0.7-0.2s0.4-0.2,0.5-0.4C627.8,161.7,627.8,161.5,627.8,161.1z"/>
		<path class="st6" d="M632.6,168v-9.7h2.1v9.7H632.6z"/>
		<path class="st6" d="M643.8,168h-6.7v-1.4l4.2-6c0.1-0.1,0.1-0.2,0.2-0.3s0.2-0.2,0.2-0.3c0.1-0.1,0.2-0.2,0.3-0.3
			c-0.1,0-0.3,0-0.4,0c-0.1,0-0.3,0-0.4,0c-0.1,0-0.3,0-0.4,0h-3.5l0.5-1.6h6.4v1.4l-4.1,6c-0.1,0.1-0.1,0.2-0.2,0.3
			c-0.1,0.1-0.1,0.2-0.2,0.2c-0.1,0.1-0.2,0.2-0.2,0.3c0.1,0,0.3,0,0.4,0c0.1,0,0.2,0,0.4,0s0.2,0,0.3,0h3.8L643.8,168z"/>
		<path class="st6" d="M652.4,168l-0.8-2.3h-3.3l-0.8,2.3h-2.1l3.6-9.8h2.2l3.5,9.8H652.4z M649.9,160l-1.2,4.1h2.4L649.9,160z"/>
		<path class="st6" d="M662.2,159.9h-2.6v8.1h-2v-8.1h-2.7v-1.6h7.7L662.2,159.9z"/>
		<path class="st6" d="M664.2,168v-9.7h2.1v9.7H664.2z"/>
		<path class="st6" d="M678.2,163.1c0,0.7-0.1,1.4-0.3,2c-0.2,0.6-0.5,1.1-0.8,1.6c-0.4,0.4-0.8,0.8-1.4,1c-0.6,0.2-1.3,0.4-2,0.4
			c-0.8,0-1.4-0.1-2-0.4c-0.6-0.2-1.1-0.6-1.5-1c-0.4-0.4-0.7-1-0.9-1.6c-0.2-0.6-0.3-1.3-0.3-2c0-1.6,0.4-2.8,1.2-3.7
			c0.8-0.9,1.9-1.3,3.4-1.3c0.8,0,1.4,0.1,2,0.4s1.1,0.6,1.4,1c0.4,0.4,0.7,1,0.9,1.6C678.1,161.7,678.2,162.4,678.2,163.1z
			 M675.9,163.2c0-0.4,0-0.8-0.1-1.3s-0.2-0.8-0.3-1.1s-0.4-0.6-0.7-0.8s-0.7-0.3-1.3-0.3c-0.5,0-0.9,0.1-1.2,0.3
			c-0.3,0.2-0.5,0.5-0.7,0.8s-0.3,0.7-0.3,1.1s-0.1,0.8-0.1,1.2c0,0.4,0,0.9,0.1,1.3c0,0.4,0.2,0.8,0.3,1.1s0.4,0.6,0.7,0.8
			s0.7,0.3,1.3,0.3c0.5,0,0.9-0.1,1.2-0.3c0.3-0.2,0.5-0.5,0.7-0.8c0.2-0.3,0.3-0.7,0.3-1.1S675.9,163.6,675.9,163.2z"/>
		<path class="st6" d="M686.3,168l-2.3-4.5c-0.1-0.2-0.3-0.5-0.4-0.8c-0.1-0.3-0.3-0.6-0.4-0.9c-0.1-0.3-0.3-0.7-0.4-1
			c0,0.4,0,0.7,0.1,1.1c0,0.3,0,0.6,0,1s0,0.6,0,0.9l0.1,4.3h-2v-9.7h2.2l2.4,4.4c0.1,0.2,0.2,0.5,0.4,0.7c0.1,0.3,0.2,0.5,0.3,0.8
			c0.1,0.2,0.2,0.4,0.3,0.6c0.1,0.2,0.1,0.3,0.1,0.3c0,0,0-0.1,0-0.3c0-0.2,0-0.4-0.1-0.7s0-0.6-0.1-0.9s0-0.6,0-0.8l0-4.1h1.9v9.7
			H686.3z"/>
	</g>
	<g>
		<path class="st6" d="M611.8,183.2c0,0.5-0.1,1-0.3,1.5c-0.2,0.5-0.5,0.9-0.9,1.3c-0.4,0.4-0.9,0.7-1.5,0.9
			c-0.6,0.2-1.3,0.3-2.1,0.3c-0.7,0-1.4-0.1-2.1-0.3s-1.4-0.5-2-0.8l0.8-1.6c0.6,0.3,1.1,0.6,1.6,0.8s1.1,0.3,1.7,0.3
			c0.8,0,1.4-0.2,1.8-0.5c0.4-0.3,0.6-0.8,0.6-1.5c0-0.5-0.1-0.8-0.4-1.1c-0.3-0.3-0.8-0.5-1.4-0.7l-1.3-0.4
			c-0.6-0.2-1.1-0.4-1.5-0.6s-0.7-0.5-1-0.9c-0.3-0.5-0.5-1.1-0.5-1.8c0-0.6,0.1-1.1,0.3-1.5s0.5-0.8,0.9-1.2
			c0.4-0.3,0.8-0.6,1.3-0.8c0.5-0.2,1.1-0.3,1.7-0.3c0.7,0,1.4,0.1,2.1,0.3s1.3,0.5,1.8,0.9l-0.9,1.5c-0.6-0.3-1.1-0.6-1.5-0.7
			c-0.4-0.1-0.9-0.2-1.4-0.2c-0.6,0-1.1,0.2-1.5,0.5s-0.6,0.7-0.6,1.2c0,0.4,0.1,0.7,0.4,0.9c0.2,0.2,0.7,0.4,1.3,0.6l1.5,0.4
			c0.9,0.3,1.6,0.7,2.2,1.3C611.5,181.5,611.8,182.3,611.8,183.2z"/>
		<path class="st6" d="M614.4,187v-9.7h6.1l-0.3,1.6h-3.8v2.2h3.2v1.6h-3.2v2.6h4.2v1.7H614.4z"/>
		<path class="st6" d="M628.2,187l-1-1.6c-0.3-0.4-0.5-0.7-0.6-1s-0.3-0.5-0.4-0.6c-0.1-0.2-0.2-0.3-0.3-0.4
			c-0.1-0.1-0.2-0.2-0.3-0.3c-0.1-0.1-0.2-0.1-0.3-0.2c-0.1,0-0.3-0.1-0.4-0.1v4h-2v-9.7h3.3c0.6,0,1.2,0.1,1.6,0.2
			c0.5,0.1,0.8,0.3,1.1,0.5c0.7,0.6,1,1.3,1,2.2c0,0.4-0.1,0.7-0.2,1.1s-0.3,0.6-0.5,0.8c-0.2,0.2-0.5,0.4-0.8,0.6
			c-0.3,0.1-0.6,0.2-1,0.3c0.1,0.1,0.3,0.3,0.4,0.5c0.2,0.2,0.4,0.5,0.6,0.8c0.2,0.3,0.5,0.6,0.7,1l1.3,2H628.2z M627.9,180.1
			c0-0.3-0.1-0.5-0.2-0.7c-0.1-0.2-0.3-0.3-0.5-0.4c-0.2-0.1-0.4-0.1-0.7-0.2c-0.2,0-0.5,0-0.7,0h-1v2.7h0.9c0.3,0,0.5,0,0.8,0
			c0.3,0,0.5-0.1,0.7-0.2s0.4-0.2,0.5-0.4C627.8,180.7,627.9,180.5,627.9,180.1z"/>
		<path class="st6" d="M636.3,187.1h-1.8l-3.7-9.8h2.2l1.8,5c0.1,0.2,0.1,0.4,0.2,0.7c0.1,0.3,0.1,0.5,0.2,0.8
			c0.1,0.3,0.1,0.6,0.2,0.8c0.1-0.3,0.1-0.6,0.2-0.8c0.1-0.2,0.1-0.5,0.2-0.7c0.1-0.3,0.2-0.5,0.2-0.7l1.9-5.1h2.1L636.3,187.1z"/>
		<path class="st6" d="M641.6,187v-9.7h6.1l-0.3,1.6h-3.8v2.2h3.2v1.6h-3.2v2.6h4.2v1.7H641.6z"/>
		<path class="st6" d="M655.4,187l-1-1.6c-0.3-0.4-0.5-0.7-0.6-1s-0.3-0.5-0.4-0.6c-0.1-0.2-0.2-0.3-0.3-0.4
			c-0.1-0.1-0.2-0.2-0.3-0.3c-0.1-0.1-0.2-0.1-0.3-0.2c-0.1,0-0.3-0.1-0.4-0.1v4h-2v-9.7h3.3c0.6,0,1.2,0.1,1.6,0.2
			c0.5,0.1,0.8,0.3,1.1,0.5c0.7,0.6,1,1.3,1,2.2c0,0.4-0.1,0.7-0.2,1.1s-0.3,0.6-0.5,0.8c-0.2,0.2-0.5,0.4-0.8,0.6
			c-0.3,0.1-0.6,0.2-1,0.3c0.1,0.1,0.3,0.3,0.4,0.5c0.2,0.2,0.4,0.5,0.6,0.8c0.2,0.3,0.5,0.6,0.7,1l1.3,2H655.4z M655.1,180.1
			c0-0.3-0.1-0.5-0.2-0.7c-0.1-0.2-0.3-0.3-0.5-0.4c-0.2-0.1-0.4-0.1-0.7-0.2c-0.2,0-0.5,0-0.7,0h-1v2.7h0.9c0.3,0,0.5,0,0.8,0
			c0.3,0,0.5-0.1,0.7-0.2s0.4-0.2,0.5-0.4C655,180.7,655.1,180.5,655.1,180.1z"/>
	</g>
</g>
<g id="user-agent">
	<rect x="9" y="117" class="st4" width="135" height="108"/>
	<rect x="9" y="117" class="st5" width="135" height="108"/>
	<g>
		<path class="st6" d="M64,164.5c0,1.2-0.4,2.1-1.1,2.7c-0.8,0.7-1.8,1-3.2,1c-0.8,0-1.5-0.1-2.1-0.3c-0.6-0.2-1-0.5-1.3-0.8
			c-0.3-0.3-0.6-0.7-0.7-1.2c-0.1-0.4-0.2-0.9-0.2-1.4v-9h2.1v8.4c0,0.5,0,0.9,0.1,1.2c0.1,0.3,0.2,0.6,0.4,0.8
			c0.2,0.2,0.4,0.3,0.7,0.4s0.6,0.1,1,0.1c0.8,0,1.3-0.2,1.7-0.6c0.4-0.4,0.6-1.1,0.6-1.9v-8.4H64V164.5z"/>
		<path class="st6" d="M74.2,165c0,0.6-0.1,1.1-0.4,1.5c-0.3,0.4-0.6,0.8-1,1c-0.4,0.3-0.9,0.4-1.4,0.6s-1,0.2-1.5,0.2
			c-0.6,0-1.2-0.1-1.8-0.2s-1.2-0.4-1.8-0.6l0.7-1.5c0.5,0.3,1,0.4,1.5,0.6c0.5,0.1,1,0.2,1.5,0.2c0.2,0,0.4,0,0.6,0
			c0.2,0,0.4-0.1,0.6-0.2c0.2-0.1,0.4-0.2,0.5-0.4c0.1-0.2,0.2-0.4,0.2-0.6c0-0.3-0.1-0.6-0.4-0.8c-0.2-0.2-0.6-0.4-1.2-0.5
			l-1.3-0.3c-0.7-0.2-1.3-0.5-1.7-0.9c-0.5-0.4-0.7-1-0.7-1.8c0-0.4,0.1-0.8,0.3-1.2c0.2-0.4,0.4-0.7,0.8-0.9s0.7-0.5,1.2-0.6
			s1-0.2,1.5-0.2c0.6,0,1.3,0.1,2,0.3c0.7,0.2,1.2,0.4,1.6,0.7l-1,1.4c-0.9-0.5-1.8-0.8-2.6-0.8c-0.5,0-0.9,0.1-1.2,0.3
			c-0.3,0.2-0.4,0.5-0.4,0.8c0,0.3,0.1,0.5,0.3,0.7c0.2,0.2,0.5,0.3,1,0.4l1.3,0.3c0.4,0.1,0.7,0.2,1.1,0.4c0.3,0.1,0.6,0.3,0.9,0.5
			c0.2,0.2,0.4,0.5,0.6,0.8C74.2,164.2,74.2,164.5,74.2,165z"/>
		<path class="st6" d="M76.9,168v-9.7H83l-0.3,1.6h-3.8v2.2h3.2v1.6h-3.2v2.6h4.2v1.7H76.9z"/>
		<path class="st6" d="M90.7,168l-1-1.6c-0.3-0.4-0.5-0.7-0.6-1c-0.2-0.3-0.3-0.5-0.4-0.6s-0.2-0.3-0.3-0.4
			c-0.1-0.1-0.2-0.2-0.3-0.3c-0.1-0.1-0.2-0.1-0.3-0.2c-0.1,0-0.3-0.1-0.4-0.1v4h-2v-9.7h3.3c0.6,0,1.2,0.1,1.6,0.2
			c0.5,0.1,0.8,0.3,1.1,0.5c0.7,0.6,1,1.3,1,2.2c0,0.4-0.1,0.7-0.2,1.1c-0.1,0.3-0.3,0.6-0.5,0.8c-0.2,0.2-0.5,0.4-0.8,0.6
			c-0.3,0.1-0.6,0.2-1,0.3c0.1,0.1,0.3,0.3,0.4,0.5c0.2,0.2,0.4,0.5,0.6,0.8c0.2,0.3,0.5,0.6,0.7,1l1.3,2H90.7z M90.4,161.1
			c0-0.3-0.1-0.5-0.2-0.7c-0.1-0.2-0.3-0.3-0.5-0.4c-0.2-0.1-0.4-0.1-0.7-0.2c-0.2,0-0.5,0-0.7,0h-1v2.7h0.9c0.3,0,0.5,0,0.8,0
			c0.3,0,0.5-0.1,0.7-0.2s0.4-0.2,0.5-0.4C90.3,161.7,90.4,161.5,90.4,161.1z"/>
		<path class="st6" d="M94.4,164v-1.8h3.9v1.8H94.4z"/>
	</g>
	<g>
		<path class="st6" d="M60.4,187l-1-3.3h-4l-1,3.3h-2.1l4.1-12.5h2.4l4,12.5H60.4z M58.9,182c0,0-0.1-0.2-0.2-0.5s-0.2-0.6-0.3-1
			s-0.2-0.8-0.3-1.2s-0.2-0.8-0.3-1.2s-0.2-0.7-0.3-1c-0.1-0.3-0.1-0.5-0.1-0.5h0c-0.2,0.9-0.5,1.7-0.7,2.4
			c-0.1,0.3-0.2,0.6-0.3,0.9c-0.1,0.3-0.2,0.6-0.3,0.9c-0.1,0.3-0.2,0.5-0.2,0.7c-0.1,0.2-0.1,0.4-0.1,0.5H58.9z"/>
		<path class="st6" d="M72,186.3c-1.1,0.6-2.2,0.8-3.5,0.8c-0.8,0-1.5-0.1-2.1-0.4c-0.6-0.2-1.1-0.6-1.5-1.1c-0.4-0.5-0.7-1-0.9-1.5
			c-0.2-0.6-0.3-1.2-0.3-2c0-1,0.2-1.8,0.5-2.5c0.3-0.7,0.8-1.3,1.5-1.7c0.8-0.6,1.7-0.8,2.9-0.8c1.3,0,2.4,0.4,3.4,1.1l-1,1.2
			c-0.4-0.2-0.7-0.4-1.1-0.6c-0.4-0.1-0.8-0.2-1.2-0.2c-0.6,0-1,0.1-1.4,0.3c-0.3,0.2-0.6,0.5-0.8,0.8s-0.3,0.7-0.4,1.2
			c-0.1,0.4-0.1,0.9-0.1,1.3c0,0.5,0,0.9,0.1,1.3c0.1,0.4,0.2,0.8,0.4,1.1s0.5,0.5,0.8,0.7c0.3,0.2,0.8,0.3,1.3,0.3
			c0.3,0,0.5,0,0.7-0.1c0.2-0.1,0.4-0.1,0.6-0.2v-2.2h-1.7l-0.3-1.6H72V186.3z"/>
		<path class="st6" d="M75.1,187v-9.7h6.1l-0.3,1.6h-3.8v2.2h3.2v1.6h-3.2v2.6h4.2v1.7H75.1z"/>
		<path class="st6" d="M89,187l-2.3-4.5c-0.1-0.2-0.3-0.5-0.4-0.8c-0.1-0.3-0.3-0.6-0.4-0.9c-0.1-0.3-0.3-0.7-0.4-1
			c0,0.4,0,0.7,0.1,1.1c0,0.3,0,0.6,0,1s0,0.6,0,0.9l0.1,4.3h-2v-9.7h2.2l2.4,4.4c0.1,0.2,0.2,0.5,0.4,0.7c0.1,0.3,0.2,0.5,0.3,0.8
			s0.2,0.4,0.3,0.6c0.1,0.2,0.1,0.3,0.1,0.3c0,0,0-0.1,0-0.3s0-0.4-0.1-0.7s0-0.6-0.1-0.9s0-0.6,0-0.8l0-4.1h1.9v9.7H89z"/>
		<path class="st6" d="M100.3,178.9h-2.6v8.1h-2v-8.1H93v-1.6h7.7L100.3,178.9z"/>
	</g>
</g>
<g id="client">
	<rect x="9" y="270" class="st9" width="135" height="72"/>
	<rect x="9" y="270" class="st10" width="135" height="72"/>
	<g>
		<path class="st6" d="M60.9,311.6c-1,0.7-2.1,1.1-3.4,1.1c-0.8,0-1.6-0.2-2.2-0.5c-0.7-0.3-1.2-0.8-1.7-1.3
			c-0.9-1.2-1.4-2.6-1.4-4.4c0-1.5,0.3-2.7,0.8-3.8c0.5-0.9,1.1-1.6,1.9-2.1c0.8-0.5,1.7-0.8,2.7-0.8c0.6,0,1.2,0.1,1.7,0.3
			c0.5,0.2,1,0.4,1.4,0.7l-1,1.4c-0.3-0.2-0.7-0.4-1-0.5s-0.7-0.2-1.1-0.2c-0.5,0-1,0.1-1.4,0.4c-0.4,0.3-0.8,0.6-1,1.1
			c-0.2,0.4-0.4,0.8-0.5,1.4s-0.2,1.2-0.2,1.9c0,0.8,0,1.4,0.1,1.9c0.1,0.5,0.2,0.9,0.4,1.2c0.3,0.6,0.7,1,1.1,1.3
			c0.5,0.3,1,0.4,1.6,0.4c0.4,0,0.8-0.1,1.2-0.2c0.3-0.1,0.7-0.3,1-0.6L60.9,311.6z"/>
		<path class="st6" d="M68.9,312.5h-5.6v-9.7h2v8.1h4L68.9,312.5z"/>
		<path class="st6" d="M70.9,312.5v-9.7H73v9.7H70.9z"/>
		<path class="st6" d="M76.2,312.5v-9.7h6.1l-0.3,1.6h-3.8v2.2h3.2v1.6h-3.2v2.6h4.2v1.7H76.2z"/>
		<path class="st6" d="M90.1,312.5l-2.3-4.5c-0.1-0.2-0.3-0.5-0.4-0.8c-0.1-0.3-0.3-0.6-0.4-0.9c-0.1-0.3-0.3-0.7-0.4-1
			c0,0.4,0,0.7,0.1,1.1c0,0.3,0,0.6,0,1s0,0.6,0,0.9l0.1,4.3h-2v-9.7H87l2.4,4.4c0.1,0.2,0.2,0.5,0.4,0.7c0.1,0.3,0.2,0.5,0.3,0.8
			s0.2,0.4,0.3,0.6c0.1,0.2,0.1,0.3,0.1,0.3c0,0,0-0.1,0-0.3s0-0.4-0.1-0.7s0-0.6-0.1-0.9s0-0.6,0-0.8l0-4.1h1.9v9.7H90.1z"/>
		<path class="st6" d="M101.5,304.4h-2.6v8.1h-2v-8.1h-2.7v-1.6h7.7L101.5,304.4z"/>
	</g>
</g>
</svg>
