<?xml version="1.0" encoding="utf-8"?>
<!-- Generator: Adobe Illustrator 21.0.2, SVG Export Plug-In . SVG Version: 6.00 Build 0)  -->
<svg version="1.1" id="Ebene_1" xmlns="http://www.w3.org/2000/svg" xmlns:xlink="http://www.w3.org/1999/xlink" x="0px" y="0px"
	 viewBox="0 0 691 382" style="enable-background:new 0 0 691 382;" xml:space="preserve">
<style type="text/css">
	.st0{fill:#007993;}
	.st1{fill:none;stroke:#007993;stroke-width:2;stroke-linecap:round;stroke-linejoin:round;stroke-miterlimit:10;}
	.st2{fill:#FFFFFF;}
	.st3{fill:#4F4F4C;}
	.st4{fill:none;stroke:#4F4F4C;stroke-width:2;stroke-linecap:round;stroke-linejoin:round;stroke-miterlimit:10;}
	.st5{fill:#2C9050;}
	.st6{fill:none;stroke:#2C9050;stroke-width:2;stroke-linecap:round;stroke-linejoin:round;stroke-miterlimit:10;}
	.st7{fill:none;stroke:#4F4F4C;stroke-width:2;stroke-miterlimit:10;}
	.st8{clip-path:url(#SVGID_2_);fill:none;stroke:#7A7878;stroke-width:1.2415;stroke-linejoin:round;stroke-miterlimit:10;}
	.st9{clip-path:url(#SVGID_4_);fill:#006784;}
	.st10{clip-path:url(#SVGID_6_);fill:none;stroke:#383335;stroke-width:0.916;stroke-linejoin:round;stroke-miterlimit:10;}
	.st11{clip-path:url(#SVGID_6_);fill:#FFFFFF;}
	.st12{clip-path:url(#SVGID_8_);fill:none;stroke:#7A7878;stroke-width:0.5436;stroke-linejoin:round;stroke-miterlimit:10;}
	.st13{clip-path:url(#SVGID_10_);fill:none;stroke:#7A7878;stroke-width:0.5436;stroke-linejoin:round;stroke-miterlimit:10;}
	.st14{clip-path:url(#SVGID_12_);fill:none;stroke:#7A7878;stroke-width:0.5436;stroke-linejoin:round;stroke-miterlimit:10;}
	.st15{clip-path:url(#SVGID_14_);fill:none;stroke:#7A7878;stroke-width:0.5436;stroke-linejoin:round;stroke-miterlimit:10;}
	.st16{clip-path:url(#SVGID_16_);}
	.st17{clip-path:url(#SVGID_18_);fill:#29833B;}
</style>
<g>
	<rect x="27" y="24" class="st0" width="135" height="291"/>
	<rect x="27" y="24" class="st1" width="135" height="291"/>
	<g>
		<path class="st2" d="M77.2,176.5c-1.1,0.8-2.3,1.2-3.8,1.2c-0.9,0-1.7-0.2-2.5-0.5c-0.7-0.3-1.4-0.8-1.9-1.5
			c-1.1-1.3-1.6-2.9-1.6-4.9c0-1.7,0.3-3.1,0.9-4.2c0.5-1,1.2-1.8,2.1-2.3c0.9-0.6,1.9-0.8,3-0.8c0.7,0,1.3,0.1,1.9,0.3
			c0.6,0.2,1.1,0.5,1.5,0.8l-1.1,1.5c-0.4-0.3-0.8-0.5-1.1-0.6s-0.8-0.2-1.2-0.2c-0.6,0-1.1,0.1-1.6,0.4c-0.5,0.3-0.9,0.7-1.2,1.2
			c-0.2,0.4-0.4,0.9-0.5,1.5s-0.2,1.3-0.2,2.1c0,0.9,0,1.5,0.1,2.1c0.1,0.5,0.2,1,0.4,1.4c0.3,0.7,0.7,1.2,1.3,1.5
			c0.5,0.3,1.1,0.5,1.8,0.5c0.5,0,0.9-0.1,1.3-0.2c0.4-0.1,0.8-0.4,1.2-0.7L77.2,176.5z"/>
		<path class="st2" d="M86.1,177.5h-6.2v-10.8h2.3v9h4.4L86.1,177.5z"/>
		<path class="st2" d="M88.3,177.5v-10.8h2.3v10.8H88.3z"/>
		<path class="st2" d="M94.2,177.5v-10.8h6.8l-0.3,1.8h-4.2v2.5h3.5v1.8h-3.5v2.9h4.7v1.9H94.2z"/>
		<path class="st2" d="M109.6,177.5l-2.6-5c-0.1-0.3-0.3-0.6-0.5-0.9c-0.2-0.3-0.3-0.7-0.5-1c-0.2-0.4-0.3-0.7-0.5-1.1
			c0,0.4,0,0.8,0.1,1.2c0,0.3,0,0.7,0,1.1c0,0.4,0,0.7,0,1l0.1,4.7h-2.2v-10.8h2.5l2.7,4.9c0.1,0.2,0.3,0.5,0.4,0.8
			c0.1,0.3,0.3,0.6,0.4,0.8c0.1,0.3,0.2,0.5,0.3,0.7s0.1,0.3,0.2,0.4c0,0,0-0.1,0-0.4c0-0.2-0.1-0.5-0.1-0.8c0-0.3,0-0.6-0.1-1
			c0-0.3,0-0.6,0-0.9l0-4.6h2.1v10.8H109.6z"/>
		<path class="st2" d="M122.2,168.5h-2.9v9H117v-9h-3v-1.8h8.6L122.2,168.5z"/>
	</g>
	<rect x="504" y="24" class="st3" width="162" height="75"/>
	<rect x="504" y="24" class="st4" width="162" height="75"/>
	<g>
		<path class="st2" d="M549.8,58.5l-1.2-2.1c-0.5-0.9-0.9-1.5-1.3-2.1c-0.4-0.5-0.7-1-1.1-1.4c-0.1-0.1-0.3-0.2-0.4-0.3
			c-0.1-0.1-0.3-0.1-0.5-0.1v6h-2.3V44.7h4.2c0.8,0,1.4,0.1,2,0.3c0.6,0.2,1,0.5,1.4,0.9c0.4,0.4,0.6,0.8,0.8,1.3
			c0.2,0.5,0.3,1,0.3,1.5c0,0.5-0.1,1-0.2,1.4c-0.2,0.5-0.4,0.9-0.7,1.2s-0.7,0.6-1.1,0.8c-0.4,0.2-0.9,0.3-1.4,0.3
			c0.1,0.1,0.3,0.2,0.4,0.4c0.2,0.2,0.4,0.4,0.5,0.7c0.2,0.3,0.4,0.5,0.6,0.8s0.4,0.6,0.6,0.9l2,3.3H549.8z M549.4,48.6
			c0-0.7-0.2-1.2-0.6-1.6c-0.4-0.4-1.1-0.5-2.2-0.5h-1.3v4.4h1.2c0.6,0,1.1,0,1.4-0.1c0.3-0.1,0.6-0.2,0.8-0.4
			c0.2-0.2,0.3-0.4,0.5-0.7C549.3,49.3,549.4,49,549.4,48.6z"/>
		<path class="st2" d="M554.9,58.5V47.7h6.8l-0.3,1.8h-4.2V52h3.5v1.8h-3.5v2.9h4.7v1.9H554.9z"/>
		<path class="st2" d="M572.3,55.1c0,0.7-0.1,1.2-0.4,1.7s-0.7,0.8-1.1,1.1c-0.5,0.3-1,0.5-1.6,0.6c-0.6,0.1-1.1,0.2-1.7,0.2
			c-0.7,0-1.4-0.1-2-0.2s-1.3-0.4-2-0.7l0.8-1.7c0.6,0.3,1.1,0.5,1.6,0.6c0.5,0.1,1.1,0.2,1.7,0.2c0.2,0,0.5,0,0.7-0.1
			c0.3,0,0.5-0.1,0.7-0.2c0.2-0.1,0.4-0.2,0.5-0.4c0.1-0.2,0.2-0.4,0.2-0.7c0-0.3-0.1-0.6-0.4-0.9c-0.3-0.2-0.7-0.4-1.3-0.6
			l-1.4-0.4c-0.8-0.2-1.4-0.5-1.9-1c-0.5-0.5-0.8-1.2-0.8-2c0-0.5,0.1-0.9,0.3-1.3c0.2-0.4,0.5-0.8,0.9-1c0.4-0.3,0.8-0.5,1.3-0.7
			s1.1-0.2,1.7-0.2c0.7,0,1.4,0.1,2.2,0.3c0.7,0.2,1.3,0.5,1.8,0.8l-1.1,1.6c-1-0.6-1.9-0.8-2.9-0.8c-0.5,0-1,0.1-1.3,0.3
			c-0.3,0.2-0.5,0.5-0.5,0.9c0,0.3,0.1,0.6,0.3,0.7c0.2,0.2,0.6,0.3,1.1,0.5l1.4,0.4c0.4,0.1,0.8,0.2,1.2,0.4c0.4,0.2,0.7,0.4,1,0.6
			c0.3,0.2,0.5,0.5,0.7,0.9S572.3,54.7,572.3,55.1z"/>
		<path class="st2" d="M584.9,53.1c0,0.8-0.1,1.6-0.3,2.3c-0.2,0.7-0.5,1.3-0.9,1.8s-0.9,0.9-1.6,1.2c-0.6,0.3-1.4,0.4-2.3,0.4
			c-0.8,0-1.6-0.1-2.2-0.4s-1.2-0.6-1.6-1.1c-0.4-0.5-0.8-1.1-1-1.8s-0.3-1.4-0.3-2.2c0-1.8,0.5-3.1,1.4-4.1c0.9-1,2.2-1.5,3.8-1.5
			c0.9,0,1.6,0.1,2.2,0.4c0.6,0.3,1.2,0.7,1.6,1.2s0.8,1.1,1,1.8C584.8,51.5,584.9,52.2,584.9,53.1z M582.3,53.1
			c0-0.5,0-0.9-0.1-1.4c-0.1-0.5-0.2-0.9-0.3-1.3c-0.2-0.4-0.4-0.7-0.8-0.9s-0.8-0.3-1.4-0.3c-0.6,0-1,0.1-1.3,0.4
			c-0.3,0.2-0.6,0.5-0.8,0.9c-0.2,0.4-0.3,0.8-0.4,1.2c-0.1,0.5-0.1,0.9-0.1,1.3c0,0.5,0,1,0.1,1.5c0.1,0.5,0.2,0.9,0.4,1.3
			c0.2,0.4,0.4,0.7,0.8,0.9s0.8,0.3,1.4,0.3c0.6,0,1-0.1,1.4-0.4c0.3-0.2,0.6-0.5,0.8-0.9c0.2-0.4,0.3-0.8,0.3-1.3
			C582.3,54,582.3,53.6,582.3,53.1z"/>
		<path class="st2" d="M596.3,54.7c0,0.4,0,0.8-0.1,1.1c0,0.3-0.1,0.5-0.2,0.8c-0.1,0.2-0.2,0.4-0.3,0.6c-0.1,0.2-0.3,0.3-0.4,0.5
			c-0.3,0.3-0.8,0.6-1.3,0.8c-0.5,0.2-1.2,0.3-2,0.3c-1,0-1.8-0.1-2.4-0.4c-0.6-0.3-1.1-0.7-1.4-1.1c-0.2-0.3-0.3-0.6-0.4-1
			c-0.1-0.3-0.1-0.8-0.1-1.3v-7.1h2.3v6.8c0,0.4,0,0.7,0,0.9c0,0.2,0.1,0.4,0.1,0.6c0.1,0.3,0.4,0.5,0.7,0.7
			c0.3,0.1,0.7,0.2,1.1,0.2c0.7,0,1.3-0.2,1.6-0.6c0.1-0.1,0.1-0.2,0.2-0.3c0.1-0.1,0.1-0.2,0.1-0.3c0-0.1,0.1-0.3,0.1-0.5
			c0-0.2,0-0.4,0-0.7v-6.9h2.3V54.7z"/>
		<path class="st2" d="M605.7,58.5l-1.1-1.7c-0.3-0.4-0.5-0.8-0.7-1.1c-0.2-0.3-0.3-0.5-0.5-0.7c-0.1-0.2-0.2-0.3-0.3-0.4
			s-0.2-0.2-0.3-0.3s-0.2-0.1-0.3-0.2S602.2,54,602,54v4.5h-2.2V47.7h3.6c0.7,0,1.3,0.1,1.8,0.2c0.5,0.1,0.9,0.3,1.3,0.6
			c0.7,0.6,1.1,1.4,1.1,2.4c0,0.4-0.1,0.8-0.2,1.2c-0.1,0.4-0.3,0.7-0.5,0.9c-0.2,0.3-0.5,0.5-0.8,0.6c-0.3,0.2-0.7,0.3-1.1,0.3
			c0.1,0.1,0.3,0.3,0.5,0.5c0.2,0.2,0.4,0.5,0.6,0.9c0.3,0.3,0.5,0.7,0.8,1.1l1.5,2.2H605.7z M605.4,50.9c0-0.3-0.1-0.6-0.2-0.8
			s-0.3-0.3-0.5-0.5c-0.2-0.1-0.5-0.2-0.7-0.2c-0.3,0-0.5,0-0.8,0H602v3h1c0.3,0,0.6,0,0.8,0c0.3,0,0.5-0.1,0.8-0.2s0.4-0.2,0.5-0.5
			S605.4,51.2,605.4,50.9z"/>
		<path class="st2" d="M618.7,57.7c-0.9,0.7-2,1-3.3,1c-0.8,0-1.4-0.1-2.1-0.3s-1.2-0.5-1.6-1c-1.1-1-1.6-2.4-1.6-4.1
			c0-1.3,0.3-2.5,0.9-3.4c0.5-0.7,1.1-1.3,1.9-1.8c0.8-0.4,1.7-0.6,2.6-0.6c0.6,0,1.1,0.1,1.7,0.2c0.6,0.2,1,0.4,1.4,0.6l-1.1,1.5
			c-0.6-0.4-1.3-0.6-1.9-0.6c-0.5,0-0.9,0.1-1.3,0.3c-0.4,0.2-0.7,0.5-1,0.8c-0.4,0.6-0.6,1.5-0.6,2.6c0,0.8,0,1.4,0.1,1.8
			c0.1,0.4,0.3,0.8,0.6,1.2c0.6,0.7,1.3,1,2.3,1c0.4,0,0.7,0,1.1-0.2c0.3-0.1,0.7-0.3,1-0.5L618.7,57.7z"/>
		<path class="st2" d="M621.1,58.5V47.7h6.8l-0.3,1.8h-4.2V52h3.5v1.8h-3.5v2.9h4.7v1.9H621.1z"/>
	</g>
	<g>
		<path class="st2" d="M567.5,73.6c0,1.1-0.1,2.1-0.4,2.9s-0.6,1.6-1.1,2.2c-0.5,0.6-1.1,1.1-1.8,1.4s-1.5,0.5-2.4,0.5
			c-1,0-1.8-0.2-2.6-0.5c-0.7-0.4-1.3-0.9-1.8-1.5c-0.5-0.6-0.9-1.4-1.1-2.3c-0.2-0.9-0.4-1.8-0.4-2.8c0-1.1,0.1-2.1,0.4-3
			c0.3-0.9,0.7-1.6,1.2-2.2c0.5-0.6,1.1-1.1,1.8-1.4c0.7-0.3,1.5-0.5,2.4-0.5c1,0,1.8,0.2,2.6,0.5c0.7,0.4,1.3,0.9,1.8,1.5
			c0.5,0.6,0.8,1.4,1.1,2.3C567.3,71.6,567.5,72.6,567.5,73.6z M564.8,73.7c0-0.8,0-1.6-0.1-2.3c-0.1-0.7-0.3-1.3-0.5-1.7
			c-0.2-0.5-0.6-0.8-1-1.1s-0.9-0.4-1.5-0.4c-1.2,0-2,0.5-2.5,1.4c-0.5,0.9-0.7,2.2-0.7,3.8c0,0.9,0.1,1.7,0.2,2.4
			c0.1,0.7,0.3,1.3,0.6,1.7c0.3,0.5,0.6,0.8,1,1.1c0.4,0.2,0.9,0.4,1.5,0.4c0.5,0,1-0.1,1.4-0.3c0.4-0.2,0.7-0.5,1-0.9
			c0.3-0.4,0.5-1,0.6-1.6C564.8,75.5,564.8,74.7,564.8,73.7z"/>
		<path class="st2" d="M580.2,80.6h-2.5l-1.1-4.5c-0.1-0.4-0.2-0.7-0.2-1.2s-0.1-0.8-0.2-1.1c-0.1-0.4-0.1-0.7-0.1-0.9
			c0-0.2-0.1-0.4-0.1-0.5c0,0,0,0.2-0.1,0.4c0,0.3-0.1,0.6-0.2,0.9c-0.1,0.4-0.1,0.7-0.2,1.2c-0.1,0.4-0.2,0.8-0.2,1.1l-1,4.6h-2.6
			l-2.9-10.9h2.4l1.1,4.5c0.1,0.4,0.2,0.8,0.3,1.3s0.2,0.9,0.2,1.2s0.1,0.7,0.2,1c0,0.3,0.1,0.4,0.1,0.5c0,0,0-0.2,0.1-0.4
			c0-0.3,0.1-0.6,0.2-1c0.1-0.4,0.1-0.8,0.2-1.2c0.1-0.4,0.2-0.9,0.3-1.2l1.1-4.5h2.5l1.2,5c0.1,0.3,0.1,0.6,0.2,1
			c0.1,0.4,0.1,0.7,0.2,1.1c0.1,0.4,0.1,0.8,0.2,1.2c0.1-0.5,0.1-1,0.2-1.5c0.1-0.4,0.1-0.8,0.2-1.3c0.1-0.4,0.2-0.8,0.2-1.2
			l1.1-4.4h2.4L580.2,80.6z"/>
		<path class="st2" d="M590.9,80.5l-2.6-5c-0.1-0.3-0.3-0.6-0.5-0.9c-0.2-0.3-0.3-0.7-0.5-1c-0.2-0.4-0.3-0.7-0.5-1.1
			c0,0.4,0,0.8,0.1,1.2c0,0.3,0,0.7,0,1.1c0,0.4,0,0.7,0,1l0.1,4.7H585V69.7h2.5l2.7,4.9c0.1,0.2,0.3,0.5,0.4,0.8
			c0.1,0.3,0.3,0.6,0.4,0.8c0.1,0.3,0.2,0.5,0.3,0.7s0.1,0.3,0.2,0.4c0,0,0-0.1,0-0.4c0-0.2,0-0.5-0.1-0.8c0-0.3,0-0.6-0.1-1
			c0-0.3,0-0.6,0-0.9l0-4.6h2.1v10.8H590.9z"/>
		<path class="st2" d="M596.9,80.5V69.7h6.8l-0.3,1.8h-4.2V74h3.5v1.8h-3.5v2.9h4.7v1.9H596.9z"/>
		<path class="st2" d="M612.2,80.5l-1.1-1.7c-0.3-0.4-0.5-0.8-0.7-1.1c-0.2-0.3-0.3-0.5-0.5-0.7c-0.1-0.2-0.2-0.3-0.3-0.4
			s-0.2-0.2-0.3-0.3s-0.2-0.1-0.3-0.2s-0.3-0.1-0.4-0.1v4.5h-2.2V69.7h3.6c0.7,0,1.3,0.1,1.8,0.2c0.5,0.1,0.9,0.3,1.3,0.6
			c0.7,0.6,1.1,1.4,1.1,2.4c0,0.4-0.1,0.8-0.2,1.2c-0.1,0.4-0.3,0.7-0.5,0.9c-0.2,0.3-0.5,0.5-0.8,0.6c-0.3,0.2-0.7,0.3-1.1,0.3
			c0.1,0.1,0.3,0.3,0.5,0.5c0.2,0.2,0.4,0.5,0.6,0.9c0.3,0.3,0.5,0.7,0.8,1.1l1.5,2.2H612.2z M611.9,72.9c0-0.3-0.1-0.6-0.2-0.8
			s-0.3-0.3-0.5-0.5c-0.2-0.1-0.5-0.2-0.7-0.2c-0.3,0-0.5,0-0.8,0h-1.1v3h1c0.3,0,0.6,0,0.8,0c0.3,0,0.5-0.1,0.8-0.2
			s0.4-0.2,0.5-0.5S611.9,73.2,611.9,72.9z"/>
	</g>
	<rect x="504" y="132" class="st5" width="162" height="75"/>
	<rect x="504" y="132" class="st6" width="162" height="75"/>
	<g>
		<path class="st2" d="M527.4,166.5l-1.1-3.6h-4.5l-1.1,3.6h-2.4l4.5-13.9h2.7l4.4,13.9H527.4z M525.7,160.9c0-0.1-0.1-0.2-0.2-0.5
			c-0.1-0.3-0.2-0.6-0.3-1.1s-0.2-0.9-0.4-1.3c-0.1-0.5-0.3-0.9-0.4-1.4c-0.1-0.4-0.2-0.8-0.3-1.1c-0.1-0.3-0.1-0.5-0.1-0.6h0
			c-0.3,1-0.5,1.8-0.8,2.7c-0.1,0.3-0.2,0.7-0.3,1c-0.1,0.3-0.2,0.7-0.3,1c-0.1,0.3-0.2,0.6-0.2,0.8s-0.1,0.4-0.2,0.5H525.7z"/>
		<path class="st2" d="M540.1,162.7c0,0.4,0,0.8,0,1.1c0,0.3-0.1,0.5-0.2,0.8c-0.1,0.2-0.2,0.4-0.3,0.6c-0.1,0.2-0.3,0.3-0.4,0.5
			c-0.3,0.3-0.8,0.6-1.3,0.8c-0.5,0.2-1.2,0.3-2,0.3c-1,0-1.8-0.1-2.4-0.4s-1.1-0.7-1.4-1.1c-0.2-0.3-0.3-0.6-0.4-1
			c-0.1-0.3-0.1-0.8-0.1-1.3v-7.1h2.3v6.8c0,0.4,0,0.7,0,0.9c0,0.2,0.1,0.4,0.1,0.6c0.1,0.3,0.4,0.5,0.7,0.7
			c0.3,0.1,0.7,0.2,1.1,0.2c0.7,0,1.3-0.2,1.6-0.6c0.1-0.1,0.1-0.2,0.2-0.3c0.1-0.1,0.1-0.2,0.1-0.3c0-0.1,0.1-0.3,0.1-0.5
			c0-0.2,0-0.4,0-0.7v-6.9h2.3V162.7z"/>
		<path class="st2" d="M550.3,157.5h-2.9v9h-2.3v-9h-3v-1.8h8.6L550.3,157.5z"/>
		<path class="st2" d="M558.5,166.5v-4.8h-3.7v4.8h-2.3v-10.8h2.3v4.2h3.7v-4.2h2.3v10.8H558.5z"/>
		<path class="st2" d="M574.1,161.1c0,0.8-0.1,1.6-0.3,2.3c-0.2,0.7-0.5,1.3-0.9,1.8s-0.9,0.9-1.6,1.2c-0.6,0.3-1.4,0.4-2.3,0.4
			c-0.8,0-1.6-0.1-2.2-0.4s-1.2-0.6-1.6-1.1c-0.4-0.5-0.8-1.1-1-1.8s-0.3-1.4-0.3-2.2c0-1.8,0.5-3.1,1.4-4.1c0.9-1,2.2-1.5,3.8-1.5
			c0.9,0,1.6,0.1,2.2,0.4c0.6,0.3,1.2,0.7,1.6,1.2s0.8,1.1,1,1.8C574,159.5,574.1,160.2,574.1,161.1z M571.5,161.1
			c0-0.5,0-0.9-0.1-1.4c-0.1-0.5-0.2-0.9-0.3-1.3c-0.2-0.4-0.4-0.7-0.8-0.9s-0.8-0.3-1.4-0.3c-0.6,0-1,0.1-1.3,0.4
			c-0.3,0.2-0.6,0.5-0.8,0.9c-0.2,0.4-0.3,0.8-0.4,1.2c-0.1,0.5-0.1,0.9-0.1,1.3c0,0.5,0,1,0.1,1.5c0.1,0.5,0.2,0.9,0.4,1.3
			c0.2,0.4,0.4,0.7,0.8,0.9s0.8,0.3,1.4,0.3c0.6,0,1-0.1,1.4-0.4c0.3-0.2,0.6-0.5,0.8-0.9c0.2-0.4,0.3-0.8,0.3-1.3
			C571.5,162,571.5,161.6,571.5,161.1z"/>
		<path class="st2" d="M582.9,166.5l-1.1-1.7c-0.3-0.4-0.5-0.8-0.7-1.1c-0.2-0.3-0.3-0.5-0.5-0.7c-0.1-0.2-0.2-0.3-0.3-0.4
			s-0.2-0.2-0.3-0.3s-0.2-0.1-0.3-0.2s-0.3-0.1-0.4-0.1v4.5h-2.2v-10.8h3.6c0.7,0,1.3,0.1,1.8,0.2c0.5,0.1,0.9,0.3,1.3,0.6
			c0.7,0.6,1.1,1.4,1.1,2.4c0,0.4-0.1,0.8-0.2,1.2c-0.1,0.4-0.3,0.7-0.5,0.9c-0.2,0.3-0.5,0.5-0.8,0.6c-0.3,0.2-0.7,0.3-1.1,0.3
			c0.1,0.1,0.3,0.3,0.5,0.5c0.2,0.2,0.4,0.5,0.6,0.9c0.3,0.3,0.5,0.7,0.8,1.1l1.5,2.2H582.9z M582.6,158.9c0-0.3-0.1-0.6-0.2-0.8
			s-0.3-0.3-0.5-0.5c-0.2-0.1-0.5-0.2-0.7-0.2c-0.3,0-0.5,0-0.8,0h-1.1v3h1c0.3,0,0.6,0,0.8,0c0.3,0,0.5-0.1,0.8-0.2
			s0.4-0.2,0.5-0.5S582.6,159.2,582.6,158.9z"/>
		<path class="st2" d="M587.8,166.5v-10.8h2.3v10.8H587.8z"/>
		<path class="st2" d="M600.4,166.5H593v-1.6l4.6-6.6c0.1-0.1,0.1-0.2,0.2-0.3c0.1-0.1,0.2-0.2,0.2-0.3c0.1-0.1,0.2-0.2,0.3-0.3
			c-0.2,0-0.3,0-0.5,0c-0.1,0-0.3,0-0.4,0s-0.3,0-0.5,0h-3.8l0.6-1.8h7.1v1.6l-4.6,6.7c-0.1,0.1-0.1,0.2-0.2,0.3s-0.2,0.2-0.2,0.3
			c-0.1,0.1-0.2,0.2-0.3,0.3c0.2,0,0.3,0,0.5,0c0.1,0,0.3,0,0.4,0c0.1,0,0.3,0,0.4,0h4.2L600.4,166.5z"/>
		<path class="st2" d="M609.9,166.5l-0.9-2.6h-3.7l-0.9,2.6H602l4-10.9h2.5l3.8,10.9H609.9z M607.1,157.6l-1.4,4.6h2.7L607.1,157.6z
			"/>
		<path class="st2" d="M620.7,157.5h-2.9v9h-2.3v-9h-3v-1.8h8.6L620.7,157.5z"/>
		<path class="st2" d="M623,166.5v-10.8h2.3v10.8H623z"/>
		<path class="st2" d="M638.6,161.1c0,0.8-0.1,1.6-0.3,2.3c-0.2,0.7-0.5,1.3-0.9,1.8c-0.4,0.5-0.9,0.9-1.6,1.2s-1.4,0.4-2.3,0.4
			c-0.8,0-1.6-0.1-2.2-0.4s-1.2-0.6-1.6-1.1s-0.8-1.1-1-1.8c-0.2-0.7-0.3-1.4-0.3-2.2c0-1.8,0.5-3.1,1.4-4.1c0.9-1,2.2-1.5,3.8-1.5
			c0.9,0,1.6,0.1,2.2,0.4c0.6,0.3,1.2,0.7,1.6,1.2c0.4,0.5,0.8,1.1,1,1.8C638.5,159.5,638.6,160.2,638.6,161.1z M636,161.1
			c0-0.5,0-0.9-0.1-1.4c-0.1-0.5-0.2-0.9-0.3-1.3c-0.2-0.4-0.4-0.7-0.8-0.9c-0.4-0.2-0.8-0.3-1.4-0.3c-0.6,0-1,0.1-1.3,0.4
			c-0.3,0.2-0.6,0.5-0.8,0.9c-0.2,0.4-0.3,0.8-0.3,1.2c-0.1,0.5-0.1,0.9-0.1,1.3c0,0.5,0,1,0.1,1.5s0.2,0.9,0.3,1.3
			c0.2,0.4,0.4,0.7,0.8,0.9s0.8,0.3,1.4,0.3c0.6,0,1-0.1,1.4-0.4c0.3-0.2,0.6-0.5,0.8-0.9c0.2-0.4,0.3-0.8,0.3-1.3
			S636,161.6,636,161.1z"/>
		<path class="st2" d="M647.6,166.5l-2.6-5c-0.1-0.3-0.3-0.6-0.5-0.9s-0.3-0.7-0.5-1c-0.2-0.4-0.3-0.7-0.5-1.1c0,0.4,0,0.8,0.1,1.2
			c0,0.3,0,0.7,0,1.1c0,0.4,0,0.7,0,1l0.1,4.7h-2.2v-10.8h2.5l2.7,4.9c0.1,0.2,0.3,0.5,0.4,0.8c0.1,0.3,0.3,0.6,0.4,0.8
			c0.1,0.3,0.2,0.5,0.3,0.7s0.1,0.3,0.2,0.4c0,0,0-0.1,0-0.4c0-0.2-0.1-0.5-0.1-0.8c0-0.3,0-0.6-0.1-1c0-0.3,0-0.6,0-0.9l0-4.6h2.1
			v10.8H647.6z"/>
	</g>
	<g>
		<path class="st2" d="M564.7,184.3c0,0.6-0.1,1.1-0.3,1.7c-0.2,0.5-0.6,1-1,1.4c-0.5,0.4-1,0.7-1.7,1c-0.7,0.2-1.4,0.4-2.3,0.4
			c-0.8,0-1.6-0.1-2.4-0.3c-0.8-0.2-1.5-0.5-2.2-0.9l0.9-1.8c0.6,0.4,1.2,0.6,1.8,0.8c0.6,0.2,1.2,0.3,1.9,0.3c0.9,0,1.5-0.2,2-0.6
			c0.5-0.4,0.7-0.9,0.7-1.6c0-0.5-0.2-0.9-0.5-1.3c-0.3-0.3-0.8-0.6-1.6-0.8l-1.5-0.4c-0.6-0.2-1.2-0.4-1.6-0.7
			c-0.4-0.3-0.8-0.6-1.1-1c-0.4-0.6-0.6-1.2-0.6-2c0-0.6,0.1-1.2,0.3-1.7s0.5-0.9,1-1.3c0.4-0.4,0.9-0.6,1.5-0.8
			c0.6-0.2,1.2-0.3,1.9-0.3c0.8,0,1.6,0.1,2.3,0.3s1.4,0.6,2,1l-1,1.6c-0.6-0.4-1.2-0.6-1.7-0.8c-0.5-0.2-1-0.2-1.6-0.2
			c-0.7,0-1.2,0.2-1.6,0.5c-0.4,0.3-0.6,0.8-0.6,1.4c0,0.4,0.1,0.8,0.4,1c0.3,0.3,0.8,0.5,1.4,0.7l1.6,0.5c1,0.3,1.8,0.8,2.5,1.4
			S564.7,183.3,564.7,184.3z"/>
		<path class="st2" d="M567.6,188.5v-10.8h6.8l-0.3,1.8h-4.2v2.5h3.5v1.8h-3.5v2.9h4.7v1.9H567.6z"/>
		<path class="st2" d="M583,188.5l-1.1-1.7c-0.3-0.4-0.5-0.8-0.7-1.1c-0.2-0.3-0.3-0.5-0.5-0.7c-0.1-0.2-0.2-0.3-0.3-0.4
			c-0.1-0.1-0.2-0.2-0.3-0.3s-0.2-0.1-0.3-0.2c-0.1,0-0.3-0.1-0.4-0.1v4.5h-2.2v-10.8h3.6c0.7,0,1.3,0.1,1.8,0.2
			c0.5,0.1,0.9,0.3,1.3,0.6c0.7,0.6,1.1,1.4,1.1,2.4c0,0.4-0.1,0.8-0.2,1.2c-0.1,0.4-0.3,0.7-0.5,0.9c-0.2,0.3-0.5,0.5-0.8,0.6
			c-0.3,0.2-0.7,0.3-1.1,0.3c0.1,0.1,0.3,0.3,0.5,0.5c0.2,0.2,0.4,0.5,0.7,0.9s0.5,0.7,0.8,1.1l1.5,2.2H583z M582.6,180.9
			c0-0.3-0.1-0.6-0.2-0.8s-0.3-0.3-0.5-0.5c-0.2-0.1-0.5-0.2-0.7-0.2c-0.3,0-0.5,0-0.8,0h-1.1v3h1c0.3,0,0.6,0,0.8,0
			c0.3,0,0.5-0.1,0.8-0.2s0.4-0.2,0.5-0.5S582.6,181.2,582.6,180.9z"/>
		<path class="st2" d="M592,188.6h-2l-4.1-10.9h2.5l2,5.6c0.1,0.2,0.2,0.5,0.2,0.8c0.1,0.3,0.2,0.6,0.2,0.8c0.1,0.3,0.2,0.6,0.2,0.9
			c0.1-0.3,0.1-0.6,0.2-0.9c0.1-0.3,0.1-0.5,0.2-0.8c0.1-0.3,0.2-0.5,0.3-0.8l2.1-5.6h2.3L592,188.6z"/>
		<path class="st2" d="M597.9,188.5v-10.8h6.8l-0.3,1.8h-4.2v2.5h3.5v1.8h-3.5v2.9h4.7v1.9H597.9z"/>
		<path class="st2" d="M613.2,188.5l-1.1-1.7c-0.3-0.4-0.5-0.8-0.7-1.1c-0.2-0.3-0.3-0.5-0.5-0.7c-0.1-0.2-0.2-0.3-0.3-0.4
			s-0.2-0.2-0.3-0.3s-0.2-0.1-0.3-0.2s-0.3-0.1-0.4-0.1v4.5h-2.2v-10.8h3.6c0.7,0,1.3,0.1,1.8,0.2c0.5,0.1,0.9,0.3,1.3,0.6
			c0.7,0.6,1.1,1.4,1.1,2.4c0,0.4-0.1,0.8-0.2,1.2c-0.1,0.4-0.3,0.7-0.5,0.9c-0.2,0.3-0.5,0.5-0.8,0.6c-0.3,0.2-0.7,0.3-1.1,0.3
			c0.1,0.1,0.3,0.3,0.5,0.5c0.2,0.2,0.4,0.5,0.6,0.9c0.3,0.3,0.5,0.7,0.8,1.1l1.5,2.2H613.2z M612.9,180.9c0-0.3-0.1-0.6-0.2-0.8
			s-0.3-0.3-0.5-0.5c-0.2-0.1-0.5-0.2-0.7-0.2c-0.3,0-0.5,0-0.8,0h-1.1v3h1c0.3,0,0.6,0,0.8,0c0.3,0,0.5-0.1,0.8-0.2
			s0.4-0.2,0.5-0.5S612.9,181.2,612.9,180.9z"/>
	</g>
	<rect x="504" y="240" class="st5" width="162" height="75"/>
	<rect x="504" y="240" class="st6" width="162" height="75"/>
	<g>
		<path class="st2" d="M549.8,274.5l-1.2-2.1c-0.5-0.9-0.9-1.5-1.3-2.1c-0.4-0.5-0.7-1-1.1-1.4c-0.1-0.1-0.3-0.2-0.4-0.3
			c-0.1-0.1-0.3-0.1-0.5-0.1v6h-2.3v-13.8h4.2c0.8,0,1.4,0.1,2,0.3c0.6,0.2,1,0.5,1.4,0.9c0.4,0.4,0.6,0.8,0.8,1.3
			c0.2,0.5,0.3,1,0.3,1.5c0,0.5-0.1,1-0.2,1.4c-0.2,0.5-0.4,0.9-0.7,1.2s-0.7,0.6-1.1,0.8c-0.4,0.2-0.9,0.3-1.4,0.3
			c0.1,0.1,0.3,0.2,0.4,0.4c0.2,0.2,0.4,0.4,0.5,0.7c0.2,0.3,0.4,0.5,0.6,0.8s0.4,0.6,0.6,0.9l2,3.3H549.8z M549.4,264.6
			c0-0.7-0.2-1.2-0.6-1.6c-0.4-0.4-1.1-0.5-2.2-0.5h-1.3v4.4h1.2c0.6,0,1.1,0,1.4-0.1c0.3-0.1,0.6-0.2,0.8-0.4
			c0.2-0.2,0.3-0.4,0.5-0.7C549.3,265.3,549.4,265,549.4,264.6z"/>
		<path class="st2" d="M554.9,274.5v-10.8h6.8l-0.3,1.8h-4.2v2.5h3.5v1.8h-3.5v2.9h4.7v1.9H554.9z"/>
		<path class="st2" d="M572.3,271.1c0,0.7-0.1,1.2-0.4,1.7s-0.7,0.8-1.1,1.1c-0.5,0.3-1,0.5-1.6,0.6c-0.6,0.1-1.1,0.2-1.7,0.2
			c-0.7,0-1.4-0.1-2-0.2s-1.3-0.4-2-0.7l0.8-1.7c0.6,0.3,1.1,0.5,1.6,0.6c0.5,0.1,1.1,0.2,1.7,0.2c0.2,0,0.5,0,0.7-0.1
			c0.3,0,0.5-0.1,0.7-0.2c0.2-0.1,0.4-0.2,0.5-0.4c0.1-0.2,0.2-0.4,0.2-0.7c0-0.3-0.1-0.6-0.4-0.9c-0.3-0.2-0.7-0.4-1.3-0.6
			l-1.4-0.4c-0.8-0.2-1.4-0.5-1.9-1c-0.5-0.5-0.8-1.2-0.8-2c0-0.5,0.1-0.9,0.3-1.3c0.2-0.4,0.5-0.8,0.9-1c0.4-0.3,0.8-0.5,1.3-0.7
			s1.1-0.2,1.7-0.2c0.7,0,1.4,0.1,2.2,0.3c0.7,0.2,1.3,0.5,1.8,0.8l-1.1,1.6c-1-0.6-1.9-0.8-2.9-0.8c-0.5,0-1,0.1-1.3,0.3
			c-0.3,0.2-0.5,0.5-0.5,0.9c0,0.3,0.1,0.6,0.3,0.7c0.2,0.2,0.6,0.3,1.1,0.5l1.4,0.4c0.4,0.1,0.8,0.2,1.2,0.4c0.4,0.2,0.7,0.4,1,0.6
			c0.3,0.2,0.5,0.5,0.7,0.9S572.3,270.7,572.3,271.1z"/>
		<path class="st2" d="M584.9,269.1c0,0.8-0.1,1.6-0.3,2.3c-0.2,0.7-0.5,1.3-0.9,1.8s-0.9,0.9-1.6,1.2c-0.6,0.3-1.4,0.4-2.3,0.4
			c-0.8,0-1.6-0.1-2.2-0.4s-1.2-0.6-1.6-1.1c-0.4-0.5-0.8-1.1-1-1.8s-0.3-1.4-0.3-2.2c0-1.8,0.5-3.1,1.4-4.1c0.9-1,2.2-1.5,3.8-1.5
			c0.9,0,1.6,0.1,2.2,0.4c0.6,0.3,1.2,0.7,1.6,1.2s0.8,1.1,1,1.8C584.8,267.5,584.9,268.2,584.9,269.1z M582.3,269.1
			c0-0.5,0-0.9-0.1-1.4c-0.1-0.5-0.2-0.9-0.3-1.3c-0.2-0.4-0.4-0.7-0.8-0.9s-0.8-0.3-1.4-0.3c-0.6,0-1,0.1-1.3,0.4
			c-0.3,0.2-0.6,0.5-0.8,0.9c-0.2,0.4-0.3,0.8-0.4,1.2c-0.1,0.5-0.1,0.9-0.1,1.3c0,0.5,0,1,0.1,1.5c0.1,0.5,0.2,0.9,0.4,1.3
			c0.2,0.4,0.4,0.7,0.8,0.9s0.8,0.3,1.4,0.3c0.6,0,1-0.1,1.4-0.4c0.3-0.2,0.6-0.5,0.8-0.9c0.2-0.4,0.3-0.8,0.3-1.3
			C582.3,270,582.3,269.6,582.3,269.1z"/>
		<path class="st2" d="M596.3,270.7c0,0.4,0,0.8-0.1,1.1c0,0.3-0.1,0.5-0.2,0.8c-0.1,0.2-0.2,0.4-0.3,0.6c-0.1,0.2-0.3,0.3-0.4,0.5
			c-0.3,0.3-0.8,0.6-1.3,0.8c-0.5,0.2-1.2,0.3-2,0.3c-1,0-1.8-0.1-2.4-0.4c-0.6-0.3-1.1-0.7-1.4-1.1c-0.2-0.3-0.3-0.6-0.4-1
			c-0.1-0.3-0.1-0.8-0.1-1.3v-7.1h2.3v6.8c0,0.4,0,0.7,0,0.9c0,0.2,0.1,0.4,0.1,0.6c0.1,0.3,0.4,0.5,0.7,0.7
			c0.3,0.1,0.7,0.2,1.1,0.2c0.7,0,1.3-0.2,1.6-0.6c0.1-0.1,0.1-0.2,0.2-0.3c0.1-0.1,0.1-0.2,0.1-0.3c0-0.1,0.1-0.3,0.1-0.5
			c0-0.2,0-0.4,0-0.7v-6.9h2.3V270.7z"/>
		<path class="st2" d="M605.7,274.5l-1.1-1.7c-0.3-0.4-0.5-0.8-0.7-1.1c-0.2-0.3-0.3-0.5-0.5-0.7c-0.1-0.2-0.2-0.3-0.3-0.4
			s-0.2-0.2-0.3-0.3s-0.2-0.1-0.3-0.2s-0.3-0.1-0.4-0.1v4.5h-2.2v-10.8h3.6c0.7,0,1.3,0.1,1.8,0.2c0.5,0.1,0.9,0.3,1.3,0.6
			c0.7,0.6,1.1,1.4,1.1,2.4c0,0.4-0.1,0.8-0.2,1.2c-0.1,0.4-0.3,0.7-0.5,0.9c-0.2,0.3-0.5,0.5-0.8,0.6c-0.3,0.2-0.7,0.3-1.1,0.3
			c0.1,0.1,0.3,0.3,0.5,0.5c0.2,0.2,0.4,0.5,0.6,0.9c0.3,0.3,0.5,0.7,0.8,1.1l1.5,2.2H605.7z M605.4,266.9c0-0.3-0.1-0.6-0.2-0.8
			s-0.3-0.3-0.5-0.5c-0.2-0.1-0.5-0.2-0.7-0.2c-0.3,0-0.5,0-0.8,0H602v3h1c0.3,0,0.6,0,0.8,0c0.3,0,0.5-0.1,0.8-0.2s0.4-0.2,0.5-0.5
			S605.4,267.2,605.4,266.9z"/>
		<path class="st2" d="M618.7,273.7c-0.9,0.7-2,1-3.3,1c-0.8,0-1.4-0.1-2.1-0.3s-1.2-0.5-1.6-1c-1.1-1-1.6-2.4-1.6-4.1
			c0-1.3,0.3-2.5,0.9-3.4c0.5-0.7,1.1-1.3,1.9-1.8c0.8-0.4,1.7-0.6,2.6-0.6c0.6,0,1.1,0.1,1.7,0.2c0.6,0.2,1,0.4,1.4,0.6l-1.1,1.5
			c-0.6-0.4-1.3-0.6-1.9-0.6c-0.5,0-0.9,0.1-1.3,0.3c-0.4,0.2-0.7,0.5-1,0.8c-0.4,0.6-0.6,1.5-0.6,2.6c0,0.8,0,1.4,0.1,1.8
			c0.1,0.4,0.3,0.8,0.6,1.2c0.6,0.7,1.3,1,2.3,1c0.4,0,0.7,0,1.1-0.2c0.3-0.1,0.7-0.3,1-0.5L618.7,273.7z"/>
		<path class="st2" d="M621.1,274.5v-10.8h6.8l-0.3,1.8h-4.2v2.5h3.5v1.8h-3.5v2.9h4.7v1.9H621.1z"/>
	</g>
	<g>
		<path class="st2" d="M564.7,292.3c0,0.6-0.1,1.1-0.3,1.7c-0.2,0.5-0.6,1-1,1.4c-0.5,0.4-1,0.7-1.7,1c-0.7,0.2-1.4,0.4-2.3,0.4
			c-0.8,0-1.6-0.1-2.4-0.3c-0.8-0.2-1.5-0.5-2.2-0.9l0.9-1.8c0.6,0.4,1.2,0.6,1.8,0.8c0.6,0.2,1.2,0.3,1.9,0.3c0.9,0,1.5-0.2,2-0.6
			c0.5-0.4,0.7-0.9,0.7-1.6c0-0.5-0.2-0.9-0.5-1.3c-0.3-0.3-0.8-0.6-1.6-0.8l-1.5-0.4c-0.6-0.2-1.2-0.4-1.6-0.7
			c-0.4-0.3-0.8-0.6-1.1-1c-0.4-0.6-0.6-1.2-0.6-2c0-0.6,0.1-1.2,0.3-1.7s0.5-0.9,1-1.3c0.4-0.4,0.9-0.6,1.5-0.8
			c0.6-0.2,1.2-0.3,1.9-0.3c0.8,0,1.6,0.1,2.3,0.3s1.4,0.6,2,1l-1,1.6c-0.6-0.4-1.2-0.6-1.7-0.8c-0.5-0.2-1-0.2-1.6-0.2
			c-0.7,0-1.2,0.2-1.6,0.5c-0.4,0.3-0.6,0.8-0.6,1.4c0,0.4,0.1,0.8,0.4,1c0.3,0.3,0.8,0.5,1.4,0.7l1.6,0.5c1,0.3,1.8,0.8,2.5,1.4
			S564.7,291.3,564.7,292.3z"/>
		<path class="st2" d="M567.6,296.5v-10.8h6.8l-0.3,1.8h-4.2v2.5h3.5v1.8h-3.5v2.9h4.7v1.9H567.6z"/>
		<path class="st2" d="M583,296.5l-1.1-1.7c-0.3-0.4-0.5-0.8-0.7-1.1c-0.2-0.3-0.3-0.5-0.5-0.7c-0.1-0.2-0.2-0.3-0.3-0.4
			c-0.1-0.1-0.2-0.2-0.3-0.3s-0.2-0.1-0.3-0.2c-0.1,0-0.3-0.1-0.4-0.1v4.5h-2.2v-10.8h3.6c0.7,0,1.3,0.1,1.8,0.2
			c0.5,0.1,0.9,0.3,1.3,0.6c0.7,0.6,1.1,1.4,1.1,2.4c0,0.4-0.1,0.8-0.2,1.2c-0.1,0.4-0.3,0.7-0.5,0.9c-0.2,0.3-0.5,0.5-0.8,0.6
			c-0.3,0.2-0.7,0.3-1.1,0.3c0.1,0.1,0.3,0.3,0.5,0.5c0.2,0.2,0.4,0.5,0.7,0.9s0.5,0.7,0.8,1.1l1.5,2.2H583z M582.6,288.9
			c0-0.3-0.1-0.6-0.2-0.8s-0.3-0.3-0.5-0.5c-0.2-0.1-0.5-0.2-0.7-0.2c-0.3,0-0.5,0-0.8,0h-1.1v3h1c0.3,0,0.6,0,0.8,0
			c0.3,0,0.5-0.1,0.8-0.2s0.4-0.2,0.5-0.5S582.6,289.2,582.6,288.9z"/>
		<path class="st2" d="M592,296.6h-2l-4.1-10.9h2.5l2,5.6c0.1,0.2,0.2,0.5,0.2,0.8c0.1,0.3,0.2,0.6,0.2,0.8c0.1,0.3,0.2,0.6,0.2,0.9
			c0.1-0.3,0.1-0.6,0.2-0.9c0.1-0.3,0.1-0.5,0.2-0.8c0.1-0.3,0.2-0.5,0.3-0.8l2.1-5.6h2.3L592,296.6z"/>
		<path class="st2" d="M597.9,296.5v-10.8h6.8l-0.3,1.8h-4.2v2.5h3.5v1.8h-3.5v2.9h4.7v1.9H597.9z"/>
		<path class="st2" d="M613.2,296.5l-1.1-1.7c-0.3-0.4-0.5-0.8-0.7-1.1c-0.2-0.3-0.3-0.5-0.5-0.7c-0.1-0.2-0.2-0.3-0.3-0.4
			s-0.2-0.2-0.3-0.3s-0.2-0.1-0.3-0.2s-0.3-0.1-0.4-0.1v4.5h-2.2v-10.8h3.6c0.7,0,1.3,0.1,1.8,0.2c0.5,0.1,0.9,0.3,1.3,0.6
			c0.7,0.6,1.1,1.4,1.1,2.4c0,0.4-0.1,0.8-0.2,1.2c-0.1,0.4-0.3,0.7-0.5,0.9c-0.2,0.3-0.5,0.5-0.8,0.6c-0.3,0.2-0.7,0.3-1.1,0.3
			c0.1,0.1,0.3,0.3,0.5,0.5c0.2,0.2,0.4,0.5,0.6,0.9c0.3,0.3,0.5,0.7,0.8,1.1l1.5,2.2H613.2z M612.9,288.9c0-0.3-0.1-0.6-0.2-0.8
			s-0.3-0.3-0.5-0.5c-0.2-0.1-0.5-0.2-0.7-0.2c-0.3,0-0.5,0-0.8,0h-1.1v3h1c0.3,0,0.6,0,0.8,0c0.3,0,0.5-0.1,0.8-0.2
			s0.4-0.2,0.5-0.5S612.9,289.2,612.9,288.9z"/>
	</g>
	<line class="st4" x1="171" y1="45" x2="482.1" y2="45"/>
	<polygon class="st3" points="491.7,45 482.1,41.4 482.1,48.6 	"/>
	<polygon class="st7" points="491.7,45 482.1,41.4 482.1,48.6 	"/>
	<line class="st4" x1="495" y1="81" x2="183.9" y2="81"/>
	<polygon class="st3" points="174.3,81 183.9,84.6 183.9,77.4 	"/>
	<polygon class="st7" points="174.3,81 183.9,84.6 183.9,77.4 	"/>
	<g>
		<path class="st3" d="M262.5,36.2h-1.6l-1.1-3.6h-4.3l-1.1,3.6h-1.4l3.9-11.7h1.8L262.5,36.2z M259.4,31.5l-1.8-5.7l-0.6,1.7
			c-0.1,0.5-0.6,1.8-1.3,4H259.4z"/>
		<path class="st3" d="M270.9,35.7l-0.9,0.9c-0.5-0.4-0.8-0.9-0.9-1.4c-0.6,0.9-1.5,1.3-2.7,1.3c-1.6,0-2.4-0.8-2.4-2.5v-6.2
			l1.3-0.3v6.1c0,1.1,0.5,1.7,1.5,1.7c0.4,0,0.9-0.2,1.3-0.5c0.4-0.3,0.7-0.6,0.9-1.1v-6l1.3-0.2v6c0,0.8,0.1,1.3,0.2,1.6
			C270.6,35.4,270.7,35.5,270.9,35.7z"/>
		<path class="st3" d="M276.7,27.7l-0.4,1h-1.8v5.4c0,0.4,0.1,0.8,0.2,0.9c0.2,0.2,0.5,0.3,0.9,0.3c0.3,0,0.6-0.1,0.9-0.2l0.2,0.8
			c-0.4,0.2-0.9,0.3-1.5,0.3c-1.3,0-1.9-0.6-1.9-1.9v-5.8h-1.1v-1h1.1v-0.1c0-0.1,0-0.7,0.1-1.8l0-0.2l1.4-0.3
			c-0.1,0.9-0.2,1.7-0.2,2.4H276.7z"/>
		<path class="st3" d="M284.9,36.2h-1.3v-5.8c0-0.5-0.1-0.9-0.3-1.2c-0.2-0.3-0.6-0.4-1.1-0.4c-0.9,0-1.7,0.5-2.5,1.4v6h-1.3V25.8
			c0-0.6-0.1-1.2-0.2-1.7l1.3-0.3c0.1,0.5,0.2,1.2,0.2,2v2c0,0.3,0,0.7-0.1,1.2c0.2-0.2,0.5-0.4,0.9-0.7c0.7-0.4,1.3-0.7,2-0.7
			c0.6,0,1.1,0.1,1.5,0.4c0.4,0.3,0.7,0.7,0.8,1.3c0,0.2,0.1,0.5,0.1,0.8V36.2z"/>
		<path class="st3" d="M294.5,32.2c0,1.6-0.4,2.7-1.3,3.5c-0.6,0.5-1.4,0.8-2.3,0.8c-1.2,0-2.2-0.5-2.8-1.4
			c-0.6-0.8-0.9-1.8-0.9-3.1c0-1.3,0.3-2.3,0.8-3.1c0.6-0.9,1.6-1.4,2.8-1.4c1.3,0,2.2,0.5,2.9,1.4
			C294.3,29.8,294.5,30.9,294.5,32.2z M293,32.3c0-1.1-0.1-1.9-0.3-2.4c-0.3-0.8-1-1.2-1.9-1.2c-0.9,0-1.4,0.3-1.8,1
			c-0.2,0.5-0.4,1.2-0.4,2.1c0,1.1,0.1,1.9,0.3,2.4c0.4,0.8,1,1.2,1.9,1.2C292.3,35.4,293,34.4,293,32.3z"/>
		<path class="st3" d="M301.2,27.6l-0.5,1.4c-0.1,0-0.3,0-0.4,0c-0.3,0-0.7,0.1-1,0.3c-0.3,0.2-0.6,0.4-0.7,0.7
			c-0.1,0.2-0.2,0.5-0.2,0.9v5.3H297v-6.5c0-0.8-0.1-1.4-0.3-1.9l1.3-0.4c0.2,0.4,0.3,0.8,0.3,1.3v0.1c0.7-0.9,1.5-1.4,2.4-1.4
			C300.9,27.5,301,27.6,301.2,27.6z"/>
		<path class="st3" d="M304.2,25.1c0,0.3-0.1,0.5-0.3,0.7c-0.2,0.2-0.4,0.3-0.7,0.3c-0.3,0-0.5-0.1-0.7-0.3s-0.3-0.4-0.3-0.7
			c0-0.3,0.1-0.5,0.3-0.7c0.2-0.2,0.4-0.3,0.7-0.3c0.3,0,0.5,0.1,0.7,0.3C304.1,24.6,304.2,24.9,304.2,25.1z M303.8,36.2h-1.4v-8.4
			l1.4-0.2V36.2z"/>
		<path class="st3" d="M312.1,35.2l-0.6,1h-5.6v-1l4.6-6.4h-4.3v-1.1h5.6v1.1l-4.4,6.3H312.1z"/>
		<path class="st3" d="M320.3,35.6l-0.7,1c-0.6-0.2-1-0.6-1.2-1.2c-0.8,0.8-1.6,1.1-2.4,1.1c-0.8,0-1.5-0.2-1.9-0.6
			c-0.5-0.4-0.8-1-0.8-1.8c0-1.1,0.5-1.9,1.5-2.4c0.8-0.4,1.8-0.6,3-0.6c0.2,0,0.4,0,0.6,0v-0.6c0-0.7-0.1-1.1-0.3-1.3
			c-0.3-0.3-0.7-0.5-1.1-0.5c-1,0-1.9,0.3-2.7,1l-0.7-1c1.1-0.8,2.3-1.1,3.6-1.1c1.2,0,2,0.4,2.3,1.3c0.1,0.3,0.2,0.8,0.2,1.4v0.4
			l-0.1,2.8c0,0.1,0,0.2,0,0.4c0,0.5,0,0.8,0.1,1C319.8,35.2,320,35.4,320.3,35.6z M318.4,31.9c-0.4,0-0.6,0-0.7,0
			c-2,0-2.9,0.7-2.9,2c0,1,0.5,1.5,1.5,1.5c0.9,0,1.6-0.4,2.1-1.3L318.4,31.9z"/>
		<path class="st3" d="M326.1,27.7l-0.4,1h-1.8v5.4c0,0.4,0.1,0.8,0.2,0.9c0.2,0.2,0.5,0.3,0.9,0.3c0.3,0,0.6-0.1,0.9-0.2l0.2,0.8
			c-0.4,0.2-0.9,0.3-1.5,0.3c-1.3,0-1.9-0.6-1.9-1.9v-5.8h-1.1v-1h1.1v-0.1c0-0.1,0-0.7,0.1-1.8l0-0.2l1.4-0.3
			c-0.1,0.9-0.2,1.7-0.2,2.4H326.1z"/>
		<path class="st3" d="M329.7,25.1c0,0.3-0.1,0.5-0.3,0.7c-0.2,0.2-0.4,0.3-0.7,0.3c-0.3,0-0.5-0.1-0.7-0.3s-0.3-0.4-0.3-0.7
			c0-0.3,0.1-0.5,0.3-0.7c0.2-0.2,0.4-0.3,0.7-0.3c0.3,0,0.5,0.1,0.7,0.3C329.6,24.6,329.7,24.9,329.7,25.1z M329.3,36.2h-1.4v-8.4
			l1.4-0.2V36.2z"/>
		<path class="st3" d="M339.1,32.2c0,1.6-0.4,2.7-1.3,3.5c-0.6,0.5-1.4,0.8-2.3,0.8c-1.2,0-2.2-0.5-2.8-1.4
			c-0.6-0.8-0.9-1.8-0.9-3.1c0-1.3,0.3-2.3,0.8-3.1c0.6-0.9,1.6-1.4,2.8-1.4c1.3,0,2.2,0.5,2.9,1.4
			C338.8,29.8,339.1,30.9,339.1,32.2z M337.6,32.3c0-1.1-0.1-1.9-0.3-2.4c-0.3-0.8-1-1.2-1.9-1.2c-0.9,0-1.4,0.3-1.8,1
			c-0.2,0.5-0.4,1.2-0.4,2.1c0,1.1,0.1,1.9,0.3,2.4c0.4,0.8,1,1.2,1.9,1.2C336.9,35.4,337.6,34.4,337.6,32.3z"/>
		<path class="st3" d="M347.8,36.2h-1.3v-5.8c0-0.6-0.1-1-0.2-1.2c-0.2-0.4-0.5-0.5-1-0.5c-0.4,0-0.8,0.1-1.3,0.4
			c-0.4,0.2-0.8,0.5-1.1,0.8v6.3h-1.3v-6.3c0-0.9-0.1-1.5-0.3-2l1.3-0.4c0.2,0.4,0.3,0.9,0.3,1.3c0.9-0.9,1.8-1.3,2.7-1.3
			c0.4,0,0.9,0.1,1.2,0.3s0.7,0.5,0.8,0.9c0.1,0.3,0.2,0.6,0.2,1V36.2z"/>
		<path class="st3" d="M363.8,36.2h-1.8c-0.6-1.3-1.6-2.8-3-4.5c-0.4-0.5-0.8-0.7-1.3-0.7v5.3h-1.4V24.6h2.7c1.3,0,2.3,0.2,2.9,0.7
			c0.8,0.6,1.2,1.4,1.2,2.4c0,1-0.3,1.7-0.8,2.3c-0.6,0.6-1.3,0.9-2.3,0.9H360c0.4,0.3,0.8,0.7,1.2,1.3c0.1,0.2,0.5,0.7,1,1.4
			C362.4,34.1,363,34.9,363.8,36.2z M361.8,27.8c0-0.4-0.1-0.7-0.3-1.1s-0.5-0.6-0.8-0.7c-0.4-0.2-0.9-0.2-1.5-0.2h-1.4v4.4h1.3
			c0.9,0,1.6-0.2,2-0.5C361.5,29.2,361.8,28.6,361.8,27.8z"/>
		<path class="st3" d="M372.2,32.2h-5.3v0.2c0,0.8,0.1,1.5,0.4,1.9c0.5,0.7,1.2,1,2.1,1c0.8,0,1.5-0.3,2.1-0.8l0.5,0.8
			c-0.8,0.7-1.7,1.1-2.9,1.1c-1.3,0-2.2-0.4-2.9-1.3c-0.6-0.8-0.9-1.9-0.9-3.2c0-1.2,0.3-2.2,0.9-3c0.7-0.9,1.6-1.4,2.7-1.4
			c0.9,0,1.7,0.3,2.3,0.9c0.4,0.4,0.7,1,0.8,1.7c0.1,0.4,0.1,1.1,0.1,1.9V32.2z M370.8,31.2c0-0.8-0.1-1.4-0.4-1.8
			c-0.3-0.5-0.8-0.8-1.6-0.8c-1.2,0-1.9,0.9-2,2.6H370.8z"/>
		<path class="st3" d="M381.3,27.7c-0.2,0.3-0.3,1.1-0.3,2.3v9.3l-1.3,0.3v-4.4c-0.6,0.7-1.4,1.1-2.4,1.1c-0.7,0-1.4-0.2-1.9-0.7
			c-0.9-0.8-1.4-1.9-1.4-3.5c0-1.5,0.3-2.7,0.8-3.4c0.7-0.9,1.5-1.4,2.5-1.4c0.9,0,1.7,0.4,2.4,1.2c0-0.4,0.1-0.7,0.2-1H381.3z
			 M379.8,33.9v-4c-0.2-0.4-0.5-0.7-0.9-0.9c-0.4-0.2-0.8-0.3-1.2-0.3c-1.4,0-2.1,1.1-2.1,3.2c0,2.2,0.7,3.3,2.2,3.3
			C378.6,35.2,379.3,34.8,379.8,33.9z"/>
		<path class="st3" d="M390.8,35.7l-0.8,0.9c-0.5-0.4-0.8-0.9-0.9-1.4c-0.6,0.9-1.5,1.3-2.7,1.3c-1.6,0-2.4-0.8-2.4-2.5v-6.2
			l1.3-0.3v6.1c0,1.1,0.5,1.7,1.5,1.7c0.4,0,0.9-0.2,1.3-0.5c0.4-0.3,0.7-0.6,0.9-1.1v-6l1.3-0.2v6c0,0.8,0.1,1.3,0.2,1.6
			C390.5,35.4,390.7,35.5,390.8,35.7z"/>
		<path class="st3" d="M399.2,32.2H394v0.2c0,0.8,0.1,1.5,0.4,1.9c0.5,0.7,1.2,1,2.1,1c0.8,0,1.5-0.3,2.1-0.8l0.5,0.8
			c-0.8,0.7-1.7,1.1-2.9,1.1c-1.3,0-2.2-0.4-2.9-1.3c-0.6-0.8-0.9-1.9-0.9-3.2c0-1.2,0.3-2.2,0.9-3c0.7-0.9,1.6-1.4,2.7-1.4
			c0.9,0,1.7,0.3,2.3,0.9c0.4,0.4,0.7,1,0.8,1.7c0.1,0.4,0.1,1.1,0.1,1.9V32.2z M397.8,31.2c0-0.8-0.1-1.4-0.4-1.8
			c-0.3-0.5-0.8-0.8-1.6-0.8c-1.2,0-1.9,0.9-2,2.6H397.8z"/>
		<path class="st3" d="M406.9,33.7c0,0.9-0.3,1.6-1,2.1c-0.6,0.5-1.3,0.7-2.2,0.7c-1.1,0-2.2-0.3-3.1-0.9l0.5-1
			c0.9,0.5,1.8,0.8,2.7,0.8c0.5,0,0.9-0.1,1.2-0.4c0.3-0.2,0.5-0.6,0.5-1.1c0-0.7-0.5-1.2-1.4-1.4l-1.1-0.2
			c-1.4-0.3-2.1-1.1-2.1-2.3c0-0.8,0.3-1.5,0.9-1.9c0.6-0.4,1.3-0.7,2.1-0.7c0.9,0,1.8,0.2,2.6,0.7l-0.5,1c-0.9-0.4-1.6-0.6-2.1-0.6
			c-0.5,0-0.8,0.1-1.1,0.3c-0.3,0.3-0.5,0.6-0.5,1.1c0,0.6,0.4,1.1,1.2,1.2l1.1,0.2C406.2,31.7,406.9,32.4,406.9,33.7z"/>
		<path class="st3" d="M412.7,27.7l-0.4,1h-1.8v5.4c0,0.4,0.1,0.8,0.2,0.9c0.2,0.2,0.5,0.3,0.9,0.3c0.3,0,0.6-0.1,0.9-0.2l0.2,0.8
			c-0.4,0.2-0.9,0.3-1.5,0.3c-1.3,0-1.9-0.6-1.9-1.9v-5.8h-1.1v-1h1.1v-0.1c0-0.1,0-0.7,0.1-1.8l0-0.2l1.4-0.3
			c-0.1,0.9-0.2,1.7-0.2,2.4H412.7z"/>
	</g>
	<g>
		<path class="st3" d="M272.2,71.8h-1.6l-1.1-3.6h-4.3l-1.1,3.6h-1.4l3.9-11.7h1.8L272.2,71.8z M269.1,67.1l-1.8-5.7l-0.6,1.7
			c-0.1,0.5-0.6,1.8-1.3,4H269.1z"/>
		<path class="st3" d="M280.6,71.3l-0.9,0.9c-0.5-0.4-0.8-0.9-0.9-1.4c-0.6,0.9-1.5,1.3-2.7,1.3c-1.6,0-2.4-0.8-2.4-2.5v-6.2
			l1.3-0.3v6.1c0,1.1,0.5,1.7,1.5,1.7c0.4,0,0.9-0.2,1.3-0.5c0.4-0.3,0.7-0.6,0.9-1.1v-6l1.3-0.2v6c0,0.8,0.1,1.3,0.2,1.6
			C280.3,71,280.4,71.1,280.6,71.3z"/>
		<path class="st3" d="M286.4,63.3l-0.4,1h-1.8v5.4c0,0.4,0.1,0.8,0.2,0.9c0.2,0.2,0.5,0.3,0.9,0.3c0.3,0,0.6-0.1,0.9-0.2l0.2,0.8
			c-0.4,0.2-0.9,0.3-1.5,0.3c-1.3,0-1.9-0.6-1.9-1.9v-5.8h-1.1v-1h1.1v-0.1c0-0.1,0-0.7,0.1-1.8l0-0.2l1.4-0.3
			c-0.1,0.9-0.2,1.7-0.2,2.4H286.4z"/>
		<path class="st3" d="M294.6,71.8h-1.3V66c0-0.5-0.1-0.9-0.3-1.2c-0.2-0.3-0.6-0.4-1.1-0.4c-0.9,0-1.7,0.5-2.5,1.4v6h-1.3V61.4
			c0-0.6-0.1-1.2-0.2-1.7l1.3-0.3c0.1,0.5,0.2,1.2,0.2,2v2c0,0.3,0,0.7-0.1,1.2c0.2-0.2,0.5-0.4,0.9-0.7c0.7-0.4,1.3-0.7,2-0.7
			c0.6,0,1.1,0.1,1.5,0.4c0.4,0.3,0.7,0.7,0.8,1.3c0,0.2,0.1,0.5,0.1,0.8V71.8z"/>
		<path class="st3" d="M304.3,67.8c0,1.6-0.4,2.7-1.3,3.5c-0.6,0.5-1.4,0.8-2.3,0.8c-1.2,0-2.2-0.5-2.8-1.4
			c-0.6-0.8-0.9-1.8-0.9-3.1c0-1.3,0.3-2.3,0.8-3.1c0.6-0.9,1.6-1.4,2.8-1.4c1.3,0,2.2,0.5,2.9,1.4C304,65.4,304.3,66.5,304.3,67.8z
			 M302.7,67.9c0-1.1-0.1-1.9-0.3-2.4c-0.3-0.8-1-1.2-1.9-1.2c-0.9,0-1.4,0.3-1.8,1c-0.2,0.5-0.4,1.2-0.4,2.1c0,1.1,0.1,1.9,0.3,2.4
			c0.4,0.8,1,1.2,1.9,1.2C302.1,71,302.7,70,302.7,67.9z"/>
		<path class="st3" d="M310.9,63.2l-0.5,1.4c-0.1,0-0.3,0-0.4,0c-0.3,0-0.7,0.1-1,0.3c-0.3,0.2-0.6,0.4-0.7,0.7
			c-0.1,0.2-0.2,0.5-0.2,0.9v5.3h-1.3v-6.5c0-0.8-0.1-1.4-0.3-1.9l1.3-0.4c0.2,0.4,0.3,0.8,0.3,1.3v0.1c0.7-0.9,1.5-1.4,2.4-1.4
			C310.6,63.1,310.7,63.2,310.9,63.2z"/>
		<path class="st3" d="M313.9,60.7c0,0.3-0.1,0.5-0.3,0.7c-0.2,0.2-0.4,0.3-0.7,0.3c-0.3,0-0.5-0.1-0.7-0.3s-0.3-0.4-0.3-0.7
			c0-0.3,0.1-0.5,0.3-0.7c0.2-0.2,0.4-0.3,0.7-0.3c0.3,0,0.5,0.1,0.7,0.3C313.8,60.2,313.9,60.4,313.9,60.7z M313.5,71.8h-1.4v-8.4
			l1.4-0.2V71.8z"/>
		<path class="st3" d="M321.8,70.8l-0.6,1h-5.6v-1l4.6-6.4h-4.3v-1.1h5.6v1.1l-4.4,6.3H321.8z"/>
		<path class="st3" d="M330,71.2l-0.7,1c-0.6-0.2-1-0.6-1.2-1.2c-0.8,0.8-1.6,1.1-2.4,1.1c-0.8,0-1.5-0.2-1.9-0.6
			c-0.5-0.4-0.8-1-0.8-1.8c0-1.1,0.5-1.9,1.5-2.4c0.8-0.4,1.8-0.6,3-0.6c0.2,0,0.4,0,0.6,0V66c0-0.7-0.1-1.1-0.3-1.3
			c-0.3-0.3-0.7-0.5-1.1-0.5c-1,0-1.9,0.3-2.7,1l-0.7-1c1.1-0.8,2.3-1.1,3.6-1.1c1.2,0,2,0.4,2.3,1.3c0.1,0.3,0.2,0.8,0.2,1.4v0.4
			l-0.1,2.8c0,0.1,0,0.2,0,0.4c0,0.5,0,0.8,0.1,1C329.5,70.8,329.7,71,330,71.2z M328.1,67.5c-0.4,0-0.6,0-0.7,0c-2,0-2.9,0.7-2.9,2
			c0,1,0.5,1.5,1.5,1.5c0.9,0,1.6-0.4,2.1-1.3L328.1,67.5z"/>
		<path class="st3" d="M335.8,63.3l-0.4,1h-1.8v5.4c0,0.4,0.1,0.8,0.2,0.9c0.2,0.2,0.5,0.3,0.9,0.3c0.3,0,0.6-0.1,0.9-0.2l0.2,0.8
			c-0.4,0.2-0.9,0.3-1.5,0.3c-1.3,0-1.9-0.6-1.9-1.9v-5.8h-1.1v-1h1.1v-0.1c0-0.1,0-0.7,0.1-1.8l0-0.2l1.4-0.3
			c-0.1,0.9-0.2,1.7-0.2,2.4H335.8z"/>
		<path class="st3" d="M339.4,60.7c0,0.3-0.1,0.5-0.3,0.7c-0.2,0.2-0.4,0.3-0.7,0.3c-0.3,0-0.5-0.1-0.7-0.3s-0.3-0.4-0.3-0.7
			c0-0.3,0.1-0.5,0.3-0.7c0.2-0.2,0.4-0.3,0.7-0.3c0.3,0,0.5,0.1,0.7,0.3C339.3,60.2,339.4,60.4,339.4,60.7z M339,71.8h-1.4v-8.4
			l1.4-0.2V71.8z"/>
		<path class="st3" d="M348.8,67.8c0,1.6-0.4,2.7-1.3,3.5c-0.6,0.5-1.4,0.8-2.3,0.8c-1.2,0-2.2-0.5-2.8-1.4
			c-0.6-0.8-0.9-1.8-0.9-3.1c0-1.3,0.3-2.3,0.8-3.1c0.6-0.9,1.6-1.4,2.8-1.4c1.3,0,2.2,0.5,2.9,1.4
			C348.5,65.4,348.8,66.5,348.8,67.8z M347.3,67.9c0-1.1-0.1-1.9-0.3-2.4c-0.3-0.8-1-1.2-1.9-1.2c-0.9,0-1.4,0.3-1.8,1
			c-0.2,0.5-0.4,1.2-0.4,2.1c0,1.1,0.1,1.9,0.3,2.4c0.4,0.8,1,1.2,1.9,1.2C346.6,71,347.3,70,347.3,67.9z"/>
		<path class="st3" d="M357.5,71.8h-1.3v-5.8c0-0.6-0.1-1-0.2-1.2c-0.2-0.4-0.5-0.5-1-0.5c-0.4,0-0.8,0.1-1.3,0.4
			c-0.4,0.2-0.8,0.5-1.1,0.8v6.3h-1.3v-6.3c0-0.9-0.1-1.5-0.3-2l1.3-0.4c0.2,0.4,0.3,0.9,0.3,1.3c0.9-0.9,1.8-1.3,2.7-1.3
			c0.4,0,0.9,0.1,1.2,0.3c0.4,0.2,0.7,0.5,0.8,0.9c0.1,0.3,0.2,0.6,0.2,1V71.8z"/>
		<path class="st3" d="M373.8,71.2c-0.9,0.6-2,0.9-3.3,0.9c-1.7,0-3-0.6-3.8-1.8c-0.8-1.1-1.2-2.5-1.2-4.2c0-2.2,0.6-3.8,1.8-4.9
			c0.8-0.7,1.9-1.1,3-1.1c1.2,0,2.3,0.4,3.2,1.2l-0.6,0.9c-0.9-0.6-1.7-0.9-2.5-0.9c-1.5,0-2.4,0.7-2.9,2c-0.3,0.9-0.5,1.8-0.5,3
			c0,1.6,0.3,2.7,0.8,3.5c0.3,0.4,0.7,0.7,1.3,0.9c0.5,0.2,1,0.3,1.6,0.3c0.7,0,1.4-0.2,1.9-0.5v-3.6h-2.3l-0.3-1.1h3.9V71.2z"/>
		<path class="st3" d="M380.5,63.2l-0.5,1.4c-0.1,0-0.3,0-0.4,0c-0.3,0-0.7,0.1-1,0.3c-0.3,0.2-0.6,0.4-0.7,0.7
			c-0.1,0.2-0.2,0.5-0.2,0.9v5.3h-1.3v-6.5c0-0.8-0.1-1.4-0.3-1.9l1.3-0.4c0.2,0.4,0.3,0.8,0.3,1.3v0.1c0.7-0.9,1.5-1.4,2.4-1.4
			C380.2,63.1,380.4,63.2,380.5,63.2z"/>
		<path class="st3" d="M388.1,71.2l-0.7,1c-0.6-0.2-1-0.6-1.2-1.2c-0.8,0.8-1.6,1.1-2.4,1.1c-0.8,0-1.5-0.2-1.9-0.6
			c-0.5-0.4-0.8-1-0.8-1.8c0-1.1,0.5-1.9,1.5-2.4c0.8-0.4,1.8-0.6,3-0.6c0.2,0,0.4,0,0.6,0V66c0-0.7-0.1-1.1-0.3-1.3
			c-0.3-0.3-0.7-0.5-1.1-0.5c-1,0-1.9,0.3-2.7,1l-0.7-1c1.1-0.8,2.3-1.1,3.6-1.1c1.2,0,2,0.4,2.3,1.3c0.1,0.3,0.2,0.8,0.2,1.4v0.4
			l-0.1,2.8c0,0.1,0,0.2,0,0.4c0,0.5,0,0.8,0.1,1C387.6,70.8,387.8,71,388.1,71.2z M386.2,67.5c-0.4,0-0.6,0-0.7,0
			c-2,0-2.9,0.7-2.9,2c0,1,0.5,1.5,1.5,1.5c0.9,0,1.6-0.4,2.1-1.3L386.2,67.5z"/>
		<path class="st3" d="M396.6,71.8h-1.3v-5.8c0-0.6-0.1-1-0.2-1.2c-0.2-0.4-0.5-0.5-1-0.5c-0.4,0-0.8,0.1-1.3,0.4
			c-0.4,0.2-0.8,0.5-1.1,0.8v6.3h-1.3v-6.3c0-0.9-0.1-1.5-0.3-2l1.3-0.4c0.2,0.4,0.3,0.9,0.3,1.3c0.9-0.9,1.8-1.3,2.7-1.3
			c0.4,0,0.9,0.1,1.2,0.3c0.4,0.2,0.7,0.5,0.8,0.9c0.1,0.3,0.2,0.6,0.2,1V71.8z"/>
		<path class="st3" d="M403,63.3l-0.4,1h-1.8v5.4c0,0.4,0.1,0.8,0.2,0.9c0.2,0.2,0.5,0.3,0.9,0.3c0.3,0,0.6-0.1,0.9-0.2l0.2,0.8
			c-0.4,0.2-0.9,0.3-1.5,0.3c-1.3,0-1.9-0.6-1.9-1.9v-5.8h-1.1v-1h1.1v-0.1c0-0.1,0-0.7,0.1-1.8l0-0.2l1.4-0.3
			c-0.1,0.9-0.2,1.7-0.2,2.4H403z"/>
	</g>
	<line class="st4" x1="171" y1="153" x2="482.1" y2="153"/>
	<polygon class="st3" points="491.7,153 482.1,149.4 482.1,156.6 	"/>
	<polygon class="st7" points="491.7,153 482.1,149.4 482.1,156.6 	"/>
	<g>
		<path class="st3" d="M272.2,144.4h-1.6l-1.1-3.6h-4.3l-1.1,3.6h-1.4l3.9-11.7h1.8L272.2,144.4z M269.1,139.7l-1.8-5.7l-0.6,1.7
			c-0.1,0.5-0.6,1.8-1.3,4H269.1z"/>
		<path class="st3" d="M280.6,143.9l-0.9,0.9c-0.5-0.4-0.8-0.9-0.9-1.4c-0.6,0.9-1.5,1.3-2.7,1.3c-1.6,0-2.4-0.8-2.4-2.5V136
			l1.3-0.3v6.1c0,1.1,0.5,1.7,1.5,1.7c0.4,0,0.9-0.2,1.3-0.5c0.4-0.3,0.7-0.6,0.9-1.1v-6l1.3-0.2v6c0,0.8,0.1,1.3,0.2,1.6
			C280.3,143.6,280.4,143.7,280.6,143.9z"/>
		<path class="st3" d="M286.4,135.9l-0.4,1h-1.8v5.4c0,0.4,0.1,0.8,0.2,0.9c0.2,0.2,0.5,0.3,0.9,0.3c0.3,0,0.6-0.1,0.9-0.2l0.2,0.8
			c-0.4,0.2-0.9,0.3-1.5,0.3c-1.3,0-1.9-0.6-1.9-1.9V137h-1.1v-1h1.1v-0.1c0-0.1,0-0.7,0.1-1.8l0-0.2l1.4-0.3
			c-0.1,0.9-0.2,1.7-0.2,2.4H286.4z"/>
		<path class="st3" d="M294.6,144.4h-1.3v-5.8c0-0.5-0.1-0.9-0.3-1.2c-0.2-0.3-0.6-0.4-1.1-0.4c-0.9,0-1.7,0.5-2.5,1.4v6h-1.3V134
			c0-0.6-0.1-1.2-0.2-1.7l1.3-0.3c0.1,0.5,0.2,1.2,0.2,2v2c0,0.3,0,0.7-0.1,1.2c0.2-0.2,0.5-0.4,0.9-0.7c0.7-0.4,1.3-0.7,2-0.7
			c0.6,0,1.1,0.1,1.5,0.4c0.4,0.3,0.7,0.7,0.8,1.3c0,0.2,0.1,0.5,0.1,0.8V144.4z"/>
		<path class="st3" d="M304.3,140.4c0,1.6-0.4,2.7-1.3,3.5c-0.6,0.5-1.4,0.8-2.3,0.8c-1.2,0-2.2-0.5-2.8-1.4
			c-0.6-0.8-0.9-1.8-0.9-3.1c0-1.3,0.3-2.3,0.8-3.1c0.6-0.9,1.6-1.4,2.8-1.4c1.3,0,2.2,0.5,2.9,1.4C304,138,304.3,139.1,304.3,140.4
			z M302.7,140.5c0-1.1-0.1-1.9-0.3-2.4c-0.3-0.8-1-1.2-1.9-1.2c-0.9,0-1.4,0.3-1.8,1c-0.2,0.5-0.4,1.2-0.4,2.1
			c0,1.1,0.1,1.9,0.3,2.4c0.4,0.8,1,1.2,1.9,1.2C302.1,143.6,302.7,142.6,302.7,140.5z"/>
		<path class="st3" d="M310.9,135.8l-0.5,1.4c-0.1,0-0.3,0-0.4,0c-0.3,0-0.7,0.1-1,0.3c-0.3,0.2-0.6,0.4-0.7,0.7
			c-0.1,0.2-0.2,0.5-0.2,0.9v5.3h-1.3V138c0-0.8-0.1-1.4-0.3-1.9l1.3-0.4c0.2,0.4,0.3,0.8,0.3,1.3v0.1c0.7-0.9,1.5-1.4,2.4-1.4
			C310.6,135.7,310.7,135.8,310.9,135.8z"/>
		<path class="st3" d="M313.9,133.3c0,0.3-0.1,0.5-0.3,0.7c-0.2,0.2-0.4,0.3-0.7,0.3c-0.3,0-0.5-0.1-0.7-0.3s-0.3-0.4-0.3-0.7
			c0-0.3,0.1-0.5,0.3-0.7c0.2-0.2,0.4-0.3,0.7-0.3c0.3,0,0.5,0.1,0.7,0.3C313.8,132.8,313.9,133.1,313.9,133.3z M313.5,144.4h-1.4
			V136l1.4-0.2V144.4z"/>
		<path class="st3" d="M321.8,143.4l-0.6,1h-5.6v-1l4.6-6.4h-4.3V136h5.6v1.1l-4.4,6.3H321.8z"/>
		<path class="st3" d="M330,143.8l-0.7,1c-0.6-0.2-1-0.6-1.2-1.2c-0.8,0.8-1.6,1.1-2.4,1.1c-0.8,0-1.5-0.2-1.9-0.6
			c-0.5-0.4-0.8-1-0.8-1.8c0-1.1,0.5-1.9,1.5-2.4c0.8-0.4,1.8-0.6,3-0.6c0.2,0,0.4,0,0.6,0v-0.6c0-0.7-0.1-1.1-0.3-1.3
			c-0.3-0.3-0.7-0.5-1.1-0.5c-1,0-1.9,0.3-2.7,1l-0.7-1c1.1-0.8,2.3-1.1,3.6-1.1c1.2,0,2,0.4,2.3,1.3c0.1,0.3,0.2,0.8,0.2,1.4v0.4
			l-0.1,2.8c0,0.1,0,0.2,0,0.4c0,0.5,0,0.8,0.1,1C329.5,143.4,329.7,143.6,330,143.8z M328.1,140.1c-0.4,0-0.6,0-0.7,0
			c-2,0-2.9,0.7-2.9,2c0,1,0.5,1.5,1.5,1.5c0.9,0,1.6-0.4,2.1-1.3L328.1,140.1z"/>
		<path class="st3" d="M335.8,135.9l-0.4,1h-1.8v5.4c0,0.4,0.1,0.8,0.2,0.9c0.2,0.2,0.5,0.3,0.9,0.3c0.3,0,0.6-0.1,0.9-0.2l0.2,0.8
			c-0.4,0.2-0.9,0.3-1.5,0.3c-1.3,0-1.9-0.6-1.9-1.9V137h-1.1v-1h1.1v-0.1c0-0.1,0-0.7,0.1-1.8l0-0.2l1.4-0.3
			c-0.1,0.9-0.2,1.7-0.2,2.4H335.8z"/>
		<path class="st3" d="M339.4,133.3c0,0.3-0.1,0.5-0.3,0.7c-0.2,0.2-0.4,0.3-0.7,0.3c-0.3,0-0.5-0.1-0.7-0.3s-0.3-0.4-0.3-0.7
			c0-0.3,0.1-0.5,0.3-0.7c0.2-0.2,0.4-0.3,0.7-0.3c0.3,0,0.5,0.1,0.7,0.3C339.3,132.8,339.4,133.1,339.4,133.3z M339,144.4h-1.4V136
			l1.4-0.2V144.4z"/>
		<path class="st3" d="M348.8,140.4c0,1.6-0.4,2.7-1.3,3.5c-0.6,0.5-1.4,0.8-2.3,0.8c-1.2,0-2.2-0.5-2.8-1.4
			c-0.6-0.8-0.9-1.8-0.9-3.1c0-1.3,0.3-2.3,0.8-3.1c0.6-0.9,1.6-1.4,2.8-1.4c1.3,0,2.2,0.5,2.9,1.4
			C348.5,138,348.8,139.1,348.8,140.4z M347.3,140.5c0-1.1-0.1-1.9-0.3-2.4c-0.3-0.8-1-1.2-1.9-1.2c-0.9,0-1.4,0.3-1.8,1
			c-0.2,0.5-0.4,1.2-0.4,2.1c0,1.1,0.1,1.9,0.3,2.4c0.4,0.8,1,1.2,1.9,1.2C346.6,143.6,347.3,142.6,347.3,140.5z"/>
		<path class="st3" d="M357.5,144.4h-1.3v-5.8c0-0.6-0.1-1-0.2-1.2c-0.2-0.4-0.5-0.5-1-0.5c-0.4,0-0.8,0.1-1.3,0.4
			c-0.4,0.2-0.8,0.5-1.1,0.8v6.3h-1.3v-6.3c0-0.9-0.1-1.5-0.3-2l1.3-0.4c0.2,0.4,0.3,0.9,0.3,1.3c0.9-0.9,1.8-1.3,2.7-1.3
			c0.4,0,0.9,0.1,1.2,0.3c0.4,0.2,0.7,0.5,0.8,0.9c0.1,0.3,0.2,0.6,0.2,1V144.4z"/>
		<path class="st3" d="M373.8,143.8c-0.9,0.6-2,0.9-3.3,0.9c-1.7,0-3-0.6-3.8-1.8c-0.8-1.1-1.2-2.5-1.2-4.2c0-2.2,0.6-3.8,1.8-4.9
			c0.8-0.7,1.9-1.1,3-1.1c1.2,0,2.3,0.4,3.2,1.2l-0.6,0.9c-0.9-0.6-1.7-0.9-2.5-0.9c-1.5,0-2.4,0.7-2.9,2c-0.3,0.9-0.5,1.8-0.5,3
			c0,1.6,0.3,2.7,0.8,3.5c0.3,0.4,0.7,0.7,1.3,0.9c0.5,0.2,1,0.3,1.6,0.3c0.7,0,1.4-0.2,1.9-0.5v-3.6h-2.3l-0.3-1.1h3.9V143.8z"/>
		<path class="st3" d="M380.5,135.8l-0.5,1.4c-0.1,0-0.3,0-0.4,0c-0.3,0-0.7,0.1-1,0.3c-0.3,0.2-0.6,0.4-0.7,0.7
			c-0.1,0.2-0.2,0.5-0.2,0.9v5.3h-1.3V138c0-0.8-0.1-1.4-0.3-1.9l1.3-0.4c0.2,0.4,0.3,0.8,0.3,1.3v0.1c0.7-0.9,1.5-1.4,2.4-1.4
			C380.2,135.7,380.4,135.8,380.5,135.8z"/>
		<path class="st3" d="M388.1,143.8l-0.7,1c-0.6-0.2-1-0.6-1.2-1.2c-0.8,0.8-1.6,1.1-2.4,1.1c-0.8,0-1.5-0.2-1.9-0.6
			c-0.5-0.4-0.8-1-0.8-1.8c0-1.1,0.5-1.9,1.5-2.4c0.8-0.4,1.8-0.6,3-0.6c0.2,0,0.4,0,0.6,0v-0.6c0-0.7-0.1-1.1-0.3-1.3
			c-0.3-0.3-0.7-0.5-1.1-0.5c-1,0-1.9,0.3-2.7,1l-0.7-1c1.1-0.8,2.3-1.1,3.6-1.1c1.2,0,2,0.4,2.3,1.3c0.1,0.3,0.2,0.8,0.2,1.4v0.4
			l-0.1,2.8c0,0.1,0,0.2,0,0.4c0,0.5,0,0.8,0.1,1C387.6,143.4,387.8,143.6,388.1,143.8z M386.2,140.1c-0.4,0-0.6,0-0.7,0
			c-2,0-2.9,0.7-2.9,2c0,1,0.5,1.5,1.5,1.5c0.9,0,1.6-0.4,2.1-1.3L386.2,140.1z"/>
		<path class="st3" d="M396.6,144.4h-1.3v-5.8c0-0.6-0.1-1-0.2-1.2c-0.2-0.4-0.5-0.5-1-0.5c-0.4,0-0.8,0.1-1.3,0.4
			c-0.4,0.2-0.8,0.5-1.1,0.8v6.3h-1.3v-6.3c0-0.9-0.1-1.5-0.3-2l1.3-0.4c0.2,0.4,0.3,0.9,0.3,1.3c0.9-0.9,1.8-1.3,2.7-1.3
			c0.4,0,0.9,0.1,1.2,0.3c0.4,0.2,0.7,0.5,0.8,0.9c0.1,0.3,0.2,0.6,0.2,1V144.4z"/>
		<path class="st3" d="M403,135.9l-0.4,1h-1.8v5.4c0,0.4,0.1,0.8,0.2,0.9c0.2,0.2,0.5,0.3,0.9,0.3c0.3,0,0.6-0.1,0.9-0.2l0.2,0.8
			c-0.4,0.2-0.9,0.3-1.5,0.3c-1.3,0-1.9-0.6-1.9-1.9V137h-1.1v-1h1.1v-0.1c0-0.1,0-0.7,0.1-1.8l0-0.2l1.4-0.3
			c-0.1,0.9-0.2,1.7-0.2,2.4H403z"/>
	</g>
	<line class="st4" x1="495" y1="189" x2="183.9" y2="189"/>
	<polygon class="st3" points="174.3,189 183.9,192.6 183.9,185.4 	"/>
	<polygon class="st7" points="174.3,189 183.9,192.6 183.9,185.4 	"/>
	<g>
		<path class="st3" d="M293.6,180.2H292l-1.1-3.6h-4.3l-1.1,3.6H284l3.9-11.7h1.8L293.6,180.2z M290.5,175.5l-1.8-5.7l-0.6,1.7
			c-0.1,0.5-0.6,1.8-1.3,4H290.5z"/>
		<path class="st3" d="M300.7,179.3c-0.7,0.7-1.6,1.1-2.6,1.1c-1.2,0-2.1-0.4-2.7-1.3c-0.5-0.7-0.8-1.7-0.8-3c0-1.6,0.4-2.8,1.3-3.6
			c0.7-0.7,1.4-1,2.3-1c0.8,0,1.6,0.3,2.3,0.9l-0.7,0.9c-0.6-0.5-1.1-0.7-1.6-0.7c-1.4,0-2.1,1.2-2.1,3.7c0,2,0.7,2.9,2.1,2.9
			c0.7,0,1.3-0.3,1.8-0.9L300.7,179.3z"/>
		<path class="st3" d="M308,179.3c-0.7,0.7-1.6,1.1-2.6,1.1c-1.2,0-2.1-0.4-2.7-1.3c-0.5-0.7-0.8-1.7-0.8-3c0-1.6,0.4-2.8,1.3-3.6
			c0.7-0.7,1.4-1,2.3-1c0.8,0,1.6,0.3,2.3,0.9l-0.7,0.9c-0.6-0.5-1.1-0.7-1.6-0.7c-1.4,0-2.1,1.2-2.1,3.7c0,2,0.7,2.9,2.1,2.9
			c0.7,0,1.3-0.3,1.8-0.9L308,179.3z"/>
		<path class="st3" d="M315.9,176.2h-5.3v0.2c0,0.8,0.1,1.5,0.4,1.9c0.5,0.7,1.2,1,2.1,1c0.8,0,1.5-0.3,2.1-0.8l0.5,0.8
			c-0.8,0.7-1.7,1.1-2.9,1.1c-1.3,0-2.2-0.4-2.9-1.3c-0.6-0.8-0.9-1.9-0.9-3.2c0-1.2,0.3-2.2,0.9-3c0.7-0.9,1.6-1.4,2.7-1.4
			c0.9,0,1.7,0.3,2.3,0.9c0.4,0.4,0.7,1,0.8,1.7c0.1,0.4,0.1,1.1,0.1,1.9V176.2z M314.4,175.2c0-0.8-0.1-1.4-0.4-1.8
			c-0.3-0.5-0.8-0.8-1.6-0.8c-1.2,0-1.9,0.9-2,2.6H314.4z"/>
		<path class="st3" d="M323.5,177.7c0,0.9-0.3,1.6-1,2.1c-0.6,0.5-1.3,0.7-2.2,0.7c-1.1,0-2.2-0.3-3.1-0.9l0.5-1
			c0.9,0.5,1.8,0.8,2.7,0.8c0.5,0,0.9-0.1,1.2-0.4c0.3-0.2,0.5-0.6,0.5-1.1c0-0.7-0.5-1.2-1.4-1.4l-1.1-0.2
			c-1.4-0.3-2.1-1.1-2.1-2.3c0-0.8,0.3-1.5,0.9-1.9c0.6-0.4,1.3-0.7,2.1-0.7c0.9,0,1.8,0.2,2.6,0.7l-0.5,1c-0.9-0.4-1.6-0.6-2.1-0.6
			c-0.5,0-0.8,0.1-1.1,0.3c-0.3,0.3-0.5,0.6-0.5,1.1c0,0.6,0.4,1.1,1.2,1.2l1.1,0.2C322.8,175.6,323.5,176.4,323.5,177.7z"/>
		<path class="st3" d="M331.1,177.7c0,0.9-0.3,1.6-1,2.1c-0.6,0.5-1.3,0.7-2.2,0.7c-1.1,0-2.2-0.3-3.1-0.9l0.5-1
			c0.9,0.5,1.8,0.8,2.7,0.8c0.5,0,0.9-0.1,1.2-0.4c0.3-0.2,0.5-0.6,0.5-1.1c0-0.7-0.5-1.2-1.4-1.4l-1.1-0.2
			c-1.4-0.3-2.1-1.1-2.1-2.3c0-0.8,0.3-1.5,0.9-1.9c0.6-0.4,1.3-0.7,2.1-0.7c0.9,0,1.8,0.2,2.6,0.7l-0.5,1c-0.9-0.4-1.6-0.6-2.1-0.6
			c-0.5,0-0.8,0.1-1.1,0.3c-0.3,0.3-0.5,0.6-0.5,1.1c0,0.6,0.4,1.1,1.2,1.2l1.1,0.2C330.4,175.6,331.1,176.4,331.1,177.7z"/>
		<path class="st3" d="M345.6,168.5l-0.1,1.2h-3.2v10.5h-1.3v-10.5h-3.1v-1.2H345.6z"/>
		<path class="st3" d="M354.4,176.2c0,1.6-0.4,2.7-1.3,3.5c-0.6,0.5-1.4,0.8-2.3,0.8c-1.2,0-2.2-0.5-2.8-1.4
			c-0.6-0.8-0.8-1.8-0.8-3.1c0-1.3,0.3-2.3,0.8-3.1c0.6-0.9,1.6-1.4,2.8-1.4c1.3,0,2.2,0.5,2.9,1.4
			C354.1,173.8,354.4,174.8,354.4,176.2z M352.9,176.3c0-1.1-0.1-1.9-0.3-2.4c-0.3-0.8-1-1.2-1.9-1.2c-0.9,0-1.4,0.3-1.8,1
			c-0.2,0.5-0.4,1.2-0.4,2.1c0,1.1,0.1,1.9,0.3,2.4c0.4,0.8,1,1.2,1.9,1.2C352.2,179.4,352.9,178.3,352.9,176.3z"/>
		<path class="st3" d="M358.1,180.2h-1.3v-9.7c0-0.7-0.1-1.3-0.2-1.9c0-0.1-0.1-0.3-0.1-0.5l1.3-0.3c0.1,0.3,0.1,0.5,0.2,0.7
			c0.1,0.5,0.1,1.1,0.1,1.8V180.2z M363.8,180.2H362l-3.9-4.8l3.2-3.7h1.7l-3.3,3.7L363.8,180.2z"/>
		<path class="st3" d="M371.5,176.2h-5.3v0.2c0,0.8,0.1,1.5,0.4,1.9c0.5,0.7,1.2,1,2.1,1c0.8,0,1.5-0.3,2.1-0.8l0.5,0.8
			c-0.8,0.7-1.7,1.1-2.9,1.1c-1.3,0-2.2-0.4-2.9-1.3c-0.6-0.8-0.9-1.9-0.9-3.2c0-1.2,0.3-2.2,0.9-3c0.7-0.9,1.6-1.4,2.7-1.4
			c0.9,0,1.7,0.3,2.3,0.9c0.4,0.4,0.7,1,0.8,1.7c0.1,0.4,0.1,1.1,0.1,1.9V176.2z M370.1,175.2c0-0.8-0.1-1.4-0.4-1.8
			c-0.3-0.5-0.8-0.8-1.6-0.8c-1.2,0-1.9,0.9-2,2.6H370.1z"/>
		<path class="st3" d="M380.1,180.2h-1.3v-5.8c0-0.6-0.1-1-0.2-1.2c-0.2-0.4-0.5-0.5-1-0.5c-0.4,0-0.8,0.1-1.3,0.4
			c-0.4,0.2-0.8,0.5-1.1,0.8v6.3h-1.3v-6.3c0-0.9-0.1-1.5-0.3-2l1.3-0.4c0.2,0.4,0.3,0.9,0.3,1.3c0.9-0.9,1.8-1.3,2.7-1.3
			c0.4,0,0.9,0.1,1.2,0.3c0.4,0.2,0.7,0.5,0.8,0.9c0.1,0.3,0.2,0.6,0.2,1V180.2z"/>
	</g>
	<line class="st4" x1="171" y1="261" x2="482.1" y2="261"/>
	<polygon class="st3" points="491.7,261 482.1,257.4 482.1,264.6 	"/>
	<polygon class="st7" points="491.7,261 482.1,257.4 482.1,264.6 	"/>
	<g>
		<path class="st3" d="M293.8,252.1h-1.6l-1.1-3.6h-4.3l-1.1,3.6h-1.4l3.9-11.7h1.8L293.8,252.1z M290.8,247.4l-1.8-5.7l-0.6,1.7
			c-0.1,0.5-0.6,1.8-1.3,4H290.8z"/>
		<path class="st3" d="M301,251.2c-0.7,0.7-1.6,1.1-2.6,1.1c-1.2,0-2.1-0.4-2.7-1.3c-0.5-0.7-0.8-1.7-0.8-3c0-1.6,0.4-2.8,1.3-3.6
			c0.7-0.7,1.4-1,2.3-1c0.8,0,1.6,0.3,2.3,0.9l-0.7,0.9c-0.6-0.5-1.1-0.7-1.6-0.7c-1.4,0-2.1,1.2-2.1,3.7c0,2,0.7,2.9,2.1,2.9
			c0.7,0,1.3-0.3,1.8-0.9L301,251.2z"/>
		<path class="st3" d="M308.3,251.2c-0.7,0.7-1.6,1.1-2.6,1.1c-1.2,0-2.1-0.4-2.7-1.3c-0.5-0.7-0.8-1.7-0.8-3c0-1.6,0.4-2.8,1.3-3.6
			c0.7-0.7,1.4-1,2.3-1c0.8,0,1.6,0.3,2.3,0.9l-0.7,0.9c-0.6-0.5-1.1-0.7-1.6-0.7c-1.4,0-2.1,1.2-2.1,3.7c0,2,0.7,2.9,2.1,2.9
			c0.7,0,1.3-0.3,1.8-0.9L308.3,251.2z"/>
		<path class="st3" d="M316.2,248.1h-5.3v0.2c0,0.8,0.1,1.5,0.4,1.9c0.5,0.7,1.2,1,2.1,1c0.8,0,1.5-0.3,2.1-0.8l0.5,0.8
			c-0.8,0.7-1.7,1.1-2.9,1.1c-1.3,0-2.2-0.4-2.9-1.3c-0.6-0.8-0.9-1.9-0.9-3.2c0-1.2,0.3-2.2,0.9-3c0.7-0.9,1.6-1.4,2.7-1.4
			c0.9,0,1.7,0.3,2.3,0.9c0.4,0.4,0.7,1,0.8,1.7c0.1,0.4,0.1,1.1,0.1,1.9V248.1z M314.7,247.1c0-0.8-0.1-1.4-0.4-1.8
			c-0.3-0.5-0.8-0.8-1.6-0.8c-1.2,0-1.9,0.9-2,2.6H314.7z"/>
		<path class="st3" d="M323.8,249.6c0,0.9-0.3,1.6-1,2.1c-0.6,0.5-1.3,0.7-2.2,0.7c-1.1,0-2.2-0.3-3.1-0.9l0.5-1
			c0.9,0.5,1.8,0.8,2.7,0.8c0.5,0,0.9-0.1,1.2-0.4c0.3-0.2,0.5-0.6,0.5-1.1c0-0.7-0.5-1.2-1.4-1.4l-1.1-0.2
			c-1.4-0.3-2.1-1.1-2.1-2.3c0-0.8,0.3-1.5,0.9-1.9c0.6-0.4,1.3-0.7,2.1-0.7c0.9,0,1.8,0.2,2.6,0.7l-0.5,1c-0.9-0.4-1.6-0.6-2.1-0.6
			c-0.5,0-0.8,0.1-1.1,0.3c-0.3,0.3-0.5,0.6-0.5,1.1c0,0.6,0.4,1.1,1.2,1.2l1.1,0.2C323.1,247.6,323.8,248.3,323.8,249.6z"/>
		<path class="st3" d="M331.4,249.6c0,0.9-0.3,1.6-1,2.1c-0.6,0.5-1.3,0.7-2.2,0.7c-1.1,0-2.2-0.3-3.1-0.9l0.5-1
			c0.9,0.5,1.8,0.8,2.7,0.8c0.5,0,0.9-0.1,1.2-0.4c0.3-0.2,0.5-0.6,0.5-1.1c0-0.7-0.5-1.2-1.4-1.4l-1.1-0.2
			c-1.4-0.3-2.1-1.1-2.1-2.3c0-0.8,0.3-1.5,0.9-1.9c0.6-0.4,1.3-0.7,2.1-0.7c0.9,0,1.8,0.2,2.6,0.7l-0.5,1c-0.9-0.4-1.6-0.6-2.1-0.6
			c-0.5,0-0.8,0.1-1.1,0.3c-0.3,0.3-0.5,0.6-0.5,1.1c0,0.6,0.4,1.1,1.2,1.2l1.1,0.2C330.6,247.6,331.4,248.3,331.4,249.6z"/>
		<path class="st3" d="M345.9,240.5l-0.1,1.2h-3.2v10.5h-1.3v-10.5h-3.1v-1.2H345.9z"/>
		<path class="st3" d="M354.7,248.1c0,1.6-0.4,2.7-1.3,3.5c-0.6,0.5-1.4,0.8-2.3,0.8c-1.2,0-2.2-0.5-2.8-1.4
			c-0.6-0.8-0.9-1.8-0.9-3.1c0-1.3,0.3-2.3,0.8-3.1c0.6-0.9,1.6-1.4,2.8-1.4c1.3,0,2.2,0.5,2.9,1.4
			C354.4,245.7,354.7,246.8,354.7,248.1z M353.1,248.2c0-1.1-0.1-1.9-0.3-2.4c-0.3-0.8-1-1.2-1.9-1.2c-0.8,0-1.4,0.3-1.8,1
			c-0.2,0.5-0.4,1.2-0.4,2.1c0,1.1,0.1,1.9,0.3,2.4c0.4,0.8,1,1.2,1.9,1.2C352.4,251.3,353.1,250.3,353.1,248.2z"/>
		<path class="st3" d="M358.4,252.1h-1.3v-9.7c0-0.7-0.1-1.3-0.2-1.9c0-0.1-0.1-0.3-0.1-0.5l1.3-0.3c0.1,0.3,0.1,0.5,0.2,0.7
			c0.1,0.5,0.1,1.1,0.1,1.8V252.1z M364.1,252.1h-1.8l-3.9-4.8l3.2-3.7h1.7l-3.3,3.7L364.1,252.1z"/>
		<path class="st3" d="M371.8,248.1h-5.3v0.2c0,0.8,0.1,1.5,0.4,1.9c0.5,0.7,1.2,1,2.1,1c0.8,0,1.5-0.3,2.1-0.8l0.5,0.8
			c-0.8,0.7-1.7,1.1-2.9,1.1c-1.3,0-2.2-0.4-2.9-1.3c-0.6-0.8-0.9-1.9-0.9-3.2c0-1.2,0.3-2.2,0.9-3c0.7-0.9,1.6-1.4,2.7-1.4
			c0.9,0,1.7,0.3,2.3,0.9c0.4,0.4,0.7,1,0.8,1.7c0.1,0.4,0.1,1.1,0.1,1.9V248.1z M370.4,247.1c0-0.8-0.1-1.4-0.4-1.8
			c-0.3-0.5-0.8-0.8-1.6-0.8c-1.2,0-1.9,0.9-2,2.6H370.4z"/>
		<path class="st3" d="M380.4,252.1H379v-5.8c0-0.6-0.1-1-0.2-1.2c-0.2-0.4-0.5-0.5-1-0.5c-0.4,0-0.8,0.1-1.3,0.4
			c-0.4,0.2-0.8,0.5-1.1,0.8v6.3h-1.3v-6.3c0-0.9-0.1-1.5-0.3-2l1.3-0.4c0.2,0.4,0.3,0.9,0.3,1.3c0.9-0.9,1.8-1.3,2.7-1.3
			c0.4,0,0.9,0.1,1.2,0.3c0.4,0.2,0.7,0.5,0.8,0.9c0.1,0.3,0.2,0.6,0.2,1V252.1z"/>
	</g>
	<line class="st4" x1="495" y1="297" x2="183.9" y2="297"/>
	<polygon class="st3" points="174.3,297 183.9,300.6 183.9,293.4 	"/>
	<polygon class="st7" points="174.3,297 183.9,300.6 183.9,293.4 	"/>
	<g>
		<path class="st3" d="M263.7,287.2c-0.9,0.6-2,0.9-3.3,0.9c-1.7,0-3-0.6-3.8-1.8c-0.8-1.1-1.2-2.5-1.2-4.2c0-2.2,0.6-3.8,1.8-4.9
			c0.8-0.7,1.9-1.1,3-1.1c1.2,0,2.3,0.4,3.2,1.2l-0.6,0.9c-0.9-0.6-1.7-0.9-2.5-0.9c-1.5,0-2.4,0.7-2.9,2c-0.3,0.9-0.5,1.8-0.5,3
			c0,1.6,0.3,2.7,0.8,3.5c0.3,0.4,0.7,0.7,1.3,0.9c0.5,0.2,1,0.3,1.6,0.3c0.7,0,1.4-0.2,1.9-0.5v-3.6H260l-0.3-1.1h3.9V287.2z"/>
		<path class="st3" d="M272.4,283.8h-5.3v0.2c0,0.8,0.1,1.5,0.4,1.9c0.5,0.7,1.2,1,2.1,1c0.8,0,1.5-0.3,2.1-0.8l0.5,0.8
			c-0.8,0.7-1.7,1.1-2.9,1.1c-1.3,0-2.2-0.4-2.9-1.3c-0.6-0.8-0.9-1.9-0.9-3.2c0-1.2,0.3-2.2,0.9-3c0.7-0.9,1.6-1.4,2.7-1.4
			c0.9,0,1.7,0.3,2.3,0.9c0.4,0.4,0.7,1,0.8,1.7c0.1,0.4,0.1,1.1,0.1,1.9V283.8z M271,282.8c0-0.8-0.1-1.4-0.4-1.8
			c-0.3-0.5-0.8-0.8-1.6-0.8c-1.2,0-1.9,0.9-2,2.6H271z"/>
		<path class="st3" d="M280.1,285.3c0,0.9-0.3,1.6-1,2.1c-0.6,0.5-1.3,0.7-2.2,0.7c-1.1,0-2.2-0.3-3.1-0.9l0.5-1
			c0.9,0.5,1.8,0.8,2.7,0.8c0.5,0,0.9-0.1,1.2-0.4c0.3-0.2,0.5-0.6,0.5-1.1c0-0.7-0.5-1.2-1.4-1.4l-1.1-0.2
			c-1.4-0.3-2.1-1.1-2.1-2.3c0-0.8,0.3-1.5,0.9-1.9c0.6-0.4,1.3-0.7,2.1-0.7c0.9,0,1.8,0.2,2.6,0.7l-0.5,1c-0.9-0.4-1.6-0.6-2.1-0.6
			c-0.5,0-0.8,0.1-1.1,0.3c-0.3,0.3-0.5,0.6-0.5,1.1c0,0.6,0.4,1.1,1.2,1.2l1.1,0.2C279.3,283.2,280.1,284,280.1,285.3z"/>
		<path class="st3" d="M287.9,286.9c-0.7,0.7-1.6,1.1-2.6,1.1c-1.2,0-2.1-0.4-2.7-1.3c-0.5-0.7-0.8-1.7-0.8-3c0-1.6,0.4-2.8,1.3-3.6
			c0.7-0.7,1.4-1,2.3-1c0.8,0,1.6,0.3,2.3,0.9l-0.7,0.9c-0.6-0.5-1.1-0.7-1.6-0.7c-1.4,0-2.1,1.2-2.1,3.7c0,2,0.7,2.9,2.1,2.9
			c0.7,0,1.3-0.3,1.8-0.9L287.9,286.9z"/>
		<path class="st3" d="M295.9,287.8h-1.3V282c0-0.5-0.1-0.9-0.3-1.2c-0.2-0.3-0.6-0.4-1.1-0.4c-0.9,0-1.7,0.5-2.5,1.4v6h-1.3v-10.5
			c0-0.6-0.1-1.2-0.2-1.7l1.3-0.3c0.1,0.5,0.2,1.2,0.2,2v2c0,0.3,0,0.7-0.1,1.2c0.2-0.2,0.5-0.4,0.9-0.7c0.7-0.4,1.3-0.7,2-0.7
			c0.6,0,1.1,0.1,1.5,0.4c0.4,0.3,0.7,0.7,0.8,1.3c0,0.2,0.1,0.5,0.1,0.8V287.8z"/>
		<path class="st3" d="M305.6,287.3l-0.9,0.9c-0.5-0.4-0.8-0.9-0.9-1.4c-0.6,0.9-1.5,1.3-2.7,1.3c-1.6,0-2.4-0.8-2.4-2.5v-6.2
			l1.3-0.3v6.1c0,1.1,0.5,1.7,1.5,1.7c0.4,0,0.9-0.2,1.3-0.5c0.4-0.3,0.7-0.6,0.9-1.1v-6l1.3-0.2v6c0,0.8,0.1,1.3,0.2,1.6
			C305.3,287,305.4,287.1,305.6,287.3z M300.9,277.3c0,0.2-0.1,0.5-0.2,0.6c-0.2,0.2-0.4,0.3-0.6,0.3s-0.5-0.1-0.6-0.3
			c-0.2-0.2-0.3-0.4-0.3-0.6c0-0.2,0.1-0.4,0.3-0.6s0.4-0.3,0.6-0.3c0.2,0,0.5,0.1,0.6,0.2C300.8,276.8,300.9,277,300.9,277.3z
			 M304.4,277.3c0,0.2-0.1,0.5-0.2,0.6c-0.2,0.2-0.4,0.3-0.6,0.3c-0.2,0-0.5-0.1-0.6-0.3c-0.2-0.2-0.3-0.4-0.3-0.6
			c0-0.2,0.1-0.5,0.3-0.6c0.2-0.2,0.4-0.2,0.6-0.2c0.2,0,0.4,0.1,0.6,0.3S304.4,277,304.4,277.3z"/>
		<path class="st3" d="M311.4,279.3l-0.4,1h-1.8v5.4c0,0.4,0.1,0.8,0.2,0.9c0.2,0.2,0.5,0.3,0.9,0.3c0.3,0,0.6-0.1,0.9-0.2l0.2,0.8
			c-0.4,0.2-0.9,0.3-1.5,0.3c-1.3,0-1.9-0.6-1.9-1.9v-5.8h-1.1v-1h1.1v-0.1c0-0.1,0-0.7,0.1-1.8l0-0.2l1.4-0.3
			c-0.1,0.9-0.2,1.7-0.2,2.4H311.4z"/>
		<path class="st3" d="M318.6,286.8l-0.6,1h-5.6v-1l4.6-6.4h-4.3v-1.1h5.6v1.1l-4.4,6.3H318.6z"/>
		<path class="st3" d="M324.1,279.3l-0.4,1h-1.8v5.4c0,0.4,0.1,0.8,0.2,0.9c0.2,0.2,0.5,0.3,0.9,0.3c0.3,0,0.6-0.1,0.9-0.2l0.2,0.8
			c-0.4,0.2-0.9,0.3-1.5,0.3c-1.3,0-1.9-0.6-1.9-1.9v-5.8h-1.1v-1h1.1v-0.1c0-0.1,0-0.7,0.1-1.8l0-0.2l1.4-0.3
			c-0.1,0.9-0.2,1.7-0.2,2.4H324.1z"/>
		<path class="st3" d="M332.2,283.8h-5.3v0.2c0,0.8,0.1,1.5,0.4,1.9c0.5,0.7,1.2,1,2.1,1c0.8,0,1.5-0.3,2.1-0.8l0.5,0.8
			c-0.8,0.7-1.7,1.1-2.9,1.1c-1.3,0-2.2-0.4-2.9-1.3c-0.6-0.8-0.9-1.9-0.9-3.2c0-1.2,0.3-2.2,0.9-3c0.7-0.9,1.6-1.4,2.7-1.4
			c0.9,0,1.7,0.3,2.3,0.9c0.4,0.4,0.7,1,0.8,1.7c0.1,0.4,0.1,1.1,0.1,1.9V283.8z M330.8,282.8c0-0.8-0.1-1.4-0.4-1.8
			c-0.3-0.5-0.8-0.8-1.6-0.8c-1.2,0-1.9,0.9-2,2.6H330.8z"/>
		<path class="st3" d="M347.7,287.8h-1.8c-0.6-1.3-1.6-2.8-3-4.5c-0.4-0.5-0.8-0.7-1.3-0.7v5.3h-1.4v-11.6h2.7
			c1.3,0,2.3,0.2,2.9,0.7c0.8,0.6,1.2,1.4,1.2,2.4c0,1-0.3,1.7-0.8,2.3c-0.6,0.6-1.3,0.9-2.3,0.9h-0.2c0.4,0.3,0.8,0.7,1.2,1.3
			c0.1,0.2,0.5,0.7,1,1.4C346.3,285.7,346.8,286.5,347.7,287.8z M345.6,279.4c0-0.4-0.1-0.7-0.3-1.1c-0.2-0.3-0.5-0.6-0.8-0.7
			c-0.4-0.2-0.9-0.2-1.5-0.2h-1.4v4.4h1.3c0.9,0,1.6-0.2,2-0.5C345.4,280.8,345.6,280.2,345.6,279.4z"/>
		<path class="st3" d="M356.1,283.8h-5.3v0.2c0,0.8,0.1,1.5,0.4,1.9c0.5,0.7,1.2,1,2.1,1c0.8,0,1.5-0.3,2.1-0.8l0.5,0.8
			c-0.8,0.7-1.7,1.1-2.9,1.1c-1.3,0-2.2-0.4-2.9-1.3c-0.6-0.8-0.9-1.9-0.9-3.2c0-1.2,0.3-2.2,0.9-3c0.7-0.9,1.6-1.4,2.7-1.4
			c0.9,0,1.7,0.3,2.3,0.9c0.4,0.4,0.7,1,0.8,1.7c0.1,0.4,0.1,1.1,0.1,1.9V283.8z M354.7,282.8c0-0.8-0.1-1.4-0.4-1.8
			c-0.3-0.5-0.8-0.8-1.6-0.8c-1.2,0-1.9,0.9-2,2.6H354.7z"/>
		<path class="st3" d="M363.7,285.3c0,0.9-0.3,1.6-1,2.1c-0.6,0.5-1.3,0.7-2.2,0.7c-1.1,0-2.2-0.3-3.1-0.9l0.5-1
			c0.9,0.5,1.8,0.8,2.7,0.8c0.5,0,0.9-0.1,1.2-0.4c0.3-0.2,0.5-0.6,0.5-1.1c0-0.7-0.5-1.2-1.4-1.4l-1.1-0.2
			c-1.4-0.3-2.1-1.1-2.1-2.3c0-0.8,0.3-1.5,0.9-1.9c0.6-0.4,1.3-0.7,2.1-0.7c0.9,0,1.8,0.2,2.6,0.7l-0.5,1c-0.9-0.4-1.6-0.6-2.1-0.6
			c-0.5,0-0.8,0.1-1.1,0.3c-0.3,0.3-0.5,0.6-0.5,1.1c0,0.6,0.4,1.1,1.2,1.2l1.1,0.2C363,283.2,363.7,284,363.7,285.3z"/>
		<path class="st3" d="M371.3,285.3c0,0.9-0.3,1.6-1,2.1c-0.6,0.5-1.3,0.7-2.2,0.7c-1.1,0-2.2-0.3-3.1-0.9l0.5-1
			c0.9,0.5,1.8,0.8,2.7,0.8c0.5,0,0.9-0.1,1.2-0.4c0.3-0.2,0.5-0.6,0.5-1.1c0-0.7-0.5-1.2-1.4-1.4l-1.1-0.2
			c-1.4-0.3-2.1-1.1-2.1-2.3c0-0.8,0.3-1.5,0.9-1.9c0.6-0.4,1.3-0.7,2.1-0.7c0.9,0,1.8,0.2,2.6,0.7l-0.5,1c-0.9-0.4-1.6-0.6-2.1-0.6
			c-0.5,0-0.8,0.1-1.1,0.3c-0.3,0.3-0.5,0.6-0.5,1.1c0,0.6,0.4,1.1,1.2,1.2l1.1,0.2C370.6,283.2,371.3,284,371.3,285.3z"/>
		<path class="st3" d="M380.4,283.8c0,1.6-0.4,2.7-1.3,3.5c-0.6,0.5-1.4,0.8-2.3,0.8c-1.2,0-2.2-0.5-2.8-1.4
			c-0.6-0.8-0.8-1.8-0.8-3.1c0-1.3,0.3-2.3,0.8-3.1c0.6-0.9,1.6-1.4,2.8-1.4c1.3,0,2.2,0.5,2.9,1.4
			C380.1,281.4,380.4,282.5,380.4,283.8z M378.9,283.9c0-1.1-0.1-1.9-0.3-2.4c-0.3-0.8-1-1.2-1.9-1.2c-0.9,0-1.4,0.3-1.8,1
			c-0.2,0.5-0.4,1.2-0.4,2.1c0,1.1,0.1,1.9,0.3,2.4c0.4,0.8,1,1.2,1.9,1.2C378.2,287,378.9,286,378.9,283.9z"/>
		<path class="st3" d="M389.8,287.3l-0.8,0.9c-0.5-0.4-0.8-0.9-0.9-1.4c-0.6,0.9-1.5,1.3-2.7,1.3c-1.6,0-2.4-0.8-2.4-2.5v-6.2
			l1.3-0.3v6.1c0,1.1,0.5,1.7,1.5,1.7c0.4,0,0.9-0.2,1.3-0.5c0.4-0.3,0.7-0.6,0.9-1.1v-6l1.3-0.2v6c0,0.8,0.1,1.3,0.2,1.6
			C389.5,287,389.6,287.1,389.8,287.3z"/>
		<path class="st3" d="M396.2,279.2l-0.5,1.4c-0.1,0-0.3,0-0.4,0c-0.3,0-0.7,0.1-1,0.3s-0.6,0.4-0.7,0.7c-0.1,0.2-0.2,0.5-0.2,0.9
			v5.3H392v-6.5c0-0.8-0.1-1.4-0.3-1.9l1.3-0.4c0.2,0.4,0.3,0.8,0.3,1.3v0.1c0.7-0.9,1.5-1.4,2.4-1.4
			C395.8,279.1,396,279.2,396.2,279.2z"/>
		<path class="st3" d="M403,286.9c-0.7,0.7-1.6,1.1-2.6,1.1c-1.2,0-2.1-0.4-2.7-1.3c-0.5-0.7-0.8-1.7-0.8-3c0-1.6,0.4-2.8,1.3-3.6
			c0.7-0.7,1.4-1,2.3-1c0.8,0,1.6,0.3,2.3,0.9l-0.7,0.9c-0.6-0.5-1.1-0.7-1.6-0.7c-1.4,0-2.1,1.2-2.1,3.7c0,2,0.7,2.9,2.1,2.9
			c0.7,0,1.3-0.3,1.8-0.9L403,286.9z"/>
		<path class="st3" d="M410.9,283.8h-5.3v0.2c0,0.8,0.1,1.5,0.4,1.9c0.5,0.7,1.2,1,2.1,1c0.8,0,1.5-0.3,2.1-0.8l0.5,0.8
			c-0.8,0.7-1.7,1.1-2.9,1.1c-1.3,0-2.2-0.4-2.9-1.3c-0.6-0.8-0.9-1.9-0.9-3.2c0-1.2,0.3-2.2,0.9-3c0.7-0.9,1.6-1.4,2.7-1.4
			c0.9,0,1.7,0.3,2.3,0.9c0.4,0.4,0.7,1,0.8,1.7c0.1,0.4,0.1,1.1,0.1,1.9V283.8z M409.5,282.8c0-0.8-0.1-1.4-0.4-1.8
			c-0.3-0.5-0.8-0.8-1.6-0.8c-1.2,0-1.9,0.9-2,2.6H409.5z"/>
	</g>
</g>
<g>
	<g>
		<defs>
			<rect id="SVGID_1_" x="54" y="324" width="80.4" height="45"/>
		</defs>
		<clipPath id="SVGID_2_">
			<use xlink:href="#SVGID_1_"  style="overflow:visible;"/>
		</clipPath>
		<ellipse class="st8" cx="94.2" cy="347.1" rx="39.6" ry="17.6"/>
	</g>
</g>
<g>
	<g>
		<defs>
			<rect id="SVGID_3_" x="54" y="324" width="80.4" height="45"/>
		</defs>
		<clipPath id="SVGID_4_">
			<use xlink:href="#SVGID_3_"  style="overflow:visible;"/>
		</clipPath>
		<polygon class="st9" points="70.1,368.5 93.7,324.5 105.6,324.5 85.9,361.2 115.2,361.2 111.3,368.5 		"/>
	</g>
</g>
<g>
	<g>
		<defs>
			<rect id="SVGID_5_" x="54" y="324" width="80.4" height="45"/>
		</defs>
		<clipPath id="SVGID_6_">
			<use xlink:href="#SVGID_5_"  style="overflow:visible;"/>
		</clipPath>
		<polygon class="st10" points="111.3,368.5 115.2,361.2 85.9,361.2 105.6,324.5 93.7,324.5 70,368.5 		"/>
		<path class="st11" d="M82.2,347.1c-0.1,0-0.3,0.1-0.5,0.1c-1.1,0.1-1.8,0.2-2.1,0.4c-0.2,0.1-0.3,0.3-0.3,0.5
			c0,0.2,0.1,0.3,0.3,0.5c0.2,0.1,0.4,0.2,0.7,0.2c0.3,0,0.6-0.1,0.9-0.2c0.3-0.1,0.5-0.3,0.6-0.5c0.1-0.2,0.3-0.5,0.4-0.9
			L82.2,347.1z M80.2,345.6l-2.1-0.1c0.2-0.5,0.6-0.9,1.2-1.2c0.6-0.3,1.4-0.4,2.3-0.4c1,0,1.7,0.2,2.2,0.5c0.5,0.3,0.7,0.7,0.7,1.1
			c0,0.2,0,0.4-0.1,0.6c0,0.2-0.2,0.7-0.4,1.6c-0.2,0.7-0.3,1.2-0.3,1.5c0,0.3,0.1,0.5,0.2,0.8h-2c-0.1-0.2-0.1-0.4-0.2-0.7
			c-0.3,0.3-0.7,0.5-1.1,0.6c-0.4,0.1-0.8,0.2-1.2,0.2c-0.6,0-1.2-0.2-1.6-0.5c-0.4-0.3-0.6-0.7-0.6-1.2c0-0.6,0.2-1,0.7-1.4
			c0.5-0.3,1.3-0.5,2.5-0.6c1-0.1,1.7-0.1,2-0.2c0.1-0.2,0.1-0.4,0.1-0.5c0-0.2-0.1-0.3-0.3-0.4c-0.2-0.1-0.5-0.2-0.8-0.2
			c-0.4,0-0.7,0.1-0.9,0.2C80.4,345.2,80.3,345.4,80.2,345.6"/>
		<path class="st11" d="M87.1,343.9h2l-0.3,1.2c0.7-0.9,1.5-1.3,2.4-1.3c0.3,0,0.6,0.1,1,0.2l-0.8,1.3c-0.2-0.1-0.4-0.1-0.6-0.1
			c-0.4,0-0.7,0.1-1.1,0.3c-0.4,0.2-0.7,0.5-0.9,0.8c-0.2,0.4-0.4,0.9-0.6,1.7l-0.5,1.9h-2.1L87.1,343.9z"/>
		<path class="st11" d="M93.1,343.9h2l-0.2,0.8c0.5-0.3,1-0.6,1.4-0.7c0.4-0.1,0.9-0.2,1.4-0.2c0.6,0,1.1,0.1,1.5,0.4
			c0.4,0.3,0.6,0.7,0.6,1.1c0,0.2-0.1,0.6-0.2,1.2l-0.9,3.4h-2.1l0.9-3.4c0.1-0.5,0.2-0.8,0.2-0.9c0-0.2-0.1-0.4-0.2-0.5
			c-0.2-0.1-0.4-0.2-0.7-0.2c-0.3,0-0.7,0.1-1,0.3c-0.4,0.2-0.7,0.5-0.9,0.8c-0.2,0.2-0.3,0.7-0.5,1.4l-0.7,2.4h-2.1L93.1,343.9z"/>
	</g>
</g>
<g>
	<g>
		<defs>
			<rect id="SVGID_7_" x="54" y="324" width="80.4" height="45"/>
		</defs>
		<clipPath id="SVGID_8_">
			<use xlink:href="#SVGID_7_"  style="overflow:visible;"/>
		</clipPath>
		<polygon class="st12" points="67.4,349.8 67.8,348.5 62.3,348.5 64.2,341.7 62,341.7 59.7,349.8 		"/>
	</g>
</g>
<g>
	<g>
		<defs>
			<rect id="SVGID_9_" x="54" y="324" width="80.4" height="45"/>
		</defs>
		<clipPath id="SVGID_10_">
			<use xlink:href="#SVGID_9_"  style="overflow:visible;"/>
		</clipPath>
		<path class="st13" d="M71.4,346.4c0.1-0.5,0.4-0.9,0.7-1.1c0.3-0.2,0.7-0.4,1.2-0.4c0.4,0,0.8,0.1,1,0.3c0.3,0.2,0.4,0.5,0.4,1
			c0,0,0,0.1,0,0.2H71.4z M76.6,346.3c0-0.8-0.3-1.4-0.8-1.9c-0.6-0.4-1.3-0.7-2.3-0.7c-1.5,0-2.7,0.4-3.5,1.3
			c-0.6,0.6-0.9,1.4-0.9,2.2c0,0.8,0.3,1.5,1,2c0.7,0.5,1.5,0.8,2.6,0.8c0.8,0,1.5-0.1,2.1-0.4c0.6-0.3,1.1-0.7,1.5-1.3l-1.9-0.2
			c-0.4,0.5-0.9,0.8-1.6,0.8c-0.4,0-0.8-0.1-1.1-0.4c-0.3-0.2-0.4-0.6-0.4-1c0,0,0-0.1,0-0.1h5.3C76.5,347.1,76.6,346.7,76.6,346.3z
			"/>
		<path class="st13" d="M82.2,347.3c-0.1,0.4-0.2,0.7-0.4,0.9c-0.1,0.2-0.4,0.3-0.6,0.5c-0.3,0.1-0.6,0.2-0.9,0.2
			c-0.3,0-0.5-0.1-0.7-0.2c-0.2-0.1-0.3-0.3-0.3-0.5c0-0.2,0.1-0.4,0.3-0.5c0.3-0.2,1-0.3,2.1-0.4c0.2,0,0.4,0,0.5-0.1L82.2,347.3z
			 M80.6,345.1c0.2-0.1,0.5-0.2,0.9-0.2c0.4,0,0.6,0.1,0.8,0.2c0.2,0.1,0.3,0.3,0.3,0.4c0,0.1,0,0.3-0.1,0.5c-0.3,0.1-1,0.2-2,0.2
			c-1.2,0.1-2,0.3-2.5,0.6c-0.5,0.3-0.7,0.8-0.7,1.4c0,0.5,0.2,0.9,0.6,1.2c0.4,0.3,1,0.5,1.6,0.5c0.4,0,0.8-0.1,1.2-0.2
			c0.4-0.1,0.8-0.3,1.1-0.6c0,0.2,0.1,0.5,0.2,0.7H84c-0.1-0.3-0.2-0.6-0.2-0.8c0-0.3,0.1-0.8,0.3-1.5c0.2-0.9,0.4-1.4,0.4-1.6
			c0-0.2,0.1-0.4,0.1-0.6c0-0.4-0.2-0.8-0.7-1.1c-0.5-0.3-1.2-0.5-2.2-0.5c-1,0-1.7,0.1-2.3,0.4c-0.6,0.3-1,0.7-1.2,1.2l2.1,0.1
			C80.3,345.4,80.4,345.2,80.6,345.1z"/>
		<path class="st13" d="M85.5,349.8h2.1l0.5-1.9c0.2-0.8,0.4-1.3,0.6-1.7c0.2-0.3,0.5-0.6,0.9-0.8c0.4-0.2,0.7-0.3,1.1-0.3
			c0.2,0,0.4,0,0.6,0.1l0.8-1.3c-0.3-0.1-0.7-0.2-1-0.2c-0.9,0-1.7,0.4-2.4,1.3l0.3-1.1h-2L85.5,349.8z"/>
		<path class="st13" d="M91.5,349.8h2.1l0.7-2.4c0.2-0.7,0.4-1.2,0.5-1.4c0.2-0.3,0.5-0.6,0.9-0.8c0.4-0.2,0.7-0.3,1-0.3
			c0.3,0,0.5,0.1,0.7,0.2c0.2,0.1,0.2,0.3,0.2,0.5c0,0.1-0.1,0.4-0.2,0.9l-0.9,3.4h2.1l0.9-3.3c0.2-0.6,0.2-1,0.2-1.2
			c0-0.5-0.2-0.8-0.6-1.1c-0.4-0.3-0.9-0.4-1.5-0.4c-0.5,0-0.9,0.1-1.4,0.2c-0.4,0.1-0.9,0.4-1.4,0.7l0.2-0.8h-2L91.5,349.8z"/>
	</g>
</g>
<g>
	<g>
		<defs>
			<rect id="SVGID_11_" x="54" y="324" width="80.4" height="45"/>
		</defs>
		<clipPath id="SVGID_12_">
			<use xlink:href="#SVGID_11_"  style="overflow:visible;"/>
		</clipPath>
		<polygon class="st14" points="112.8,343.9 110.6,343.9 108.2,347.9 107.9,343.9 106,343.9 103.6,347.9 103,343.9 101.2,343.9 
			102.1,349.8 104.1,349.8 106.5,346.1 106.9,349.8 108.9,349.8 		"/>
	</g>
</g>
<g>
	<g>
		<defs>
			<rect id="SVGID_13_" x="54" y="324" width="80.4" height="45"/>
		</defs>
		<clipPath id="SVGID_14_">
			<use xlink:href="#SVGID_13_"  style="overflow:visible;"/>
		</clipPath>
		<path class="st15" d="M114.9,346.4c0.1-0.5,0.4-0.9,0.7-1.1c0.3-0.2,0.7-0.4,1.2-0.4s0.8,0.1,1,0.3c0.3,0.2,0.4,0.5,0.4,1
			c0,0,0,0.1,0,0.2H114.9z M120.2,346.3c0-0.8-0.3-1.4-0.8-1.9c-0.6-0.4-1.3-0.7-2.3-0.7c-1.5,0-2.7,0.4-3.5,1.3
			c-0.6,0.6-0.9,1.4-0.9,2.2c0,0.8,0.3,1.5,1,2c0.7,0.5,1.5,0.8,2.6,0.8c0.8,0,1.5-0.1,2.1-0.4c0.6-0.3,1.1-0.7,1.5-1.3l-1.9-0.2
			c-0.4,0.5-0.9,0.8-1.6,0.8c-0.4,0-0.8-0.1-1.1-0.4c-0.3-0.2-0.4-0.6-0.4-1c0,0,0-0.1,0-0.1h5.3
			C120.1,347.1,120.2,346.7,120.2,346.3z"/>
		<path class="st15" d="M124.4,345.5c0.4-0.4,0.8-0.6,1.4-0.6c0.4,0,0.8,0.1,1,0.4c0.3,0.2,0.4,0.6,0.4,1c0,0.4-0.1,0.9-0.3,1.3
			c-0.2,0.4-0.5,0.7-0.8,0.9c-0.3,0.2-0.7,0.3-1,0.3c-0.4,0-0.8-0.1-1-0.4c-0.3-0.2-0.4-0.6-0.4-1
			C123.6,346.6,123.9,346,124.4,345.5z M122.7,349.8l0.3-1c0.5,0.7,1.3,1.1,2.5,1.1c0.5,0,0.9-0.1,1.4-0.2c0.4-0.2,0.8-0.4,1.2-0.7
			c0.4-0.3,0.7-0.7,0.9-1.2c0.2-0.5,0.4-1,0.4-1.6c0-0.8-0.2-1.4-0.7-1.8c-0.5-0.4-1.2-0.6-2-0.6c-0.4,0-0.8,0-1.1,0.1
			c-0.3,0.1-0.7,0.3-1.1,0.5l0.8-2.7H123l-2.3,8.2H122.7z"/>
	</g>
</g>
<g>
	<g>
		<defs>
			<rect id="SVGID_15_" x="514" y="324.2" width="143" height="44.6"/>
		</defs>
		<clipPath id="SVGID_16_">
			<use xlink:href="#SVGID_15_"  style="overflow:visible;"/>
		</clipPath>
		<g class="st16">
			<defs>
				<rect id="SVGID_17_" x="514" y="324" width="143" height="45"/>
			</defs>
			<clipPath id="SVGID_18_">
				<use xlink:href="#SVGID_17_"  style="overflow:visible;"/>
			</clipPath>
			<path class="st17" d="M535.8,324.2c-12,0-21.8,10-21.8,22.3c0,12.3,9.8,22.3,21.8,22.3s21.8-10,21.8-22.3
				C557.6,334.2,547.8,324.2,535.8,324.2 M535.8,366.7c-10.9,0-19.8-9.1-19.8-20.2c0-11.1,8.9-20.2,19.8-20.2
				c10.9,0,19.8,9.1,19.8,20.2C555.6,357.6,546.7,366.7,535.8,366.7"/>
			<path class="st17" d="M544.7,330.8c-3.6-2.1-8.5-0.3-10.4,3.3c-2.1,3.9-1.5,9.7,1.2,12.4c1.9,1.9,4.6,2,7.7,0.2l1,1.8
				c-2,1.2-3.7,1.6-5.2,1.6c-2.4,0-4-1.1-4.9-2.1c-3.3-3.3-4.1-10.2-1.6-14.9c1.2-2.3,3.1-3.9,5.4-4.7c-0.7-0.1-1.4-0.1-2.1-0.1
				c-9.8,0-17.7,8.1-17.7,18.1c0,9.3,6.9,17,15.8,18v-8.9h2v9c3.4,0,6.7-1,9.4-2.8l-3.7-4.4l0.8-0.7c0.1,0,5.2-4.2,5.7-9.3l2,0.2
				c-0.5,4.7-4,8.5-5.7,10l2.4,2.9c4-3.3,6.6-8.4,6.6-14.1C553.5,339.8,550,334,544.7,330.8 M547.6,339.9c-0.3,0.8-1.1,1.3-1.9,1
				c-0.8-0.3-1.2-1.1-1-2c0.3-0.8,1.1-1.3,1.9-1C547.4,338.2,547.9,339,547.6,339.9"/>
			<path class="st17" d="M572,355.9c-2.1,0-4.2-0.7-6.4-1.9l1.8-3.7c1,0.6,3.4,1.9,4.9,1.9c0.9,0,1.6-0.6,1.6-1.1
				c0-0.8-0.5-1.1-2-1.4l-1.9-0.4c-2.4-0.5-3.5-2-3.5-4.1c0-3.1,2.4-5.2,6.1-5.2c2.9,0,4.4,0.9,5.9,1.6l-1.6,3.2
				c-1.5-0.8-2.7-1.1-3.7-1.1c-0.8,0-1.3,0.4-1.3,0.9c0,0.5,0.3,0.9,1.6,1.2l1.8,0.4c2.6,0.6,3.7,2.1,3.7,4.4
				C578.9,353.8,576.2,355.9,572,355.9"/>
			<path class="st17" d="M589.1,355.9c-4.1,0-6.7-2.7-6.7-7.8c0-5.1,2.6-8.1,7.1-8.1c1.8,0,3.1,0.6,4.6,1.8l-2.3,3.1
				c-0.6-0.6-1.4-1.1-2.1-1.1c-1.2,0-1.8,0.6-1.8,4c0,3.1,0.3,4.4,1.8,4.4c1.1,0,2-0.6,2.7-1.4l2.1,3
				C592.9,355.4,590.9,355.9,589.1,355.9"/>
			<path class="st17" d="M600.8,339.3c-1.6,0-2.8-1.3-2.8-2.9c0-1.6,1.3-2.9,2.9-2.9c1.6,0,2.8,1.3,2.8,2.9
				C603.7,338,602.4,339.3,600.8,339.3 M598.3,355.6v-15l5-0.5v15.4H598.3z"/>
			<path class="st17" d="M613.2,349.6c0,0.9,0.3,2.8,2.4,2.8c1.3,0,2.6-0.5,3.9-1.5l1.9,2.9c-2,1.6-3.8,2.2-6,2.2
				c-4.7,0-7.4-3-7.4-7.9c0-5,2.6-8.1,6.8-8.1c4.7,0,6.7,3.1,6.7,8.2v1.4L613.2,349.6L613.2,349.6z M616.6,346
				c0-1.5-0.4-2.4-1.6-2.4c-1.1,0-1.8,0.7-1.8,2.7h3.3V346z"/>
			<path class="st17" d="M636.4,354.8c-1.1,0.9-2.1,1.2-3.3,1.2c-1.3,0-2.3-0.6-2.9-1.3c0,0.3-0.1,0.7-0.3,0.9h-4.3
				c0.3-0.6,0.3-1.6,0.3-2.9V339c0-1.8-0.1-2.9-0.4-4.2l5.1-0.9c0.1,0.7,0.3,1.9,0.3,2.9v2.3c0,0.6,0,1.4-0.1,1.7
				c0.4-0.4,1.3-0.9,2.6-0.9c3.5,0,5.8,2.5,5.8,7.6C639.3,350.6,638.4,353.2,636.4,354.8 M632.3,344.1c-0.7,0-1.1,0.5-1.3,0.7v6.4
				c0.3,0.2,0.6,0.5,1.2,0.5c1.3,0,1.8-1,1.8-3.9C634,344.8,633.4,344.1,632.3,344.1"/>
			<path class="st17" d="M649.9,355.9c-4.3,0-6.9-2.9-6.9-7.9c0-4.7,2.8-8,7.2-8c3.7,0,6.8,2.1,6.8,7.6
				C657,353.6,653.5,355.9,649.9,355.9 M650,343.6c-1,0-1.6,0.8-1.6,4.6c0,2.9,0.2,4.2,1.6,4.2c1.2,0,1.6-1.3,1.6-4.9
				C651.6,344.4,651.2,343.6,650,343.6"/>
		</g>
	</g>
</g>
</svg>
