<?xml version="1.0" encoding="UTF-8" standalone="no"?>
<svg
   xmlns:dc="http://purl.org/dc/elements/1.1/"
   xmlns:cc="http://creativecommons.org/ns#"
   xmlns:rdf="http://www.w3.org/1999/02/22-rdf-syntax-ns#"
   xmlns:svg="http://www.w3.org/2000/svg"
   xmlns="http://www.w3.org/2000/svg"
   id="svg4200"
   xml:space="preserve"
   enable-background="new 0 0 500 152.428"
   viewBox="0 0 143 43.594408"
   height="43.594406"
   width="143"
   y="0px"
   x="0px"
   version="1.1"><metadata
     id="metadata4224"><rdf:RDF><cc:Work
         rdf:about=""><dc:format>image/svg+xml</dc:format><dc:type
           rdf:resource="http://purl.org/dc/dcmitype/StillImage" /><dc:title></dc:title></cc:Work></rdf:RDF></metadata><defs
     id="defs4222" /><g
     id="g4202"
     style="fill:#29833b;fill-opacity:1"
     transform="matrix(0.28600001,0,0,0.28600001,-1.02107e-5,0)"><path
       style="fill:#29833b;fill-opacity:1"
       id="path4204"
       d="M76.214,0C34.122,0 0,34.122 0,76.214c0,42.092 34.122,76.214 76.214,76.214 42.096,0 76.213,-34.122 76.213,-76.214C152.427,34.122 118.31,0 76.214,0zm-0.002,145.337c-38.114,0-69.123,-31.009-69.123,-69.123 0,-38.116 31.009,-69.126 69.123,-69.126 38.115,0 69.126,31.01 69.126,69.126 0,38.114-31.011,69.123-69.126,69.123z" /><path
       style="fill:#29833b;fill-opacity:1"
       id="path4206"
       d="M107.317,22.572C94.583,15.514 77.573,21.634 70.944,33.949c-7.219,13.407-5.24,33.286 4.238,42.542 6.719,6.563 16.03,6.753 26.922,0.548l3.506,6.164c-7.033,4.006-13.067,5.471-18.135,5.471-8.281,0-13.984,-3.921-17.247,-7.108C58.515,70.124 55.983,46.781 64.701,30.59c4.29,-7.971 10.743,-13.373 18.718,-15.981-2.366,-0.271-4.768,-0.43-7.207,-0.43-34.205,0-62.032,27.825-62.032,62.035 0,31.93 24.249,58.29 55.294,61.66v-30.421h7.091v30.786c12.028,-0.067 23.25,-3.586 32.743,-9.598l-12.776,-15.149 2.906,-2.267c0.178,-0.139 18.042,-14.3 19.926,-31.845l7.047,0.754c-1.729,16.128-14.139,29.118-19.818,34.288l8.499,10.081c14.108,-11.38 23.156,-28.797 23.156,-48.29 0,-22.875-12.456,-42.883-30.931,-53.641zm10.145,30.942c-0.917,2.791-3.926,4.304-6.71,3.387-2.788,-0.921-4.307,-3.925-3.385,-6.716 0.917,-2.788 3.925,-4.3 6.711,-3.383 2.788,0.92 4.305,3.924 3.384,6.712z" /><path
       style="fill:#29833b;fill-opacity:1"
       id="path4208"
       d="m202.82,108.5c-7.448,0-14.691,-2.413-22.539,-6.534l6.134,-12.684c3.427,2.114 11.875,6.643 17.007,6.643 3.119,0 5.434,-2.01 5.434,-3.922 0,-2.821-1.713,-3.626-6.842,-4.729l-6.744,-1.411c-8.348,-1.708-12.174,-6.84-12.174,-14.184 0,-10.668 8.351,-17.712 21.332,-17.712 10.264,0 15.496,3.119 20.525,5.334l-5.431,10.87c-5.133,-2.72-9.358,-3.829-12.776,-3.829-2.721,0-4.531,1.208-4.531,2.921 0,1.809 1.208,3.217 5.437,4.123l6.438,1.409c9.154,2.015 12.876,7.045 12.876,15.195 0,11.269-9.657,18.51-24.146,18.51z" /><path
       style="fill:#29833b;fill-opacity:1"
       id="path4210"
       d="m262.68,108.5c-14.491,0-23.543,-9.155-23.543,-26.765 0,-17.403 9.251,-27.769 24.849,-27.769 6.44,0 10.871,1.914 15.997,6.138l-8.049,10.569c-2.015,-2.116-4.932,-3.825-7.348,-3.825-4.123,0-6.336,2.213-6.336,13.786 0,10.559 1.109,14.891 6.137,14.891 3.925,0 7.146,-1.916 9.563,-4.632l7.343,10.263c-5.533,5.535-12.277,7.344-18.613,7.344z" /><path
       style="fill:#29833b;fill-opacity:1"
       id="path4212"
       d="m303.416,51.454c-5.428,0-9.963,-4.429-9.963,-9.864 0,-5.434 4.635,-9.859 10.271,-9.859 5.532,0 9.854,4.426 9.854,9.859 0.001,5.435-4.519,9.864-10.162,9.864zm-8.647,55.741V56.079l17.505,-1.611v52.728h-17.505z" /><path
       style="fill:#29833b;fill-opacity:1"
       id="path4214"
       d="m346.977,86.77c0,3.221 1.111,9.455 8.355,9.455 4.521,0 9.155,-1.709 13.685,-5.229l6.733,10.061c-6.936,5.334-13.377,7.444-21.122,7.444-16.606,0-25.757,-10.161-25.757,-26.963 0,-17.108 8.956,-27.57 23.648,-27.57 16.598,0 23.434,10.462 23.434,28.074v4.729h-28.976zm11.679,-12.379c0,-5.128-1.513,-8.247-5.542,-8.247-3.721,0-6.138,2.313-6.138,9.256h11.68v-1.009z" /><path
       style="fill:#29833b;fill-opacity:1"
       id="path4216"
       d="m428.069,104.476c-3.827,3.021-7.351,4.024-11.576,4.024-4.626,0-8.144,-2.01-10.262,-4.524-0.1,1.005-0.506,2.414-1.004,3.22h-14.993c1.008,-2.215 1.211,-5.433 1.211,-9.961V50.647c0,-6.239-0.203,-9.858-1.311,-14.389l17.709,-3.02c0.506,2.518 1.106,6.44 1.106,9.961v7.948c0,2.015-0.1,4.931-0.401,5.738 1.508,-1.31 4.629,-2.92 9.153,-2.92 12.073,0 20.427,8.553 20.427,25.961 0.001,10.466-3.218,19.219-10.059,24.55 z M 413.48,68.054c-2.614,0-3.831,1.612-4.53,2.516v21.735c0.903,0.802 2.113,1.707 4.321,1.707 4.431,0 6.139,-3.519 6.139,-13.179 0,-10.264-2.011,-12.779-5.93,-12.779z" /><path
       style="fill:#29833b;fill-opacity:1"
       id="path4218"
       d="m475.24,108.5c-14.885,0-24.039,-9.856-24.039,-27.064 0,-16.197 9.858,-27.469 25.051,-27.469 12.772,0 23.748,7.346 23.748,25.961 0,20.526-12.376,28.572-24.76,28.572zm0.303,-42.356c-3.618,0-5.428,2.714-5.428,15.592 0,10.065 0.601,14.489 5.532,14.489 4.124,0 5.438,-4.424 5.438,-16.801 0,-10.362-1.414,-13.28-5.542,-13.28z" /></g></svg>