<?xml version="1.0" encoding="UTF-8" standalone="no"?>
<svg xmlns="http://www.w3.org/2000/svg" xmlns:xlink="http://www.w3.org/1999/xlink" version="1.1" width="450" height="450" viewBox="0 0 47.5 47.5" xml:space="preserve"><defs><radialGradient cx="50" cy="50" r="44.9995" id="a" gradientUnits="userSpaceOnUse"><stop style="stop-color:#a3cc8c;stop-opacity:1" offset="0" /><stop style="stop-color:#87be65;stop-opacity:1" offset="0.2217" /><stop style="stop-color:#51aa2a;stop-opacity:1" offset="0.52609998" /><stop style="stop-color:#047e2e;stop-opacity:1" offset="0.90280002" /><stop style="stop-color:#025437;stop-opacity:1" offset="1" /></radialGradient><linearGradient x1="-514.95801" y1="-601.68408" x2="-513.1463" y2="-574.94647" id="b" gradientUnits="userSpaceOnUse" gradientTransform="matrix(1.273,-0.9421,1.045,1.412,1309.7383,379.979)"><stop style="stop-color:#fff;stop-opacity:0.69999999" offset="0" /><stop style="stop-color:#fff;stop-opacity:0" offset="0.69190001" /></linearGradient><linearGradient x1="-514.95801" y1="-601.68408" x2="-513.1463" y2="-574.94647" id="c" xlink:href="#b" gradientUnits="userSpaceOnUse" gradientTransform="matrix(0.62235556,-0.46058222,0.51088889,0.69031111,639.62206,185.07258)" /><radialGradient cx="50" cy="50" r="44.9995" id="e" xlink:href="#a" gradientUnits="userSpaceOnUse" /></defs><path d="M47.500001,23.75A23.750001,23.750001 0 0 1 0,23.75a23.750001,23.750001 0 1 1 47.500001,0z" style="fill:#fff;fill-opacity:1;stroke:none" /><circle cx="50" cy="50.000999" r="45" transform="matrix(0.48888889,0,0,0.48888889,-0.69444445,-0.69493262)" style="fill:url(#e)" /><circle cx="70.490997" cy="36.210999" r="3.0090001" transform="matrix(0.48888889,0,0,0.48888889,-0.69444445,-0.69493262)" style="fill:#fff" /><path d="m23.75,4.6222229c-10.5468,0-19.1272889,8.5809781-19.1272889,19.1277781 0,10.545822 8.5804889,19.126311 19.1272889,19.126311 10.546311,0 19.127778,-8.580489 19.127778,-19.126311 0,-10.5468-8.581467,-19.1277781-19.127778,-19.1277781zM34.508489,37.111823 32.155956,34.322712c1.572266,-1.43 5.0072,-5.025777 5.484355,-9.487866L35.6916,24.625601c-0.522133,4.856134-5.465289,8.774089-5.513689,8.812711l-0.805689,0.627245 3.536134,4.192222c-2.6268,1.6632-5.732223,2.636578-9.061067,2.654667v-8.518889h-1.961911v8.418178C13.295111,39.878935 6.5851111,32.584223 6.5851111,23.750001 6.5851111,14.284623 14.2856,6.5846229 23.75,6.5846229c0.674667,0 1.339556,0.043022 1.993689,0.1188-2.206356,0.7220889-3.991778,2.2166222-5.1788,4.4215121-2.413156,4.480177-1.712089,10.939377 1.529733,14.105911 0.902978,0.881955 2.480622,1.967777 4.772534,1.967777 1.402133,0 3.0712,-0.406266 5.018444,-1.515066L30.915645,23.97929c-3.014489,1.716489-5.590934,1.6632-7.450178,-0.152044-2.622889,-2.5608-3.169956,-8.062267-1.172356,-11.771956 1.833333,-3.407556 6.540845,-5.1020449 10.064267,-3.147956 5.113778,2.975867 8.559467,8.513023 8.559467,14.842667-9.78e-4,5.393911-2.504089,10.212889-6.408356,13.361822z" style="fill:#fff" /><path d="M29.591245,6.887734C27.549645,13.078535 25.612178,13.179246 24.366,23.784712 23.265022,33.14449 12.697689,28.500046 6.6789778,23.84289 2.3132,20.46369 5.292,11.276001 11.904222,6.9464007 20.714,1.1780007 31.125867,2.2296007 29.591245,6.887734z" style="fill:url(#c)" /></svg>