<?xml version="1.0" encoding="utf-8"?>
<!-- Generator: Adobe Illustrator 21.0.2, SVG Export Plug-In . SVG Version: 6.00 Build 0)  -->
<svg version="1.1" id="Ebene_1" xmlns="http://www.w3.org/2000/svg" xmlns:xlink="http://www.w3.org/1999/xlink" x="0px" y="0px"
	 viewBox="0 0 605 72" style="enable-background:new 0 0 605 72;" xml:space="preserve">
<style type="text/css">
	
		.st0{clip-path:url(#SVGID_2_);fill:none;stroke:#007993;stroke-width:2;stroke-linecap:round;stroke-linejoin:round;stroke-miterlimit:10;}
	.st1{clip-path:url(#SVGID_2_);fill:#007993;}
	.st2{clip-path:url(#SVGID_2_);fill:none;stroke:#007993;stroke-width:2;stroke-miterlimit:10;}
	.st3{clip-path:url(#SVGID_2_);}
	.st4{fill:#4F4F4C;}
	.st5{font-family:'MetaNormal';}
	.st6{font-size:17px;}
	.st7{clip-path:url(#SVGID_4_);}
	.st8{clip-path:url(#SVGID_6_);fill:none;stroke:#7A7878;stroke-width:1.2415;stroke-linejoin:round;stroke-miterlimit:10;}
	.st9{clip-path:url(#SVGID_8_);}
	.st10{clip-path:url(#SVGID_10_);fill:#006784;}
	.st11{clip-path:url(#SVGID_12_);}
	.st12{clip-path:url(#SVGID_14_);fill:none;stroke:#383335;stroke-width:0.916;stroke-linejoin:round;stroke-miterlimit:10;}
	.st13{clip-path:url(#SVGID_14_);fill:#FFFFFF;}
	.st14{clip-path:url(#SVGID_16_);}
	.st15{clip-path:url(#SVGID_18_);fill:none;stroke:#7A7878;stroke-width:0.5436;stroke-linejoin:round;stroke-miterlimit:10;}
	.st16{clip-path:url(#SVGID_20_);}
	.st17{clip-path:url(#SVGID_22_);fill:none;stroke:#7A7878;stroke-width:0.5436;stroke-linejoin:round;stroke-miterlimit:10;}
	.st18{clip-path:url(#SVGID_24_);}
	.st19{clip-path:url(#SVGID_26_);fill:none;stroke:#7A7878;stroke-width:0.5436;stroke-linejoin:round;stroke-miterlimit:10;}
	.st20{clip-path:url(#SVGID_28_);}
	.st21{clip-path:url(#SVGID_30_);fill:none;stroke:#7A7878;stroke-width:0.5436;stroke-linejoin:round;stroke-miterlimit:10;}
	.st22{clip-path:url(#SVGID_32_);}
	.st23{clip-path:url(#SVGID_34_);}
	.st24{clip-path:url(#SVGID_36_);fill:#29833B;}
</style>
<g>
	<defs>
		<rect id="SVGID_1_" width="605" height="72"/>
	</defs>
	<clipPath id="SVGID_2_">
		<use xlink:href="#SVGID_1_"  style="overflow:visible;"/>
	</clipPath>
	<line class="st0" x1="108" y1="18" x2="419.1" y2="18"/>
	<polygon class="st1" points="428.7,18 419.1,14.4 419.1,21.6 	"/>
	<polygon class="st2" points="428.7,18 419.1,14.4 419.1,21.6 	"/>
	<line class="st0" x1="432" y1="54" x2="120.9" y2="54"/>
	<polygon class="st1" points="111.3,54 120.9,57.6 120.9,50.4 	"/>
	<polygon class="st2" points="111.3,54 120.9,57.6 120.9,50.4 	"/>
	<g class="st3">
		<text transform="matrix(1 0 0 1 242.9531 41.5172)" class="st4 st5 st6">Zugriffe</text>
	</g>
</g>
<g>
	<defs>
		<rect id="SVGID_3_" x="9" y="9" width="80.4" height="45"/>
	</defs>
	<clipPath id="SVGID_4_">
		<use xlink:href="#SVGID_3_"  style="overflow:visible;"/>
	</clipPath>
	<g class="st7">
		<defs>
			<rect id="SVGID_5_" x="9" y="9" width="80.4" height="45"/>
		</defs>
		<clipPath id="SVGID_6_">
			<use xlink:href="#SVGID_5_"  style="overflow:visible;"/>
		</clipPath>
		<ellipse class="st8" cx="49.2" cy="32.1" rx="39.6" ry="17.6"/>
	</g>
</g>
<g>
	<defs>
		<rect id="SVGID_7_" x="9" y="9" width="80.4" height="45"/>
	</defs>
	<clipPath id="SVGID_8_">
		<use xlink:href="#SVGID_7_"  style="overflow:visible;"/>
	</clipPath>
	<g class="st9">
		<defs>
			<rect id="SVGID_9_" x="9" y="9" width="80.4" height="45"/>
		</defs>
		<clipPath id="SVGID_10_">
			<use xlink:href="#SVGID_9_"  style="overflow:visible;"/>
		</clipPath>
		<polygon class="st10" points="25.1,53.5 48.7,9.5 60.6,9.5 40.9,46.2 70.2,46.2 66.3,53.5 		"/>
	</g>
</g>
<g>
	<defs>
		<rect id="SVGID_11_" x="9" y="9" width="80.4" height="45"/>
	</defs>
	<clipPath id="SVGID_12_">
		<use xlink:href="#SVGID_11_"  style="overflow:visible;"/>
	</clipPath>
	<g class="st11">
		<defs>
			<rect id="SVGID_13_" x="9" y="9" width="80.4" height="45"/>
		</defs>
		<clipPath id="SVGID_14_">
			<use xlink:href="#SVGID_13_"  style="overflow:visible;"/>
		</clipPath>
		<polygon class="st12" points="66.3,53.5 70.2,46.2 40.9,46.2 60.6,9.5 48.7,9.5 25,53.5 		"/>
		<path class="st13" d="M37.2,32.1c-0.1,0-0.3,0.1-0.5,0.1c-1.1,0.1-1.8,0.2-2.1,0.4c-0.2,0.1-0.3,0.3-0.3,0.5
			c0,0.2,0.1,0.3,0.3,0.5c0.2,0.1,0.4,0.2,0.7,0.2c0.3,0,0.6-0.1,0.9-0.2c0.3-0.1,0.5-0.3,0.6-0.5c0.1-0.2,0.3-0.5,0.4-0.9
			L37.2,32.1z M35.2,30.6l-2.1-0.1c0.2-0.5,0.6-0.9,1.2-1.2c0.6-0.3,1.4-0.4,2.3-0.4c1,0,1.7,0.2,2.2,0.5c0.5,0.3,0.7,0.7,0.7,1.1
			c0,0.2,0,0.4-0.1,0.6c0,0.2-0.2,0.7-0.4,1.6c-0.2,0.7-0.3,1.2-0.3,1.5c0,0.3,0.1,0.5,0.2,0.8h-2c-0.1-0.2-0.1-0.4-0.2-0.7
			c-0.3,0.3-0.7,0.5-1.1,0.6c-0.4,0.1-0.8,0.2-1.2,0.2c-0.6,0-1.2-0.2-1.6-0.5c-0.4-0.3-0.6-0.7-0.6-1.2c0-0.6,0.2-1,0.7-1.4
			c0.5-0.3,1.3-0.5,2.5-0.6c1-0.1,1.7-0.1,2-0.2c0.1-0.2,0.1-0.4,0.1-0.5c0-0.2-0.1-0.3-0.3-0.4c-0.2-0.1-0.5-0.2-0.8-0.2
			c-0.4,0-0.7,0.1-0.9,0.2C35.4,30.2,35.3,30.4,35.2,30.6"/>
		<path class="st13" d="M42.1,28.9h2L43.8,30c0.7-0.9,1.5-1.3,2.4-1.3c0.3,0,0.6,0.1,1,0.2l-0.8,1.3c-0.2-0.1-0.4-0.1-0.6-0.1
			c-0.4,0-0.7,0.1-1.1,0.3c-0.4,0.2-0.7,0.5-0.9,0.8c-0.2,0.4-0.4,0.9-0.6,1.7l-0.5,1.9h-2.1L42.1,28.9z"/>
		<path class="st13" d="M48.1,28.9h2l-0.2,0.8c0.5-0.3,1-0.6,1.4-0.7c0.4-0.1,0.9-0.2,1.4-0.2c0.6,0,1.1,0.1,1.5,0.4
			c0.4,0.3,0.6,0.7,0.6,1.1c0,0.2-0.1,0.6-0.2,1.2l-0.9,3.4h-2.1l0.9-3.4c0.1-0.5,0.2-0.8,0.2-0.9c0-0.2-0.1-0.4-0.2-0.5
			c-0.2-0.1-0.4-0.2-0.7-0.2c-0.3,0-0.7,0.1-1,0.3c-0.4,0.2-0.7,0.5-0.9,0.8c-0.2,0.2-0.3,0.7-0.5,1.4l-0.7,2.4h-2.1L48.1,28.9z"/>
	</g>
</g>
<g>
	<defs>
		<rect id="SVGID_15_" x="9" y="9" width="80.4" height="45"/>
	</defs>
	<clipPath id="SVGID_16_">
		<use xlink:href="#SVGID_15_"  style="overflow:visible;"/>
	</clipPath>
	<g class="st14">
		<defs>
			<rect id="SVGID_17_" x="9" y="9" width="80.4" height="45"/>
		</defs>
		<clipPath id="SVGID_18_">
			<use xlink:href="#SVGID_17_"  style="overflow:visible;"/>
		</clipPath>
		<polygon class="st15" points="22.4,34.8 22.8,33.5 17.3,33.5 19.2,26.7 17,26.7 14.7,34.8 		"/>
	</g>
</g>
<g>
	<defs>
		<rect id="SVGID_19_" x="9" y="9" width="80.4" height="45"/>
	</defs>
	<clipPath id="SVGID_20_">
		<use xlink:href="#SVGID_19_"  style="overflow:visible;"/>
	</clipPath>
	<g class="st16">
		<defs>
			<rect id="SVGID_21_" x="9" y="9" width="80.4" height="45"/>
		</defs>
		<clipPath id="SVGID_22_">
			<use xlink:href="#SVGID_21_"  style="overflow:visible;"/>
		</clipPath>
		<path class="st17" d="M26.4,31.4c0.1-0.5,0.4-0.9,0.7-1.1c0.3-0.2,0.7-0.4,1.2-0.4c0.4,0,0.8,0.1,1,0.3c0.3,0.2,0.4,0.5,0.4,1
			c0,0,0,0.1,0,0.2H26.4z M31.6,31.3c0-0.8-0.3-1.4-0.8-1.9c-0.6-0.4-1.3-0.7-2.3-0.7c-1.5,0-2.7,0.4-3.5,1.3
			c-0.6,0.6-0.9,1.4-0.9,2.2c0,0.8,0.3,1.5,1,2c0.7,0.5,1.5,0.8,2.6,0.8c0.8,0,1.5-0.1,2.1-0.4c0.6-0.3,1.1-0.7,1.5-1.3L29.3,33
			c-0.4,0.5-0.9,0.8-1.6,0.8c-0.4,0-0.8-0.1-1.1-0.4c-0.3-0.2-0.4-0.6-0.4-1c0,0,0-0.1,0-0.1h5.3C31.5,32.1,31.6,31.7,31.6,31.3z"/>
		<path class="st17" d="M37.2,32.3c-0.1,0.4-0.2,0.7-0.4,0.9c-0.1,0.2-0.4,0.3-0.6,0.5c-0.3,0.1-0.6,0.2-0.9,0.2
			c-0.3,0-0.5-0.1-0.7-0.2c-0.2-0.1-0.3-0.3-0.3-0.5c0-0.2,0.1-0.4,0.3-0.5c0.3-0.2,1-0.3,2.1-0.4c0.2,0,0.4,0,0.5-0.1L37.2,32.3z
			 M35.6,30.1c0.2-0.1,0.5-0.2,0.9-0.2c0.4,0,0.6,0.1,0.8,0.2c0.2,0.1,0.3,0.3,0.3,0.4c0,0.1,0,0.3-0.1,0.5c-0.3,0.1-1,0.2-2,0.2
			c-1.2,0.1-2,0.3-2.5,0.6c-0.5,0.3-0.7,0.8-0.7,1.4c0,0.5,0.2,0.9,0.6,1.2c0.4,0.3,1,0.5,1.6,0.5c0.4,0,0.8-0.1,1.2-0.2
			c0.4-0.1,0.8-0.3,1.1-0.6c0,0.2,0.1,0.5,0.2,0.7H39c-0.1-0.3-0.2-0.6-0.2-0.8c0-0.3,0.1-0.8,0.3-1.5c0.2-0.9,0.4-1.4,0.4-1.6
			s0.1-0.4,0.1-0.6c0-0.4-0.2-0.8-0.7-1.1c-0.5-0.3-1.2-0.5-2.2-0.5c-1,0-1.7,0.1-2.3,0.4c-0.6,0.3-1,0.7-1.2,1.2l2.1,0.1
			C35.3,30.4,35.4,30.2,35.6,30.1z"/>
		<path class="st17" d="M40.5,34.8h2.1l0.5-1.9c0.2-0.8,0.4-1.3,0.6-1.7c0.2-0.3,0.5-0.6,0.9-0.8c0.4-0.2,0.7-0.3,1.1-0.3
			c0.2,0,0.4,0,0.6,0.1l0.8-1.3c-0.3-0.1-0.7-0.2-1-0.2c-0.9,0-1.7,0.4-2.4,1.3l0.3-1.1h-2L40.5,34.8z"/>
		<path class="st17" d="M46.5,34.8h2.1l0.7-2.4c0.2-0.7,0.4-1.2,0.5-1.4c0.2-0.3,0.5-0.6,0.9-0.8s0.7-0.3,1-0.3
			c0.3,0,0.5,0.1,0.7,0.2c0.2,0.1,0.2,0.3,0.2,0.5c0,0.1-0.1,0.4-0.2,0.9l-0.9,3.4h2.1l0.9-3.3c0.2-0.6,0.2-1,0.2-1.2
			c0-0.5-0.2-0.8-0.6-1.1c-0.4-0.3-0.9-0.4-1.5-0.4c-0.5,0-0.9,0.1-1.4,0.2c-0.4,0.1-0.9,0.4-1.4,0.7l0.2-0.8h-2L46.5,34.8z"/>
	</g>
</g>
<g>
	<defs>
		<rect id="SVGID_23_" x="9" y="9" width="80.4" height="45"/>
	</defs>
	<clipPath id="SVGID_24_">
		<use xlink:href="#SVGID_23_"  style="overflow:visible;"/>
	</clipPath>
	<g class="st18">
		<defs>
			<rect id="SVGID_25_" x="9" y="9" width="80.4" height="45"/>
		</defs>
		<clipPath id="SVGID_26_">
			<use xlink:href="#SVGID_25_"  style="overflow:visible;"/>
		</clipPath>
		<polygon class="st19" points="67.8,28.9 65.6,28.9 63.2,32.9 62.9,28.9 61,28.9 58.6,32.9 58,28.9 56.2,28.9 57.1,34.8 59.1,34.8 
			61.5,31.1 61.9,34.8 63.9,34.8 		"/>
	</g>
</g>
<g>
	<defs>
		<rect id="SVGID_27_" x="9" y="9" width="80.4" height="45"/>
	</defs>
	<clipPath id="SVGID_28_">
		<use xlink:href="#SVGID_27_"  style="overflow:visible;"/>
	</clipPath>
	<g class="st20">
		<defs>
			<rect id="SVGID_29_" x="9" y="9" width="80.4" height="45"/>
		</defs>
		<clipPath id="SVGID_30_">
			<use xlink:href="#SVGID_29_"  style="overflow:visible;"/>
		</clipPath>
		<path class="st21" d="M69.9,31.4c0.1-0.5,0.4-0.9,0.7-1.1c0.3-0.2,0.7-0.4,1.2-0.4s0.8,0.1,1,0.3c0.3,0.2,0.4,0.5,0.4,1
			c0,0,0,0.1,0,0.2H69.9z M75.2,31.3c0-0.8-0.3-1.4-0.8-1.9C73.8,29,73,28.8,72,28.8c-1.5,0-2.7,0.4-3.5,1.3
			c-0.6,0.6-0.9,1.4-0.9,2.2c0,0.8,0.3,1.5,1,2c0.7,0.5,1.5,0.8,2.6,0.8c0.8,0,1.5-0.1,2.1-0.4c0.6-0.3,1.1-0.7,1.5-1.3L72.9,33
			c-0.4,0.5-0.9,0.8-1.6,0.8c-0.4,0-0.8-0.1-1.1-0.4c-0.3-0.2-0.4-0.6-0.4-1c0,0,0-0.1,0-0.1H75C75.1,32.1,75.2,31.7,75.2,31.3z"/>
		<path class="st21" d="M79.4,30.5c0.4-0.4,0.8-0.6,1.4-0.6c0.4,0,0.8,0.1,1,0.4c0.3,0.2,0.4,0.6,0.4,1c0,0.4-0.1,0.9-0.3,1.3
			c-0.2,0.4-0.5,0.7-0.8,0.9c-0.3,0.2-0.7,0.3-1,0.3c-0.4,0-0.8-0.1-1-0.4c-0.3-0.2-0.4-0.6-0.4-1C78.6,31.6,78.9,31,79.4,30.5z
			 M77.7,34.8l0.3-1c0.5,0.7,1.3,1.1,2.5,1.1c0.5,0,0.9-0.1,1.4-0.2c0.4-0.2,0.8-0.4,1.2-0.7c0.4-0.3,0.7-0.7,0.9-1.2
			c0.2-0.5,0.4-1,0.4-1.6c0-0.8-0.2-1.4-0.7-1.8c-0.5-0.4-1.2-0.6-2-0.6c-0.4,0-0.8,0-1.1,0.1c-0.3,0.1-0.7,0.3-1.1,0.5l0.8-2.7H78
			l-2.3,8.2H77.7z"/>
	</g>
</g>
<g>
	<defs>
		<rect id="SVGID_31_" x="451" y="9" width="143" height="45"/>
	</defs>
	<clipPath id="SVGID_32_">
		<use xlink:href="#SVGID_31_"  style="overflow:visible;"/>
	</clipPath>
	<g class="st22">
		<defs>
			<rect id="SVGID_33_" x="451" y="9.2" width="143" height="44.6"/>
		</defs>
		<clipPath id="SVGID_34_">
			<use xlink:href="#SVGID_33_"  style="overflow:visible;"/>
		</clipPath>
		<g class="st23">
			<defs>
				<rect id="SVGID_35_" x="451" y="9" width="143" height="45"/>
			</defs>
			<clipPath id="SVGID_36_">
				<use xlink:href="#SVGID_35_"  style="overflow:visible;"/>
			</clipPath>
			<path class="st24" d="M472.8,9.2c-12,0-21.8,10-21.8,22.3s9.8,22.3,21.8,22.3s21.8-10,21.8-22.3S484.8,9.2,472.8,9.2 M472.8,51.7
				c-10.9,0-19.8-9.1-19.8-20.2c0-11.1,8.9-20.2,19.8-20.2s19.8,9.1,19.8,20.2C492.6,42.6,483.7,51.7,472.8,51.7"/>
			<path class="st24" d="M481.7,15.8c-3.6-2.1-8.5-0.3-10.4,3.3c-2.1,3.9-1.5,9.7,1.2,12.4c1.9,1.9,4.6,2,7.7,0.2l1,1.8
				c-2,1.2-3.7,1.6-5.2,1.6c-2.4,0-4-1.1-4.9-2.1c-3.4-3.3-4.1-10.2-1.6-14.9c1.2-2.3,3.1-3.9,5.4-4.7c-0.7-0.1-1.4-0.1-2.1-0.1
				c-9.8,0-17.7,8.1-17.7,18.1c0,9.3,6.9,17,15.8,18v-8.9h2v9c3.4,0,6.6-1,9.4-2.8l-3.7-4.4l0.8-0.7c0.1,0,5.2-4.2,5.7-9.3l2,0.2
				c-0.5,4.7-4,8.5-5.7,10l2.4,2.9c4-3.3,6.6-8.4,6.6-14.1C490.5,24.8,487,19,481.7,15.8 M484.6,24.9c-0.3,0.8-1.1,1.3-1.9,1
				c-0.8-0.3-1.2-1.1-1-2c0.3-0.8,1.1-1.3,1.9-1C484.4,23.2,484.9,24,484.6,24.9"/>
			<path class="st24" d="M509,40.9c-2.1,0-4.2-0.7-6.4-1.9l1.8-3.7c1,0.6,3.4,1.9,4.9,1.9c0.9,0,1.6-0.6,1.6-1.1
				c0-0.8-0.5-1.1-2-1.4l-1.9-0.4c-2.4-0.5-3.5-2-3.5-4.1c0-3.1,2.4-5.2,6.1-5.2c2.9,0,4.4,0.9,5.9,1.6l-1.6,3.2
				c-1.5-0.8-2.7-1.1-3.7-1.1c-0.8,0-1.3,0.4-1.3,0.9c0,0.5,0.3,0.9,1.6,1.2l1.8,0.4c2.6,0.6,3.7,2.1,3.7,4.4
				C515.9,38.8,513.2,40.9,509,40.9"/>
			<path class="st24" d="M526.1,40.9c-4.1,0-6.7-2.7-6.7-7.8c0-5.1,2.6-8.1,7.1-8.1c1.8,0,3.1,0.6,4.6,1.8l-2.3,3.1
				c-0.6-0.6-1.4-1.1-2.1-1.1c-1.2,0-1.8,0.6-1.8,4c0,3.1,0.3,4.4,1.8,4.4c1.1,0,2-0.6,2.7-1.4l2.1,3
				C529.9,40.4,527.9,40.9,526.1,40.9"/>
			<path class="st24" d="M537.8,24.3c-1.6,0-2.8-1.3-2.8-2.9c0-1.6,1.3-2.9,2.9-2.9c1.6,0,2.8,1.3,2.8,2.9
				C540.7,23,539.4,24.3,537.8,24.3 M535.3,40.6v-15l5-0.5v15.4H535.3z"/>
			<path class="st24" d="M550.2,34.6c0,0.9,0.3,2.8,2.4,2.8c1.3,0,2.6-0.5,3.9-1.5l1.9,2.9c-2,1.6-3.8,2.2-6,2.2
				c-4.7,0-7.4-3-7.4-7.9c0-5,2.6-8.1,6.8-8.1c4.7,0,6.7,3.1,6.7,8.2v1.4L550.2,34.6L550.2,34.6z M553.6,31c0-1.5-0.4-2.4-1.6-2.4
				c-1.1,0-1.8,0.7-1.8,2.7h3.3V31z"/>
			<path class="st24" d="M573.4,39.8c-1.1,0.9-2.1,1.2-3.3,1.2c-1.3,0-2.3-0.6-2.9-1.3c0,0.3-0.1,0.7-0.3,0.9h-4.3
				c0.3-0.6,0.3-1.6,0.3-2.9V24c0-1.8-0.1-2.9-0.4-4.2l5.1-0.9c0.1,0.7,0.3,1.9,0.3,2.9v2.3c0,0.6,0,1.4-0.1,1.7
				c0.4-0.4,1.3-0.9,2.6-0.9c3.5,0,5.8,2.5,5.8,7.6C576.3,35.6,575.4,38.2,573.4,39.8 M569.3,29.1c-0.7,0-1.1,0.5-1.3,0.7v6.4
				c0.3,0.2,0.6,0.5,1.2,0.5c1.3,0,1.8-1,1.8-3.9C571,29.8,570.4,29.1,569.3,29.1"/>
			<path class="st24" d="M586.9,40.9c-4.3,0-6.9-2.9-6.9-7.9c0-4.7,2.8-8,7.2-8c3.7,0,6.8,2.1,6.8,7.6
				C594,38.6,590.5,40.9,586.9,40.9 M587,28.6c-1,0-1.6,0.8-1.6,4.6c0,2.9,0.2,4.2,1.6,4.2c1.2,0,1.6-1.3,1.6-4.9
				C588.6,29.4,588.2,28.6,587,28.6"/>
		</g>
	</g>
</g>
</svg>
